<svg width="2286" height="1888" viewBox="0 0 2286 1888" fill="none" xmlns="http://www.w3.org/2000/svg">
<path d="M751.592 1134H330.665L256.902 1305.58C238.729 1347.8 229.642 1379.34 229.642 1400.18C229.642 1416.75 237.393 1431.45 252.893 1444.28C268.929 1456.58 303.138 1464.59 355.52 1468.33V1498H13.1652V1468.33C58.5986 1460.32 87.9968 1449.89 101.36 1437.07C128.62 1411.41 158.819 1359.29 191.959 1280.72L574.402 385.949H602.464L980.898 1290.34C1011.36 1363.04 1038.89 1410.34 1063.48 1432.26C1088.6 1453.64 1123.34 1465.66 1167.71 1468.33V1498H738.764V1468.33C782.06 1466.2 811.19 1458.98 826.157 1446.69C841.658 1434.39 849.408 1419.43 849.408 1401.79C849.408 1378.27 838.718 1341.12 817.337 1290.34L751.592 1134ZM729.143 1074.67L544.737 635.299L355.52 1074.67H729.143Z" fill="#E74040"/>
<path d="M1424.49 1422.96L1431.1 1424.37L1407.85 1498.13H1197.39V1490.71H1207.61C1219.1 1490.71 1227.32 1486.97 1232.26 1479.49C1235.07 1475.21 1236.47 1465.32 1236.47 1449.82V1274.44C1236.47 1257.47 1234.6 1246.84 1230.86 1242.57C1225.65 1236.69 1217.9 1233.75 1207.61 1233.75H1197.39V1226.33H1320.46V1233.75C1306.02 1233.61 1295.87 1234.95 1289.99 1237.76C1284.24 1240.56 1280.3 1244.1 1278.16 1248.38C1276.03 1252.66 1274.96 1262.88 1274.96 1279.05V1449.82C1274.96 1460.91 1276.03 1468.53 1278.16 1472.67C1279.77 1475.48 1282.24 1477.55 1285.58 1478.89C1288.92 1480.22 1299.34 1480.89 1316.85 1480.89H1336.69C1357.54 1480.89 1372.17 1479.36 1380.59 1476.28C1389.01 1473.21 1396.69 1467.8 1403.64 1460.05C1410.59 1452.16 1417.54 1439.8 1424.49 1422.96ZM1483.82 1383.68C1483.68 1410.94 1490.3 1432.32 1503.66 1447.82C1517.02 1463.32 1532.72 1471.07 1550.76 1471.07C1562.79 1471.07 1573.21 1467.8 1582.03 1461.25C1590.99 1454.57 1598.47 1443.21 1604.48 1427.17L1610.7 1431.18C1607.89 1449.49 1599.74 1466.19 1586.24 1481.29C1572.75 1496.26 1555.84 1503.74 1535.53 1503.74C1513.48 1503.74 1494.57 1495.19 1478.81 1478.09C1463.17 1460.85 1455.35 1437.73 1455.35 1408.73C1455.35 1377.33 1463.37 1352.88 1479.41 1335.37C1495.58 1317.73 1515.82 1308.91 1540.14 1308.91C1560.72 1308.91 1577.62 1315.73 1590.85 1329.36C1604.08 1342.85 1610.7 1360.96 1610.7 1383.68H1483.82ZM1483.82 1372.05H1568.8C1568.14 1360.29 1566.73 1352.01 1564.59 1347.2C1561.25 1339.71 1556.24 1333.83 1549.56 1329.56C1543.01 1325.28 1536.13 1323.14 1528.92 1323.14C1517.82 1323.14 1507.87 1327.49 1499.05 1336.17C1490.36 1344.73 1485.29 1356.68 1483.82 1372.05ZM1625.93 1314.53H1712.32V1321.94H1706.71C1701.5 1321.94 1697.49 1323.21 1694.68 1325.75C1692.01 1328.29 1690.67 1331.7 1690.67 1335.97C1690.67 1340.65 1692.08 1346.2 1694.88 1352.61L1737.58 1454.03L1780.47 1348.8C1783.54 1341.32 1785.08 1335.64 1785.08 1331.76C1785.08 1329.89 1784.55 1328.36 1783.48 1327.15C1782.01 1325.15 1780.14 1323.81 1777.86 1323.14C1775.59 1322.34 1770.98 1321.94 1764.03 1321.94V1314.53H1823.97V1321.94C1817.02 1322.48 1812.21 1323.88 1809.53 1326.15C1804.86 1330.16 1800.65 1336.84 1796.91 1346.2L1731.76 1503.74H1723.54L1658 1348.8C1655.06 1341.59 1652.25 1336.44 1649.58 1333.37C1646.91 1330.16 1643.5 1327.49 1639.36 1325.35C1637.09 1324.15 1632.61 1323.01 1625.93 1321.94V1314.53ZM1871.47 1383.68C1871.34 1410.94 1877.95 1432.32 1891.31 1447.82C1904.68 1463.32 1920.38 1471.07 1938.42 1471.07C1950.44 1471.07 1960.87 1467.8 1969.69 1461.25C1978.64 1454.57 1986.12 1443.21 1992.14 1427.17L1998.35 1431.18C1995.54 1449.49 1987.39 1466.19 1973.9 1481.29C1960.4 1496.26 1943.5 1503.74 1923.18 1503.74C1901.14 1503.74 1882.23 1495.19 1866.46 1478.09C1850.83 1460.85 1843.01 1437.73 1843.01 1408.73C1843.01 1377.33 1851.03 1352.88 1867.06 1335.37C1883.23 1317.73 1903.47 1308.91 1927.79 1308.91C1948.37 1308.91 1965.28 1315.73 1978.51 1329.36C1991.74 1342.85 1998.35 1360.96 1998.35 1383.68H1871.47ZM1871.47 1372.05H1956.46C1955.79 1360.29 1954.39 1352.01 1952.25 1347.2C1948.91 1339.71 1943.9 1333.83 1937.22 1329.56C1930.67 1325.28 1923.79 1323.14 1916.57 1323.14C1905.48 1323.14 1895.52 1327.49 1886.7 1336.17C1878.02 1344.73 1872.94 1356.68 1871.47 1372.05ZM2086.14 1213.1V1456.64C2086.14 1468.13 2086.95 1475.75 2088.55 1479.49C2090.29 1483.23 2092.89 1486.1 2096.37 1488.11C2099.84 1489.98 2106.32 1490.91 2115.81 1490.91V1498.13H2025.81V1490.91C2034.23 1490.91 2039.98 1490.05 2043.05 1488.31C2046.12 1486.57 2048.53 1483.7 2050.26 1479.69C2052 1475.68 2052.87 1468 2052.87 1456.64V1289.87C2052.87 1269.16 2052.4 1256.46 2051.47 1251.79C2050.53 1246.98 2049 1243.7 2046.86 1241.97C2044.85 1240.23 2042.25 1239.36 2039.04 1239.36C2035.57 1239.36 2031.16 1240.43 2025.81 1242.57L2022.4 1235.55L2077.12 1213.1H2086.14ZM2255.92 1309.11V1371.65H2249.3C2244.23 1352.01 2237.68 1338.65 2229.66 1331.56C2221.78 1324.48 2211.69 1320.94 2199.39 1320.94C2190.04 1320.94 2182.49 1323.41 2176.74 1328.36C2171 1333.3 2168.12 1338.78 2168.12 1344.79C2168.12 1352.28 2170.26 1358.69 2174.54 1364.03C2178.68 1369.51 2187.1 1375.33 2199.79 1381.47L2229.06 1395.7C2256.18 1408.93 2269.75 1426.37 2269.75 1448.02C2269.75 1464.72 2263.4 1478.22 2250.71 1488.51C2238.15 1498.66 2224.05 1503.74 2208.41 1503.74C2197.19 1503.74 2184.36 1501.74 2169.93 1497.73C2165.52 1496.39 2161.91 1495.72 2159.1 1495.72C2156.03 1495.72 2153.63 1497.46 2151.89 1500.94H2145.27V1435.39H2151.89C2155.63 1454.1 2162.78 1468.2 2173.34 1477.68C2183.89 1487.17 2195.72 1491.92 2208.81 1491.92C2218.03 1491.92 2225.52 1489.24 2231.26 1483.9C2237.14 1478.42 2240.08 1471.87 2240.08 1464.26C2240.08 1455.04 2236.81 1447.28 2230.26 1441C2223.85 1434.72 2210.95 1426.77 2191.58 1417.15C2172.2 1407.53 2159.51 1398.84 2153.49 1391.09C2147.48 1383.48 2144.47 1373.86 2144.47 1362.23C2144.47 1347.13 2149.62 1334.5 2159.91 1324.35C2170.33 1314.19 2183.76 1309.11 2200.19 1309.11C2207.41 1309.11 2216.16 1310.65 2226.45 1313.72C2233.27 1315.73 2237.81 1316.73 2240.08 1316.73C2242.22 1316.73 2243.89 1316.26 2245.09 1315.33C2246.3 1314.39 2247.7 1312.32 2249.3 1309.11H2255.92Z" fill="#E74040"/>
<g clip-path="url(#clip0_305_532)">
<mask id="mask0_305_532" style="mask-type:luminance" maskUnits="userSpaceOnUse" x="1381" y="358" width="712" height="823">
<path d="M2093 358H1381V1181H2093V358Z" fill="white"/>
</mask>
<g mask="url(#mask0_305_532)">
<path fill-rule="evenodd" clip-rule="evenodd" d="M861.923 164.267H2681.97V1985.06H861.923V164.267Z" fill="white"/>
<path fill-rule="evenodd" clip-rule="evenodd" d="M1421.62 403.018V653.104H1669.64V403.018H1421.62ZM1421.62 805.12C1421.62 805.12 1396.82 964.2 1557.09 1055.21C1605.86 1082.9 1669.64 1118.52 1669.64 1118.52V805.12H1421.62ZM1800.22 403.018V653.104H2048.23V403.018H1800.22ZM1800.22 806.896V1121.58C1800.22 1121.58 1868.1 1087.87 1927.81 1048.8C1988.87 1008.82 2021.03 955.965 2021.03 955.965C2070.85 878.471 2052.55 806.887 2052.55 806.887L1800.22 806.896Z" fill="#E74040" stroke="#E74040" stroke-width="8.06719" stroke-miterlimit="2.613"/>
<path fill-rule="evenodd" clip-rule="evenodd" d="M1942.47 545.994C1942.47 545.994 1939.91 566.303 1949.79 576.222C1959.64 586.15 1958.09 588.757 1958.09 592.942C1958.09 597.126 1954.97 603.389 1954.97 603.389C1954.97 603.389 1946.65 612.788 1941.47 612.788C1936.29 612.788 1934.2 614.876 1931.08 611.74C1927.62 603.937 1912.4 607.564 1912.4 607.564C1912.4 607.564 1907.46 606.884 1906.16 610.086C1904.21 614.932 1900.96 620.099 1913.43 620.099C1925.91 620.099 1922.28 616.434 1925.9 620.099C1929.52 623.755 1914.6 623.112 1911.37 626.362C1906.94 630.792 1909.28 637.848 1915.51 637.848C1921.72 637.848 1936.28 625.313 1936.28 625.313C1936.28 635.761 1936.28 635.761 1942.49 635.761C1948.72 635.761 1950.81 627.401 1950.81 627.401L1951.84 619.041L1958.07 609.642C1958.07 609.642 1966.37 622.187 1971.57 608.603C1976.75 595.02 1969.49 589.796 1969.49 589.796C1969.49 589.796 1978.96 592.8 1982.99 588.757C1987.01 584.705 1987.12 573.086 1987.12 573.086L1972.59 534.442L1942.47 545.994Z" fill="white" stroke="#E74040" stroke-width="4.02063" stroke-miterlimit="2.613" stroke-linecap="round" stroke-linejoin="round"/>
<path fill-rule="evenodd" clip-rule="evenodd" d="M1848.05 466.543C1848.05 466.543 1845.92 449.351 1843.9 444.609C1841.39 438.828 1831.44 428.938 1828.32 432.074C1825.21 435.21 1822.11 441.473 1822.11 447.736V454.008C1822.11 454.008 1822.11 466.534 1827.29 466.534C1832.48 466.534 1819 459.223 1819 466.534C1819 473.845 1814.85 478.03 1820.02 483.254L1825.21 488.477C1825.21 488.477 1816.91 492.652 1821.06 496.837C1825.22 501.021 1822.11 507.162 1826.27 511.346C1830.41 515.521 1836.63 513.547 1836.63 513.547C1836.63 513.547 1829.36 517.722 1829.36 522.946C1829.36 528.17 1830.93 528.689 1834.57 532.345C1838.2 535.991 1851.16 540.695 1851.16 540.695C1851.16 540.695 1840.29 548.535 1847.02 555.318C1853.77 562.109 1857.41 561.59 1860.52 558.454C1863.64 555.318 1871.94 552.182 1871.94 552.182L1879.21 548.007C1879.21 548.007 1880.24 545.919 1880.24 552.182C1880.24 558.454 1883.89 562.1 1879.21 566.804C1874.54 571.508 1877.14 574.116 1874.03 577.252C1870.91 580.388 1865.71 587.69 1865.71 587.69L1855.34 597.089C1855.34 597.089 1856.37 587.69 1848.07 587.69C1839.75 587.69 1833.52 588.729 1833.52 592.914C1833.52 597.098 1829.68 596.512 1832.49 602.312C1835.31 608.112 1845.99 605.656 1845.99 607.536C1845.99 609.415 1837.67 614.847 1837.67 614.847C1837.67 614.847 1828.34 624.246 1828.34 631.557C1828.34 638.869 1833.03 644.612 1837.67 639.908C1842.36 635.213 1841.84 629.47 1841.84 629.47H1847.02C1847.02 629.47 1855.34 624.246 1855.34 619.022C1855.34 613.799 1855.34 620.071 1859.48 624.246C1863.63 628.421 1859.48 628.421 1863.63 628.421C1867.77 628.421 1872.98 621.1 1872.98 615.886C1872.98 610.662 1876.07 601.264 1876.07 601.264V590.816C1876.07 590.816 1872.98 605.439 1881.28 605.439C1889.58 605.439 1890.63 598.128 1890.63 598.128V580.378L1886.46 569.931L1894.76 582.466L1898.92 573.067L1898.11 564.027L1897.87 561.581L1903.08 546.948C1903.08 546.948 1902.05 556.357 1907.22 556.357C1912.43 556.357 1910.86 558.973 1917.61 552.182C1926.96 542.783 1926.2 546.174 1930.85 546.174C1936.36 546.174 1954.99 545.654 1954.99 545.654C1954.99 545.654 1963.29 545.919 1963.29 539.647C1963.29 533.384 1964.86 548.526 1971.61 555.318C1978.34 562.109 1982.49 568.372 1987.15 573.077C1991.85 577.78 1998.59 581.427 1998.59 581.427C1998.59 581.427 1999.62 583.524 1999.62 588.748C1999.62 593.962 2001.18 595.53 1997.53 599.195C1993.91 602.851 1992.34 607.546 1992.34 607.546C1992.34 607.546 1988.2 608.594 1983.02 608.594C1977.81 608.594 1973.67 613.808 1973.67 613.808L1970.55 621.119C1970.55 621.119 1966.41 627.392 1972.62 627.392C1978.87 627.392 1981.97 622.168 1981.97 622.168C1981.97 622.168 1978.87 620.08 1978.87 627.392C1978.87 634.703 1977.05 636.932 1981.97 636.932C1987.15 636.932 1988.83 639.908 1991.32 637.83C1994.72 634.987 1998.59 627.392 1998.59 627.392L2001.7 619.032C2001.7 619.032 2002.71 620.08 2002.71 627.392C2000.98 634.703 2008.52 633.05 2006.88 634.703C2005.23 636.347 2014.16 634.703 2014.16 634.703L2013.11 625.294L2018.31 620.071C2018.31 620.071 2016.68 615.508 2013.01 611.805C2009.34 608.112 2007.44 603.833 2009.99 601.273C2012.54 598.713 2014.88 596.768 2016.23 598.137C2020.6 598.137 2023.82 588.039 2017.26 581.417L2014.16 578.291L2017.26 566.795L2020.37 561.571C2020.37 561.571 2024.43 552.862 2020.37 551.133C2016.85 549.631 2017.26 547.997 2017.26 547.997L2015.19 556.347L2011.65 561.137L2006.87 553.221C2006.87 553.221 2006.87 544.87 2003.75 541.734C2000.65 538.598 1996.48 530.248 1996.48 530.248C1996.48 530.248 1993.36 522.937 1988.18 522.937C1983 522.937 1995.45 525.015 2000.64 525.015C2005.83 525.015 2015.18 521.888 2015.18 516.664C2015.18 511.44 2016.21 499.954 2016.21 499.954L2008.94 488.468L1999.59 482.205H1994.4L1993.35 488.468L1990.26 478.03L1985.05 471.757H1976.75L1977.78 479.069L1970.52 471.757L1967.4 464.456L1958.07 462.368C1958.07 462.368 1954.96 464.456 1954.96 468.64V464.465C1954.96 464.465 1954.31 450.173 1961.19 451.93C1973.24 455.019 1980.65 449.569 1986.1 455.066C1989.74 458.722 1997.5 465.504 2002.68 465.504C2007.91 465.504 2016.21 463.417 2019.32 460.28C2022.44 457.144 2025.56 451.477 2025.56 447.746C2025.56 439.811 2021.39 436.259 2021.39 436.259L2016.59 432.802L2014.14 431.035C2014.14 431.035 2015.63 438.913 2013.09 441.483C2009.42 445.176 2009.97 441.483 2003.74 441.483C1997.51 441.483 1988.99 436.948 1981.94 434.171C1974.9 431.394 1955.4 434.171 1958.08 434.171C1960.76 434.171 1946.88 439.839 1944.58 445.658C1942.09 451.93 1941.46 460.28 1941.46 464.465C1941.46 468.65 1945.61 472.825 1949.78 477C1953.92 481.175 1960.66 482.734 1964.31 486.399C1967.93 490.055 1975.71 489.535 1978.84 492.662C1981.94 495.798 1992.33 497.886 1992.33 497.886C1992.33 497.886 1997.53 497.886 2000.64 501.021C2003.74 504.148 2001.67 508.333 2001.67 508.333C2001.67 508.333 2005.82 511.469 1996.47 511.469C1987.12 511.469 1982.99 507.294 1977.78 507.294C1972.58 507.294 1966.37 503.119 1961.19 503.119C1955.98 503.119 1943.52 502.08 1938.34 502.08H1933.15C1927.95 502.08 1922.76 491.642 1922.76 491.642L1916.53 486.418L1921.72 481.194L1920.69 456.115L1926.92 459.26C1926.92 459.26 1932.1 464.484 1932.1 452.988C1932.1 441.502 1930.56 445.157 1926.92 441.502C1923.29 437.846 1921.72 427.918 1921.72 427.918C1921.72 427.918 1917.05 426.35 1913.42 430.005C1909.78 433.661 1908.23 427.918 1908.23 427.918C1908.23 427.918 1909.27 417.471 1905.1 417.471C1900.96 417.471 1895.77 416.422 1895.77 420.607C1895.77 424.782 1894.72 424.782 1894.72 428.957C1894.72 433.132 1893.69 431.045 1889.54 431.045C1885.38 431.045 1879.15 422.685 1879.15 427.909C1879.15 433.132 1878.12 439.395 1878.12 439.395C1878.12 439.395 1877.09 436.268 1872.94 440.443C1868.79 444.619 1868.79 444.619 1868.79 450.881C1868.79 457.163 1868.77 459.251 1873.98 459.251C1879.16 459.251 1881.25 454.027 1881.25 454.027C1881.25 454.027 1877.61 478.578 1881.25 482.224C1884.88 485.87 1884.88 479.088 1884.88 485.879C1884.88 492.671 1878.13 492.671 1878.13 492.671C1878.13 492.671 1876.04 492.671 1876.04 501.031C1876.04 509.381 1872.95 508.342 1872.95 516.693C1872.95 525.043 1872.41 519.309 1878.13 525.043C1883.84 530.796 1882.47 529.265 1878.65 530.796C1872.38 533.299 1869.83 528.189 1860.48 528.189C1851.14 528.189 1851.14 513.566 1851.14 513.566L1846.99 498.943L1844.92 492.671C1844.92 492.671 1851.19 491.094 1853.22 487.448C1855.55 483.272 1855.31 474.912 1855.31 474.912L1852.19 467.601L1848.05 466.543Z" fill="white" stroke="#E74040" stroke-width="4.02063" stroke-miterlimit="2.613" stroke-linecap="round" stroke-linejoin="round"/>
<path d="M1890.61 469.689C1890.61 469.689 1899.14 482.526 1910.23 468.952C1910.23 468.952 1911.85 490.253 1906.01 493.37C1901.56 495.732 1896.6 494.9 1893.52 491.793C1890.57 488.845 1890.61 469.689 1890.61 469.689Z" stroke="#E74040" stroke-width="4.02063" stroke-miterlimit="2.613" stroke-linecap="round" stroke-linejoin="round"/>
<path fill-rule="evenodd" clip-rule="evenodd" d="M1884.37 444.619C1886.25 445.185 1895.79 447.538 1895.79 451.93C1895.79 456.322 1894.74 459.241 1894.74 459.241L1890.61 451.93C1890.61 451.93 1882.48 444.061 1884.37 444.619ZM1916.11 444.637C1914.21 445.195 1904.69 447.556 1904.69 451.94C1904.69 456.322 1905.74 459.251 1905.74 459.251L1909.88 451.94C1909.88 451.94 1917.99 444.08 1916.11 444.637Z" fill="#E74040" stroke="#E74040" stroke-width="4.02063" stroke-miterlimit="2.613" stroke-linecap="round" stroke-linejoin="round"/>
<path d="M1929.01 500.134C1929.01 500.134 1929.01 508.333 1922.79 508.333C1916.56 508.333 1916.56 501.021 1916.56 508.333C1916.56 515.644 1912.42 507.284 1912.42 515.644C1912.42 523.994 1906.18 518.78 1906.18 518.78M1906.17 518.771L1899.94 515.635L1898.91 522.946M1898.91 522.956C1894.74 527.131 1899.94 527.131 1894.74 527.131C1889.56 527.131 1888.53 521.917 1888.53 521.917L1887.09 512.508M1990.27 448.227C1990.27 448.227 1993.61 450.91 1998.61 453.016C2001.85 454.395 2005.82 455.529 2009.98 455.529C2012.64 455.529 2012.05 452.403 2013.93 452.024C2019.6 450.872 2024.81 451.448 2024.81 451.448M1848.05 466.543C1848.05 466.543 1843 490.725 1844.93 492.662" stroke="#E74040" stroke-width="4.02063" stroke-miterlimit="2.613" stroke-linecap="round" stroke-linejoin="round"/>
<path fill-rule="evenodd" clip-rule="evenodd" d="M1940.21 932.324C1940.21 932.324 1910.56 963.181 1920.42 973.094C1930.29 983.021 1926.48 993.852 1923.27 996.906C1920.06 999.945 1908.31 1018.48 1893.35 1022.93C1884.32 1022.93 1885.05 1014.16 1872.98 1017.64C1863.81 1020.26 1863.87 1023.56 1862.57 1026.76C1860.62 1031.62 1866.06 1040.27 1874.37 1037.99C1881.42 1036.05 1861.7 1056.91 1881.47 1055.9C1894.05 1055.27 1899.7 1034.02 1902.24 1034.02C1904.78 1034.02 1902.24 1043.73 1908.47 1043.73C1914.7 1043.73 1915.2 1035.61 1915.2 1035.61L1915.74 1025.58L1921.24 1018.31C1921.24 1018.31 1933.61 1036.84 1933.61 1019.35C1933.61 999.164 1940.83 1009.9 1940.83 1009.9C1940.83 1009.9 1944.94 1001.17 1948.98 997.13C1953 993.081 1945.94 987.573 1945.94 970.313C1945.94 951.345 1964.4 930.68 1964.4 930.68L1940.21 932.324Z" fill="white" stroke="#E74040" stroke-width="4.02063" stroke-miterlimit="2.613" stroke-linecap="round" stroke-linejoin="round"/>
<path fill-rule="evenodd" clip-rule="evenodd" d="M1848.05 868.401C1848.05 868.401 1845.92 851.2 1843.9 846.458C1841.39 840.676 1831.44 830.795 1828.32 833.922C1825.21 837.058 1822.11 843.33 1822.11 849.595V855.854C1822.11 855.854 1825.76 861.796 1827.29 868.401C1828.47 873.48 1823.06 864.299 1819 868.401C1816.83 870.553 1814.85 879.885 1820.02 885.11L1825.21 890.335C1825.21 890.335 1816.91 894.511 1821.06 898.682C1825.21 902.868 1822.11 909.02 1826.27 913.196C1830.42 917.367 1836.63 915.396 1836.63 915.396C1836.63 915.396 1829.36 919.577 1829.36 924.792C1829.36 930.017 1830.93 930.539 1834.57 934.193C1838.2 937.847 1849.23 934.739 1849.23 934.739C1849.23 934.739 1840.29 947.399 1847.02 954.19C1853.77 960.971 1857.41 958.931 1860.52 955.804C1863.64 952.667 1868.32 950.384 1868.32 950.384L1879.2 944.472C1879.2 944.472 1880.23 947.774 1880.23 954.038C1880.23 960.312 1883.88 961.644 1879.2 966.347C1874.53 971.04 1872.7 971.523 1869.57 974.65C1866.45 977.777 1855.33 985.402 1855.33 985.402C1855.33 985.402 1856.36 974.869 1848.06 974.869C1839.74 974.869 1831.5 975.943 1831.5 980.128C1831.5 984.314 1830.45 992.286 1841.97 992.286C1844.68 992.286 1830.3 1000.37 1830.3 1007.68C1830.3 1015 1839.76 1018.41 1847.61 1010.53C1851.29 1006.82 1852.72 998.359 1856.87 998.359C1861.01 998.359 1856.75 1010.54 1864.8 1010.54C1869.98 1010.54 1872.56 999.608 1872.56 999.608L1877.82 980.128C1877.82 980.128 1875.55 986.627 1883.85 986.627C1892.17 986.627 1890.62 982.255 1890.62 982.255L1886.46 971.815C1886.46 971.815 1890.68 978.987 1894.76 974.874C1898.86 970.757 1897.87 963.464 1897.87 963.464L1900.77 942.862C1900.77 942.862 1905.2 950.57 1913.26 948.135C1918.23 946.643 1919.8 949.257 1926.55 942.467C1935.88 933.061 1952.92 935.183 1963.29 934.768C1969.52 934.515 1972.31 938.583 1980.13 944.081C1989.78 950.872 1985.45 953.707 1979.7 959.478C1973.67 965.552 1969.25 959.888 1969.25 959.888C1969.25 959.888 1960.43 957.409 1956.76 961.102C1951.53 966.376 1957.83 971.118 1957.83 971.118L1963.2 972.459C1963.2 972.459 1956.35 982.592 1961.59 987.856C1966 992.295 1972.47 988.28 1975.68 985.426C1980.59 981.055 1974.79 968.727 1978.5 972.459C1981.27 975.245 1981.64 982.265 1982.99 983.641C1987.38 983.641 1988.17 980.977 1993.81 971.645C1990.19 944.506 2008.3 958.678 2003.77 943.628C2002.51 939.398 1994.87 933.797 1994.87 933.797C1994.87 933.797 1978.03 924.567 1983.54 919.04C1985.35 917.216 1991.64 923.226 1996.82 923.226C2002.02 923.226 2013.54 923.026 2015.2 913.337C2016.09 908.205 2016.24 901.848 2016.24 901.848L2008.96 890.364L1999.62 884.091H1994.43L1993.38 890.364L1990.29 879.915L1985.08 873.651H1976.78L1977.81 880.954L1970.54 873.651L1967.42 866.343L1958.1 864.255C1958.1 864.255 1954.98 866.343 1954.98 870.514V866.343C1954.98 866.343 1954.34 852.049 1961.21 853.815C1973.27 856.893 1980.67 851.454 1986.13 856.952C1989.76 860.606 1997.53 867.396 2002.71 867.396C2007.94 867.396 2016.24 865.304 2019.35 862.167C2022.46 859.03 2025.58 853.351 2025.58 849.629C2025.58 841.696 2021.41 838.134 2021.41 838.134L2016.62 834.687L2014.16 832.92C2014.16 832.92 2015.66 840.789 2013.12 843.367C2009.44 847.053 2010 843.367 2003.77 843.367C1997.54 843.367 1989.02 838.824 1981.97 836.047C1974.93 833.279 1955.42 836.047 1958.11 836.047C1960.79 836.047 1946.91 841.724 1944.61 847.541C1942.11 853.815 1941.49 862.157 1941.49 866.343C1941.49 870.524 1945.64 874.7 1949.81 878.885C1953.95 883.051 1960.69 884.617 1964.34 888.286C1967.96 891.93 1975.73 891.418 1978.87 894.545C1981.97 897.682 1992.35 899.76 1992.35 899.76C1992.35 899.76 1997.56 899.77 2000.67 902.907C2003.77 906.044 2001.7 910.21 2001.7 910.21C2001.7 910.21 2005.85 913.347 1996.5 913.347C1987.15 913.347 1983.02 909.171 1977.81 909.171C1972.61 909.171 1966.4 904.985 1961.21 904.985C1956.01 904.985 1943.55 903.956 1938.36 903.956H1933.18C1927.98 903.956 1922.79 893.496 1922.79 893.496C1922.79 893.496 1918.48 894.057 1918.48 888.286C1918.48 882.515 1921.74 883.051 1921.74 883.051L1920.72 857.981L1926.95 861.128C1926.95 861.128 1932.13 866.343 1932.13 854.854C1932.13 843.368 1930.58 847.014 1926.95 843.367C1923.31 839.703 1921.74 829.784 1921.74 829.784C1921.74 829.784 1917.08 828.216 1913.44 831.872C1909.81 835.527 1908.26 829.784 1908.26 829.784C1908.26 829.784 1909.29 819.346 1905.12 819.346C1900.98 819.346 1895.8 818.298 1895.8 822.482C1895.8 826.667 1894.75 826.658 1894.75 830.842C1894.75 835.017 1893.72 832.93 1889.57 832.93C1885.41 832.93 1879.18 824.57 1879.18 829.794C1879.18 835.017 1878.15 841.29 1878.15 841.29C1878.15 841.29 1877.12 838.153 1872.97 842.329C1868.81 846.502 1868.82 846.502 1868.82 852.766C1868.82 859.03 1868.8 861.128 1874.01 861.128C1879.19 861.128 1881.28 855.893 1881.28 855.893C1881.28 855.893 1877.64 880.481 1881.28 884.12C1884.91 887.784 1884.91 887.745 1884.91 887.745C1884.91 894.535 1878.16 894.535 1878.16 894.535C1878.16 894.535 1876.07 894.535 1876.07 902.897C1876.07 911.249 1871.72 910.303 1872.98 918.557C1875.01 931.944 1869.86 925.86 1860.51 925.86C1851.16 925.86 1851.16 915.43 1851.16 915.43L1847.02 900.799L1844.95 894.535C1844.95 894.535 1851.22 892.969 1853.25 889.315C1855.57 885.139 1855.34 876.778 1855.34 876.778L1852.22 869.465L1848.05 868.401Z" fill="white" stroke="#E74040" stroke-width="4.02063" stroke-miterlimit="2.613" stroke-linecap="round" stroke-linejoin="round"/>
<path d="M1890.61 871.538C1890.61 871.538 1899.14 884.383 1910.23 870.797C1910.23 870.797 1911.85 892.111 1906.01 895.228C1901.56 897.589 1896.6 896.755 1893.52 893.657C1890.57 890.682 1890.61 871.538 1890.61 871.538Z" stroke="#E74040" stroke-width="4.02063" stroke-miterlimit="2.613" stroke-linecap="round" stroke-linejoin="round"/>
<path fill-rule="evenodd" clip-rule="evenodd" d="M1884.37 846.468C1886.25 847.024 1895.79 849.385 1895.79 853.786C1895.79 858.181 1894.74 861.098 1894.74 861.098L1890.61 853.786C1890.61 853.786 1882.48 845.917 1884.37 846.468ZM1916.11 846.487C1914.21 847.053 1904.69 849.395 1904.69 853.795C1904.69 858.191 1905.74 861.108 1905.74 861.108L1909.88 853.795C1909.88 853.795 1917.99 845.926 1916.11 846.487Z" fill="#E74040" stroke="#E74040" stroke-width="4.02063" stroke-miterlimit="2.613" stroke-linecap="round" stroke-linejoin="round"/>
<path d="M1929.01 901.98C1929.01 901.98 1929.01 910.181 1922.79 910.181C1916.56 910.181 1916.56 902.878 1916.56 910.181C1916.56 917.494 1912.42 909.142 1912.42 917.494C1912.42 925.841 1906.18 920.635 1906.18 920.635L1899.94 917.494L1898.91 924.802C1894.32 924.802 1899.94 928.968 1894.74 928.968C1889.56 928.968 1888.53 923.753 1888.53 923.753L1887.09 914.357M1990.27 850.083C1990.27 850.083 1993.61 852.756 1998.61 854.873C2001.85 856.254 2005.82 857.396 2009.98 857.396C2012.64 857.396 2012.05 854.259 2013.93 853.883C2019.6 852.737 2024.81 853.307 2024.81 853.307M1848.05 868.401C1848.05 868.401 1843 892.584 1844.93 894.511" stroke="#E74040" stroke-width="4.02063" stroke-miterlimit="2.613" stroke-linecap="round" stroke-linejoin="round"/>
<path fill-rule="evenodd" clip-rule="evenodd" d="M1567.74 545.994C1567.74 545.994 1565.19 566.303 1575.06 576.222C1584.91 586.15 1583.36 588.757 1583.36 592.942C1583.36 597.126 1580.24 603.389 1580.24 603.389C1580.24 603.389 1571.94 612.788 1566.75 612.788C1561.55 612.788 1559.48 614.876 1556.36 611.74C1552.88 603.937 1537.67 607.564 1537.67 607.564C1537.67 607.564 1532.74 606.884 1531.44 610.086C1529.5 614.932 1526.26 620.099 1538.71 620.099C1551.18 620.099 1547.54 616.434 1551.18 620.099C1554.8 623.755 1539.87 623.112 1536.64 626.362C1532.24 630.792 1534.56 637.848 1540.79 637.848C1547.01 637.848 1561.55 625.313 1561.55 625.313C1561.55 635.761 1561.55 635.761 1567.79 635.761C1574.02 635.761 1576.09 627.401 1576.09 627.401L1577.12 619.041L1583.36 609.642C1583.36 609.642 1591.66 622.187 1596.86 608.603C1602.04 595.02 1594.78 589.796 1594.78 589.796C1594.78 589.796 1604.25 592.8 1608.28 588.757C1612.31 584.705 1612.42 573.086 1612.42 573.086L1597.9 534.442L1567.74 545.994Z" fill="white" stroke="#E74040" stroke-width="4.02063" stroke-miterlimit="2.613" stroke-linecap="round" stroke-linejoin="round"/>
<path fill-rule="evenodd" clip-rule="evenodd" d="M1473.32 466.543C1473.32 466.543 1471.21 449.351 1469.16 444.609C1466.67 438.828 1456.71 428.938 1453.6 432.074C1450.49 435.21 1447.37 441.473 1447.37 447.736V454.008C1447.37 454.008 1447.37 466.534 1452.55 466.534C1457.75 466.534 1444.25 459.223 1444.25 466.534C1444.25 473.845 1440.1 478.03 1445.29 483.254L1450.49 488.477C1450.49 488.477 1442.18 492.652 1446.33 496.837C1450.49 501.021 1447.37 507.162 1451.52 511.346C1455.67 515.521 1461.9 513.547 1461.9 513.547C1461.9 513.547 1454.64 517.722 1454.64 522.946C1454.64 528.17 1456.2 528.689 1459.82 532.345C1463.46 535.991 1476.43 540.695 1476.43 540.695C1476.43 540.695 1465.54 548.535 1472.29 555.318C1479.04 562.109 1482.67 561.59 1485.79 558.454C1488.91 555.318 1497.21 552.182 1497.21 552.182L1504.48 548.007C1504.48 548.007 1505.51 545.919 1505.51 552.182C1505.51 558.454 1509.14 562.1 1504.48 566.804C1499.8 571.508 1502.4 574.116 1499.28 577.252C1496.18 580.388 1490.98 587.69 1490.98 587.69L1480.6 597.089C1480.6 597.089 1481.63 587.69 1473.33 587.69C1465.02 587.69 1458.79 588.729 1458.79 592.914C1458.79 597.098 1454.94 596.512 1457.76 602.312C1460.57 608.112 1471.25 605.656 1471.25 607.536C1471.25 609.415 1462.95 614.847 1462.95 614.847C1462.95 614.847 1453.61 624.246 1453.61 631.557C1453.61 638.869 1458.28 644.612 1462.95 639.908C1467.62 635.213 1467.09 629.47 1467.09 629.47H1472.29C1472.29 629.47 1480.6 624.246 1480.6 619.022C1480.6 613.799 1480.6 620.071 1484.74 624.246C1488.9 628.421 1484.74 628.421 1488.9 628.421C1493.04 628.421 1498.24 621.1 1498.24 615.886C1498.24 610.662 1501.35 601.264 1501.35 601.264V590.816C1501.35 590.816 1498.24 605.439 1506.54 605.439C1514.84 605.439 1515.88 598.128 1515.88 598.128V580.378L1511.73 569.931L1520.03 582.466L1524.17 573.067L1523.36 564.027L1523.13 561.581L1528.32 546.948C1528.32 546.948 1527.29 556.357 1532.48 556.357C1537.67 556.357 1536.11 558.973 1542.86 552.182C1552.2 542.783 1551.45 546.174 1556.09 546.174C1561.59 546.174 1580.23 545.654 1580.23 545.654C1580.23 545.654 1588.53 545.919 1588.53 539.647C1588.53 533.384 1590.1 548.526 1596.84 555.318C1603.58 562.109 1607.74 568.372 1612.4 573.077C1617.08 577.78 1623.83 581.427 1623.83 581.427C1623.83 581.427 1624.86 583.524 1624.86 588.748C1624.86 593.962 1626.42 595.53 1622.79 599.195C1619.15 602.851 1617.59 607.546 1617.59 607.546C1617.59 607.546 1613.44 608.594 1608.26 608.594C1603.06 608.594 1598.91 613.808 1598.91 613.808L1595.8 621.119C1595.8 621.119 1591.65 627.392 1597.88 627.392C1604.1 627.392 1607.22 622.168 1607.22 622.168C1607.22 622.168 1604.1 620.08 1604.1 627.392C1604.1 634.703 1602.3 636.932 1607.22 636.932C1612.39 636.932 1614.08 639.908 1616.56 637.83C1619.97 634.987 1623.83 627.392 1623.83 627.392L1626.94 619.032C1626.94 619.032 1627.98 620.08 1627.98 627.392C1626.22 634.703 1633.78 633.05 1632.13 634.703C1630.47 636.347 1639.4 634.703 1639.4 634.703L1638.36 625.294L1643.55 620.071C1643.55 620.071 1641.95 615.508 1638.26 611.805C1634.59 608.112 1632.7 603.833 1635.25 601.273C1637.8 598.713 1640.12 596.768 1641.47 598.137C1645.85 598.137 1649.09 588.039 1642.51 581.417L1639.4 578.291L1642.51 566.795L1645.63 561.571C1645.63 561.571 1649.69 552.862 1645.63 551.133C1642.11 549.631 1642.51 547.997 1642.51 547.997L1640.43 556.347L1636.88 561.137L1632.13 553.221C1632.13 553.221 1632.13 544.87 1629.01 541.734C1625.89 538.598 1621.75 530.248 1621.75 530.248C1621.75 530.248 1618.63 522.937 1613.45 522.937C1608.27 522.937 1620.72 525.015 1625.9 525.015C1631.1 525.015 1640.44 521.888 1640.44 516.664C1640.44 511.44 1641.47 499.954 1641.47 499.954L1634.2 488.468L1624.86 482.205H1619.67L1618.63 488.468L1615.52 478.03L1610.33 471.757H1602.02L1603.06 479.069L1595.79 471.757L1592.68 464.456L1583.33 462.368C1583.33 462.368 1580.21 464.456 1580.21 468.64V464.465C1580.21 464.465 1579.57 450.173 1586.44 451.93C1598.5 455.019 1605.9 449.569 1611.36 455.066C1614.99 458.722 1622.78 465.504 1627.97 465.504C1633.16 465.504 1641.46 463.417 1644.58 460.28C1647.7 457.144 1650.81 451.477 1650.81 447.746C1650.81 439.811 1646.67 436.259 1646.67 436.259L1641.86 432.802L1639.41 431.035C1639.41 431.035 1640.92 438.913 1638.37 441.483C1634.7 445.176 1635.25 441.483 1629.02 441.483C1622.8 441.483 1614.27 436.948 1607.22 434.171C1600.16 431.394 1580.67 434.171 1583.34 434.171C1586.01 434.171 1572.16 439.839 1569.85 445.658C1567.35 451.93 1566.74 460.28 1566.74 464.465C1566.74 468.65 1570.88 472.825 1575.04 477C1579.19 481.175 1585.94 482.734 1589.57 486.399C1593.2 490.055 1600.99 489.535 1604.1 492.662C1607.22 495.798 1617.6 497.886 1617.6 497.886C1617.6 497.886 1622.8 497.886 1625.9 501.021C1629.02 504.148 1626.94 508.333 1626.94 508.333C1626.94 508.333 1631.1 511.469 1621.76 511.469C1612.4 511.469 1608.26 507.294 1603.07 507.294C1597.88 507.294 1591.66 503.119 1586.46 503.119C1581.27 503.119 1568.82 502.08 1563.62 502.08H1558.43C1553.24 502.08 1548.04 491.642 1548.04 491.642L1541.81 486.418L1547 481.194L1545.97 456.115L1552.2 459.26C1552.2 459.26 1557.39 464.484 1557.39 452.988C1557.39 441.502 1555.83 445.157 1552.2 441.502C1548.56 437.846 1547 427.918 1547 427.918C1547 427.918 1542.34 426.35 1538.69 430.005C1535.07 433.661 1533.51 427.918 1533.51 427.918C1533.51 427.918 1534.54 417.471 1530.4 417.471C1526.24 417.471 1521.05 416.422 1521.05 420.607C1521.05 424.782 1520.01 424.782 1520.01 428.957C1520.01 433.132 1518.97 431.045 1514.82 431.045C1510.66 431.045 1504.44 422.685 1504.44 427.909C1504.44 433.132 1503.4 439.395 1503.4 439.395C1503.4 439.395 1502.36 436.268 1498.22 440.443C1494.06 444.619 1494.06 444.619 1494.06 450.881C1494.06 457.163 1494.06 459.251 1499.25 459.251C1504.44 459.251 1506.53 454.027 1506.53 454.027C1506.53 454.027 1502.89 478.578 1506.53 482.224C1510.15 485.879 1510.15 479.088 1510.15 485.879C1510.15 492.671 1503.41 492.671 1503.41 492.671C1503.41 492.671 1501.33 492.671 1501.33 501.031C1501.33 509.381 1498.23 508.342 1498.23 516.693C1498.23 525.043 1497.7 519.309 1503.41 525.043C1509.11 530.796 1507.74 529.265 1503.93 530.796C1497.66 533.299 1495.1 528.189 1485.76 528.189C1476.41 528.189 1476.41 513.566 1476.41 513.566L1472.27 498.943L1470.19 492.671C1470.19 492.671 1476.47 491.094 1478.5 487.448C1480.81 483.272 1480.58 474.912 1480.58 474.912L1477.46 467.601L1473.32 466.543Z" fill="white" stroke="#E74040" stroke-width="4.02063" stroke-miterlimit="2.613" stroke-linecap="round" stroke-linejoin="round"/>
<path d="M1515.88 469.689C1515.88 469.689 1524.42 482.526 1535.51 468.952C1535.51 468.952 1537.12 490.253 1531.29 493.37C1526.84 495.732 1521.88 494.9 1518.79 491.793C1515.85 488.845 1515.88 469.689 1515.88 469.689Z" stroke="#E74040" stroke-width="4.02063" stroke-miterlimit="2.613" stroke-linecap="round" stroke-linejoin="round"/>
<path fill-rule="evenodd" clip-rule="evenodd" d="M1509.65 444.619C1511.55 445.185 1521.07 447.538 1521.07 451.93C1521.07 456.322 1520.03 459.241 1520.03 459.241L1515.88 451.93C1515.88 451.93 1507.76 444.061 1509.65 444.619ZM1541.39 444.637C1539.51 445.195 1529.97 447.556 1529.97 451.94C1529.97 456.322 1531.01 459.251 1531.01 459.251L1535.15 451.94C1535.16 451.949 1543.29 444.08 1541.39 444.637Z" fill="#E74040" stroke="#E74040" stroke-width="4.02063" stroke-miterlimit="2.613" stroke-linecap="round" stroke-linejoin="round"/>
<path d="M1554.29 500.134C1554.29 500.134 1554.29 508.333 1548.07 508.333C1541.84 508.333 1541.84 501.021 1541.84 508.333C1541.84 515.644 1537.69 507.284 1537.69 515.644C1537.69 523.994 1531.46 518.78 1531.46 518.78M1531.45 518.771L1525.23 515.635L1524.19 522.946M1524.18 522.956C1520.04 527.131 1525.22 527.131 1520.04 527.131C1514.85 527.131 1513.81 521.917 1513.81 521.917L1512.37 512.508M1615.53 448.227C1615.53 448.227 1618.88 450.91 1623.87 453.016C1627.13 454.395 1631.08 455.529 1635.27 455.529C1637.92 455.529 1637.32 452.403 1639.21 452.024C1644.86 450.872 1650.09 451.448 1650.09 451.448M1473.32 466.543C1473.32 466.543 1468.28 490.725 1470.2 492.662" stroke="#E74040" stroke-width="4.02063" stroke-miterlimit="2.613" stroke-linecap="round" stroke-linejoin="round"/>
<path d="M2052.55 857.327V401.79H1421.04V846.761C1421.04 984.163 1547.62 1049.44 1578.01 1067.54C1594.86 1077.58 1741.42 1157.97 1741.42 1157.97C1741.42 1157.97 1790.4 1125.41 1890.82 1071.06C2060.05 979.46 2052.55 857.327 2052.55 857.327Z" stroke="#E74040" stroke-width="20.155" stroke-miterlimit="2.613"/>
<path fill-rule="evenodd" clip-rule="evenodd" d="M1576.97 933.217C1576.97 933.217 1573.5 953.716 1580.87 961.132C1588.24 968.557 1589.54 972.913 1589.54 975.518C1589.54 978.143 1587.8 982.509 1585.64 984.68C1583.48 986.856 1584.34 988.612 1577.84 990.783C1571.34 992.964 1569.6 992.539 1569.6 996.896C1569.6 1001.26 1564.84 1000.39 1558.77 1000.39C1552.69 1000.39 1544.89 998.642 1544.89 1003.45C1544.89 1008.24 1543.58 1013.47 1548.36 1013.47C1550.75 1013.47 1553.73 1012.98 1556.3 1012.29C1558.87 1011.61 1560.73 1007.01 1561.8 1006.99C1566.78 1006.93 1566.78 1006.93 1563.58 1010.14C1560.39 1013.35 1549.67 1016.07 1549.67 1018.7C1549.67 1021.32 1549.67 1025.24 1554 1025.24C1558.33 1025.24 1565.71 1024.37 1568.74 1021.31C1571.78 1018.26 1574.81 1011.72 1574.81 1011.72C1574.81 1011.72 1571.13 1019.35 1573.94 1022.17C1576.76 1025.02 1582.61 1026.54 1582.61 1023.05C1582.61 1019.57 1582.18 1012.16 1582.18 1009.97C1582.18 1007.78 1589.98 1009.54 1591.28 1008.22C1592.59 1006.91 1596.05 996.018 1593.88 993.837C1591.72 991.651 1600.61 994.91 1603.42 992.076C1606.24 989.237 1605.16 983.358 1602.99 981.187C1600.82 979.006 1610.36 982.055 1610.36 979.006C1610.36 975.943 1609.58 965.913 1609.58 965.913L1600.38 939.31L1576.97 933.217Z" fill="white" stroke="#E74040" stroke-width="4.02063" stroke-miterlimit="2.613" stroke-linecap="round" stroke-linejoin="round"/>
<path fill-rule="evenodd" clip-rule="evenodd" d="M1475.7 868.401C1475.7 868.401 1473.6 851.2 1471.55 846.458C1469.06 840.676 1459.1 830.795 1455.98 833.922C1452.86 837.058 1449.75 843.33 1449.75 849.595V855.854C1449.75 855.854 1453.41 861.796 1454.94 868.401C1456.12 873.48 1450.71 864.299 1446.63 868.401C1444.49 870.553 1442.49 879.885 1447.67 885.11L1452.86 890.335C1452.86 890.335 1444.56 894.511 1448.71 898.682C1452.86 902.868 1449.75 909.02 1453.9 913.196C1458.06 917.367 1464.29 915.396 1464.29 915.396C1464.29 915.396 1457.02 919.577 1457.02 924.792C1457.02 930.017 1458.58 930.539 1462.2 934.193C1465.84 937.847 1476.87 934.739 1476.87 934.739C1476.87 934.739 1467.92 947.399 1474.67 954.19C1481.41 960.971 1485.05 958.931 1488.16 955.804C1491.28 952.667 1495.95 950.384 1495.95 950.384L1506.85 944.472C1506.85 944.472 1530.58 941.496 1530.58 956.336C1530.58 960.766 1513.88 971.006 1509.44 971.006C1505.01 971.006 1495.36 965.127 1491.24 965.703C1478.57 967.444 1486.81 978.133 1497.01 978.133C1499.74 978.133 1490.17 981.904 1492.81 987.28C1498.02 997.906 1505.63 989.705 1511.5 983.802C1519.09 976.172 1514.16 998.711 1518.36 999.418C1522.55 1000.13 1527.54 1002.67 1529.71 996.886C1528.62 985.88 1523.4 971.542 1532.32 976.216C1541.79 981.187 1548.35 975.318 1545.68 954.653C1545.06 949.853 1557.47 958.848 1557.47 951.082C1557.47 937.544 1551.71 937.876 1577.54 937.876C1583.76 937.876 1595.18 937.12 1598.21 949.345C1601.07 960.839 1604.9 959.205 1609.58 965.903C1613.83 971.976 1621.19 974.63 1623.79 989.451C1626.38 1004.28 1618.58 1004.29 1618.58 1012.12C1618.58 1021.89 1620.74 1021.43 1620.74 1021.43C1620.74 1021.43 1620.1 1035.04 1614.68 1029.58C1608.79 1023.65 1599.95 1030.93 1599.95 1042.24C1599.95 1047.2 1603.24 1053.21 1606.45 1050.36C1607.94 1049.02 1610.58 1052.87 1614.95 1044.32C1618.8 1036.81 1609.04 1073.64 1624.21 1054.45C1627.5 1050.3 1622.6 1048.36 1626.23 1037.17C1629.06 1028.46 1635.78 1041.89 1637.23 1034.35C1640.27 1018.64 1631.05 1011.04 1631.58 1011.58C1640.9 1020.96 1640.78 1005.16 1640.78 1002.1C1640.78 994.071 1629.2 993.554 1633.1 987.061C1630.58 968.122 1646.32 1002.34 1642.85 972.308C1641.22 958.136 1619.88 963.298 1621.62 948.891C1623.13 936.334 1605.68 926.514 1611.17 920.987C1612.98 919.162 1619.27 921.411 1624.47 921.411C1629.66 921.411 1641.18 922.972 1642.83 913.279C1643.72 908.151 1643.87 901.79 1643.87 901.79L1636.6 890.306L1627.25 884.032H1622.07L1621.03 890.306L1617.91 879.856L1612.72 873.597H1604.41L1605.45 880.895L1598.19 873.597L1595.07 866.284L1585.73 864.196C1585.73 864.196 1582.61 866.284 1582.61 870.46V866.284C1582.61 866.284 1581.96 851.99 1588.84 853.756C1600.91 856.839 1608.3 851.395 1613.76 856.893C1617.39 860.552 1625.18 867.343 1630.37 867.343C1635.56 867.343 1643.86 865.245 1646.98 862.108C1650.09 858.971 1653.2 853.298 1653.2 849.575C1653.2 841.639 1649.05 838.078 1649.05 838.078L1644.25 834.63L1641.79 832.864C1641.79 832.864 1643.3 840.732 1640.75 843.311C1637.08 846.995 1637.64 843.311 1631.42 843.311C1625.19 843.311 1616.67 838.768 1609.61 835.99C1602.57 833.223 1583.07 835.99 1585.74 835.99C1588.42 835.99 1574.57 841.667 1572.25 847.487C1569.76 853.756 1569.14 862.098 1569.14 866.284C1569.14 870.47 1573.28 874.646 1577.44 878.827C1581.59 882.993 1588.34 884.564 1591.98 888.228C1595.61 891.872 1603.39 891.364 1606.51 894.492C1609.62 897.628 1620 899.707 1620 899.707C1620 899.707 1625.19 899.712 1628.3 902.848C1631.42 905.985 1629.34 910.152 1629.34 910.152C1629.34 910.152 1633.48 913.288 1624.15 913.288C1614.81 913.288 1610.65 909.112 1605.46 909.112C1600.27 909.112 1594.04 904.927 1588.85 904.927C1583.66 904.927 1571.2 903.897 1566.01 903.897H1560.83C1555.63 903.897 1550.44 893.443 1550.44 893.443C1550.44 893.443 1546.13 893.999 1546.13 888.228C1546.13 882.456 1549.41 882.993 1549.41 882.993L1548.37 857.922L1554.6 861.069C1554.6 861.069 1559.8 866.284 1559.8 854.795C1559.8 843.311 1558.24 846.956 1554.6 843.311C1550.97 839.646 1549.41 829.728 1549.41 829.728C1549.41 829.728 1544.74 828.159 1541.11 831.815C1537.48 835.471 1535.92 829.728 1535.92 829.728C1535.92 829.728 1536.96 819.29 1532.8 819.29C1528.65 819.29 1523.45 818.241 1523.45 822.426C1523.45 826.61 1522.42 826.601 1522.42 830.785C1522.42 834.961 1521.38 832.873 1517.22 832.873C1513.07 832.873 1506.84 824.513 1506.84 829.737C1506.84 834.961 1505.8 841.233 1505.8 841.233C1505.8 841.233 1504.77 838.097 1500.61 842.272C1496.46 846.448 1496.46 846.448 1496.46 852.712C1496.46 858.971 1496.46 861.069 1501.65 861.069C1506.84 861.069 1508.92 855.834 1508.92 855.834C1508.92 855.834 1505.29 880.427 1508.92 884.061C1512.55 887.725 1512.55 887.691 1512.55 887.691C1512.55 894.482 1505.8 894.482 1505.8 894.482C1505.8 894.482 1503.72 894.482 1503.72 902.839C1503.72 911.191 1499.36 910.244 1500.6 918.503C1502.63 931.885 1497.49 925.802 1488.15 925.802C1478.8 925.802 1478.8 915.376 1478.8 915.376L1474.66 900.746L1472.58 894.482C1472.58 894.482 1478.86 892.911 1480.89 889.257C1483.2 885.081 1482.97 876.724 1482.97 876.724L1479.85 869.411L1475.7 868.401Z" fill="white" stroke="#E74040" stroke-width="4.02063" stroke-miterlimit="2.613" stroke-linecap="round" stroke-linejoin="round"/>
<path d="M1518.26 871.538C1518.26 871.538 1526.81 884.383 1537.9 870.797C1537.9 870.797 1539.51 892.111 1533.68 895.228C1529.23 897.589 1524.27 896.755 1521.18 893.657C1518.24 890.682 1518.26 871.538 1518.26 871.538Z" stroke="#E74040" stroke-width="4.02063" stroke-miterlimit="2.613" stroke-linecap="round" stroke-linejoin="round"/>
<path fill-rule="evenodd" clip-rule="evenodd" d="M1512.04 846.468C1513.93 847.024 1523.45 849.385 1523.45 853.786C1523.45 858.181 1522.42 861.098 1522.42 861.098L1518.26 853.786C1518.26 853.786 1510.14 845.917 1512.04 846.468ZM1543.78 846.487C1541.9 847.053 1532.37 849.395 1532.37 853.795C1532.37 858.191 1533.41 861.108 1533.41 861.108L1537.56 853.795C1537.56 853.795 1545.68 845.926 1543.78 846.487Z" fill="#E74040" stroke="#E74040" stroke-width="4.02063" stroke-miterlimit="2.613" stroke-linecap="round" stroke-linejoin="round"/>
<path d="M1475.71 868.401C1475.71 868.401 1470.66 892.584 1472.59 894.511M1617.92 850.083C1617.92 850.083 1621.27 852.756 1626.26 854.873C1629.51 856.254 1633.47 857.396 1637.66 857.396C1640.31 857.396 1639.71 854.259 1641.6 853.883C1647.26 852.737 1652.49 853.307 1652.49 853.307M1556.68 901.98C1556.68 901.98 1556.68 910.181 1550.45 910.181C1544.23 910.181 1544.23 902.878 1544.23 910.181C1544.23 917.494 1540.07 909.142 1540.07 917.494C1540.07 925.841 1533.85 920.635 1533.85 920.635L1527.61 917.494L1526.57 924.802C1521.98 924.802 1527.61 928.968 1522.43 928.968C1517.24 928.968 1516.19 923.753 1516.19 923.753L1514.75 914.357" stroke="#E74040" stroke-width="4.02063" stroke-miterlimit="2.613" stroke-linecap="round" stroke-linejoin="round"/>
<path fill-rule="evenodd" clip-rule="evenodd" d="M1866.59 714.513C1866.59 714.513 1856.17 709.091 1856.17 697.605C1856.17 680.743 1858.03 680.328 1858.55 680.554L1857.37 679.808C1858.71 678.704 1859.68 677.213 1860.14 675.539C1860.6 673.865 1860.54 672.089 1859.95 670.453C1859.37 668.817 1858.3 667.401 1856.88 666.398C1855.46 665.394 1853.77 664.852 1852.03 664.845C1850.96 664.037 1849.71 663.496 1848.38 663.268C1847.06 663.04 1845.7 663.131 1844.41 663.534C1843.13 663.936 1841.96 664.639 1841.01 665.584C1840.05 666.529 1839.33 667.688 1838.91 668.966C1838.49 670.243 1838.38 671.603 1838.59 672.931C1838.8 674.26 1839.33 675.519 1840.12 676.605C1840.91 677.691 1841.95 678.572 1843.16 679.175C1844.36 679.778 1845.69 680.086 1847.03 680.073V697.605C1847.03 697.605 1846.64 709.242 1837.14 714.825V723.44H1844.42C1844.42 723.44 1846.98 735.465 1852.06 735.465C1857.14 735.465 1860.92 723.44 1860.92 723.44H1867.25L1866.59 714.513Z" fill="#E74040"/>
<path fill-rule="evenodd" clip-rule="evenodd" d="M1858.56 680.564L1858.71 680.658C1858.71 680.658 1858.65 680.602 1858.56 680.564ZM1944.07 714.513C1944.07 714.513 1933.64 709.091 1933.64 697.605C1933.64 680.743 1935.5 680.328 1936.04 680.555L1934.86 679.808C1936.2 678.704 1937.17 677.213 1937.63 675.539C1938.09 673.865 1938.03 672.089 1937.44 670.453C1936.86 668.817 1935.79 667.401 1934.37 666.398C1932.95 665.394 1931.26 664.852 1929.53 664.845C1927.75 664.849 1926.02 665.412 1924.59 666.455C1923.15 667.498 1922.08 668.968 1921.53 670.655C1920.97 672.343 1920.97 674.161 1921.51 675.852C1922.05 677.543 1923.11 679.02 1924.54 680.073L1924.5 680.092V697.605C1924.5 697.605 1924.13 709.242 1914.63 714.825V723.44H1921.92C1921.92 723.44 1924.5 735.465 1929.55 735.465C1934.62 735.465 1938.39 723.44 1938.39 723.44H1944.74L1944.07 714.513Z" fill="#E74040"/>
<path fill-rule="evenodd" clip-rule="evenodd" d="M1936.05 680.564L1936.2 680.658C1936.19 680.658 1936.15 680.602 1936.05 680.564ZM2021.56 714.513C2021.56 714.513 2011.13 709.091 2011.13 697.605C2011.13 680.743 2013.01 680.328 2013.53 680.555L2012.35 679.808C2013.69 678.704 2014.66 677.213 2015.12 675.539C2015.58 673.865 2015.52 672.089 2014.93 670.453C2014.35 668.817 2013.28 667.401 2011.86 666.398C2010.45 665.394 2008.75 664.852 2007.02 664.845C2005.25 664.857 2003.53 665.424 2002.09 666.467C2000.66 667.51 1999.6 668.976 1999.04 670.659C1998.49 672.342 1998.48 674.155 1999.01 675.845C1999.54 677.534 2000.6 679.012 2002.02 680.073L2002 680.092V697.605C2002 697.605 2001.62 709.242 1992.13 714.825V723.44H1999.41C1999.41 723.44 2001.97 735.465 2007.05 735.465C2012.12 735.465 2015.9 723.44 2015.9 723.44H2022.23L2021.56 714.513Z" fill="#E74040"/>
<path fill-rule="evenodd" clip-rule="evenodd" d="M2013.54 680.564L2013.7 680.658C2013.7 680.658 2013.64 680.602 2013.54 680.564ZM1475.25 714.513C1475.25 714.513 1464.83 709.091 1464.83 697.605C1464.83 680.743 1466.7 680.328 1467.22 680.555L1466.03 679.808C1467.38 678.71 1468.35 677.221 1468.82 675.545C1469.29 673.87 1469.23 672.089 1468.65 670.45C1468.07 668.81 1466.99 667.391 1465.57 666.387C1464.15 665.384 1462.45 664.845 1460.71 664.845C1458.94 664.845 1457.2 665.405 1455.77 666.447C1454.33 667.488 1453.25 668.958 1452.7 670.646C1452.14 672.334 1452.14 674.154 1452.68 675.847C1453.22 677.54 1454.28 679.019 1455.71 680.073L1455.69 680.092V697.605C1455.69 697.605 1455.32 709.242 1445.8 714.825L1445.81 723.44H1453.1C1453.1 723.44 1455.67 735.465 1460.74 735.465C1465.82 735.465 1469.59 723.44 1469.59 723.44H1475.92L1475.25 714.513Z" fill="#E74040"/>
<path fill-rule="evenodd" clip-rule="evenodd" d="M1467.21 680.564L1467.36 680.658C1467.36 680.658 1467.3 680.602 1467.21 680.564ZM1552.73 714.513C1552.73 714.513 1542.31 709.091 1542.31 697.605C1542.31 680.743 1544.17 680.328 1544.7 680.555L1543.51 679.808C1544.85 678.708 1545.83 677.218 1546.29 675.544C1546.76 673.871 1546.7 672.093 1546.11 670.456C1545.53 668.818 1544.46 667.401 1543.04 666.397C1541.62 665.392 1539.93 664.851 1538.19 664.845C1537.09 664.849 1535.99 665.071 1534.97 665.499C1533.95 665.926 1533.02 666.551 1532.24 667.337C1531.46 668.123 1530.85 669.055 1530.43 670.08C1530.01 671.104 1529.79 672.202 1529.8 673.309C1529.8 676.086 1531.15 678.533 1533.21 680.073L1533.18 680.092V697.605C1533.18 697.605 1532.8 709.242 1523.3 714.825V723.44H1530.58C1530.58 723.44 1533.16 735.465 1538.24 735.465C1543.31 735.465 1547.08 723.44 1547.08 723.44H1553.41L1552.73 714.513Z" fill="#E74040"/>
<path fill-rule="evenodd" clip-rule="evenodd" d="M1544.7 680.564L1544.85 680.658C1544.85 680.658 1544.79 680.602 1544.7 680.564ZM1630.24 714.513C1630.24 714.513 1619.8 709.091 1619.8 697.605C1619.8 680.743 1621.67 680.328 1622.2 680.555L1621.01 679.808C1622.36 678.707 1623.33 677.217 1623.79 675.542C1624.26 673.867 1624.2 672.089 1623.61 670.451C1623.03 668.813 1621.96 667.396 1620.54 666.393C1619.12 665.389 1617.42 664.849 1615.69 664.845C1613.91 664.843 1612.18 665.402 1610.74 666.445C1609.29 667.487 1608.22 668.959 1607.67 670.649C1607.11 672.339 1607.11 674.16 1607.65 675.853C1608.2 677.546 1609.27 679.023 1610.7 680.073L1610.68 680.092V697.605C1610.68 697.605 1610.3 709.242 1600.8 714.825V723.44H1608.08C1608.08 723.44 1610.66 735.465 1615.73 735.465C1620.8 735.465 1624.57 723.44 1624.57 723.44H1630.91L1630.24 714.513Z" fill="#E74040"/>
<path fill-rule="evenodd" clip-rule="evenodd" d="M1622.2 680.564L1622.34 680.658C1622.34 680.658 1622.29 680.602 1622.2 680.564ZM1591.82 774.015C1591.82 774.015 1581.39 768.592 1581.39 757.115C1581.39 740.244 1583.25 739.838 1583.78 740.065L1582.59 739.319C1583.94 738.221 1584.92 736.731 1585.39 735.055C1585.86 733.38 1585.8 731.6 1585.21 729.96C1584.63 728.32 1583.55 726.901 1582.13 725.898C1580.71 724.895 1579.01 724.356 1577.28 724.356C1575.5 724.356 1573.77 724.919 1572.33 725.962C1570.89 727.006 1569.82 728.478 1569.26 730.167C1568.71 731.857 1568.71 733.678 1569.25 735.371C1569.79 737.063 1570.86 738.541 1572.29 739.592L1572.26 739.602V757.115C1572.26 757.115 1571.88 768.753 1562.38 774.336V782.941H1569.67C1569.67 782.941 1572.24 794.966 1577.32 794.966C1582.38 794.966 1586.16 782.941 1586.16 782.941H1592.5L1591.82 774.015Z" fill="#E74040"/>
<path fill-rule="evenodd" clip-rule="evenodd" d="M1583.78 740.065L1583.92 740.159C1583.92 740.159 1583.87 740.094 1583.78 740.065ZM1511.9 774.015C1511.9 774.015 1501.47 768.593 1501.47 757.116C1501.47 740.245 1503.32 739.838 1503.86 740.065L1502.66 739.319C1504 738.216 1504.97 736.726 1505.43 735.054C1505.89 733.382 1505.83 731.608 1505.25 729.973C1504.67 728.338 1503.6 726.922 1502.18 725.917C1500.77 724.912 1499.08 724.367 1497.35 724.356C1495.57 724.355 1493.84 724.916 1492.4 725.958C1490.96 727.001 1489.88 728.473 1489.33 730.163C1488.77 731.853 1488.77 733.675 1489.31 735.369C1489.85 737.062 1490.92 738.541 1492.35 739.593L1492.32 739.602V757.116C1492.32 757.116 1491.95 768.753 1482.45 774.336V782.941H1489.73C1489.73 782.941 1492.3 794.966 1497.37 794.966C1502.45 794.966 1506.21 782.941 1506.21 782.941H1512.56L1511.9 774.015Z" fill="#E74040"/>
<path fill-rule="evenodd" clip-rule="evenodd" d="M1503.87 740.065L1504.01 740.159C1504.01 740.159 1503.96 740.094 1503.87 740.065ZM1984.35 774.015C1984.35 774.015 1973.92 768.593 1973.92 757.116C1973.92 740.245 1975.77 739.838 1976.31 740.065L1975.11 739.319C1976.46 738.218 1977.43 736.729 1977.89 735.055C1978.36 733.381 1978.3 731.604 1977.71 729.967C1977.13 728.329 1976.06 726.911 1974.64 725.907C1973.23 724.903 1971.54 724.361 1969.79 724.356C1967.56 724.366 1965.42 725.263 1963.85 726.85C1962.27 728.437 1961.4 730.584 1961.4 732.82C1961.41 734.134 1961.71 735.43 1962.3 736.605C1962.89 737.78 1963.74 738.803 1964.79 739.593L1964.77 739.602V757.116C1964.77 757.116 1964.41 768.753 1954.91 774.336V782.941H1962.19C1962.19 782.941 1964.76 794.966 1969.82 794.966C1974.9 794.966 1978.66 782.941 1978.66 782.941H1985.01L1984.35 774.015Z" fill="#E74040"/>
<path fill-rule="evenodd" clip-rule="evenodd" d="M1976.3 740.065L1976.45 740.159C1976.45 740.159 1976.4 740.093 1976.3 740.065ZM1904.42 774.015C1904.42 774.015 1894 768.593 1894 757.115C1894 740.245 1895.85 739.838 1896.4 740.065L1895.2 739.319C1896.54 738.218 1897.51 736.729 1897.98 735.055C1898.44 733.381 1898.38 731.604 1897.8 729.967C1897.21 728.329 1896.14 726.911 1894.73 725.907C1893.31 724.903 1891.62 724.361 1889.88 724.356C1888.1 724.353 1886.36 724.912 1884.93 725.954C1883.48 726.996 1882.4 728.468 1881.85 730.158C1881.3 731.849 1881.29 733.672 1881.83 735.366C1882.37 737.061 1883.44 738.54 1884.87 739.593L1884.86 739.602V757.115C1884.86 757.115 1884.47 768.753 1874.99 774.336V782.941H1882.26C1882.26 782.941 1884.84 794.966 1889.91 794.966C1895 794.966 1898.76 782.941 1898.76 782.941H1905.1L1904.42 774.015Z" fill="#E74040"/>
<path fill-rule="evenodd" clip-rule="evenodd" d="M1896.4 740.065L1896.55 740.159C1896.54 740.159 1896.47 740.093 1896.4 740.065ZM1714.05 612.023C1714.05 612.023 1703.62 606.591 1703.62 595.124C1703.62 578.253 1705.48 577.837 1706.01 578.064L1704.81 577.318C1706.15 576.217 1707.13 574.728 1707.59 573.054C1708.06 571.38 1708 569.603 1707.41 567.965C1706.83 566.328 1705.76 564.911 1704.34 563.906C1702.92 562.902 1701.23 562.36 1699.49 562.355C1698.42 561.549 1697.17 561.011 1695.84 560.785C1694.52 560.559 1693.16 560.652 1691.88 561.056C1690.6 561.461 1689.43 562.164 1688.47 563.109C1687.52 564.054 1686.8 565.214 1686.38 566.491C1685.96 567.768 1685.86 569.127 1686.07 570.454C1686.28 571.782 1686.8 573.041 1687.59 574.126C1688.39 575.211 1689.43 576.091 1690.63 576.694C1691.83 577.296 1693.16 577.604 1694.5 577.592L1694.49 577.601V595.114C1694.49 595.114 1694.11 606.743 1684.6 612.334V620.94H1691.89C1691.89 620.94 1694.46 632.974 1699.54 632.974C1704.6 632.974 1708.38 620.94 1708.38 620.94H1714.72L1714.05 612.023Z" fill="#E74040"/>
<path fill-rule="evenodd" clip-rule="evenodd" d="M1706.01 578.074L1706.15 578.168C1706.15 578.168 1706.09 578.111 1706.01 578.074ZM1779.85 612.023C1779.85 612.023 1769.42 606.591 1769.42 595.123C1769.42 578.253 1771.28 577.838 1771.81 578.064L1770.62 577.318C1771.98 576.205 1772.96 574.694 1773.42 572.999C1773.88 571.303 1773.79 569.506 1773.18 567.86C1772.57 566.213 1771.45 564.799 1770 563.816C1768.54 562.833 1766.82 562.329 1765.06 562.376C1763.31 562.423 1761.61 563.017 1760.21 564.076C1758.81 565.135 1757.77 566.606 1757.25 568.283C1756.72 569.959 1756.74 571.758 1757.28 573.427C1757.83 575.096 1758.89 576.552 1760.3 577.592L1760.28 577.601V595.114C1760.28 595.114 1759.91 606.743 1750.41 612.335V620.94H1757.69C1757.69 620.94 1760.26 632.974 1765.34 632.974C1770.4 632.974 1774.16 620.94 1774.16 620.94H1780.51L1779.85 612.023Z" fill="#E74040"/>
<path fill-rule="evenodd" clip-rule="evenodd" d="M1771.82 578.073L1771.97 578.168C1771.96 578.168 1771.91 578.111 1771.82 578.073ZM1714.05 480.769C1714.05 480.769 1703.62 475.347 1703.62 463.87C1703.62 446.999 1705.48 446.593 1706.01 446.82L1704.81 446.073C1706.16 444.974 1707.13 443.484 1707.6 441.808C1708.07 440.132 1708.01 438.353 1707.43 436.713C1706.84 435.074 1705.77 433.654 1704.35 432.65C1702.93 431.645 1701.23 431.104 1699.49 431.101C1698.42 430.301 1697.17 429.768 1695.85 429.546C1694.53 429.324 1693.17 429.42 1691.9 429.825C1690.62 430.23 1689.46 430.933 1688.5 431.876C1687.55 432.819 1686.84 433.976 1686.42 435.249C1686 436.523 1685.89 437.877 1686.1 439.201C1686.31 440.525 1686.83 441.781 1687.62 442.864C1688.41 443.947 1689.45 444.827 1690.64 445.431C1691.84 446.035 1693.16 446.346 1694.5 446.338L1694.49 446.347V463.861C1694.49 463.861 1694.11 475.498 1684.6 481.081V489.686H1691.89C1691.89 489.686 1694.46 501.711 1699.54 501.711C1704.6 501.711 1708.38 489.686 1708.38 489.686H1714.72L1714.05 480.769Z" fill="#E74040"/>
<path fill-rule="evenodd" clip-rule="evenodd" d="M1706.01 446.82L1706.15 446.914C1706.15 446.914 1706.09 446.857 1706.01 446.82ZM1779.85 480.769C1779.85 480.769 1769.42 475.347 1769.42 463.87C1769.42 446.999 1771.28 446.593 1771.81 446.82L1770.62 446.073C1771.97 444.971 1772.94 443.48 1773.4 441.805C1773.87 440.13 1773.8 438.352 1773.22 436.715C1772.64 435.077 1771.56 433.659 1770.15 432.655C1768.73 431.65 1767.03 431.107 1765.3 431.101C1763.52 431.106 1761.79 431.67 1760.36 432.713C1758.92 433.757 1757.85 435.227 1757.3 436.914C1756.75 438.602 1756.74 440.42 1757.28 442.112C1757.82 443.804 1758.87 445.282 1760.3 446.338L1760.28 446.347V463.861C1760.28 463.861 1759.91 475.498 1750.41 481.081V489.686H1757.69C1757.69 489.686 1760.26 501.711 1765.34 501.711C1770.4 501.711 1774.16 489.686 1774.16 489.686H1780.51L1779.85 480.769Z" fill="#E74040"/>
<path fill-rule="evenodd" clip-rule="evenodd" d="M1771.82 446.82L1771.97 446.914C1771.96 446.914 1771.91 446.858 1771.82 446.82ZM1714.05 1076.74C1714.05 1076.74 1703.62 1071.32 1703.62 1059.84C1703.62 1042.97 1705.48 1042.56 1706.01 1042.78L1704.81 1042.05C1706.16 1040.95 1707.14 1039.46 1707.61 1037.79C1708.08 1036.11 1708.01 1034.33 1707.43 1032.69C1706.85 1031.05 1705.77 1029.63 1704.35 1028.63C1702.93 1027.63 1701.23 1027.08 1699.49 1027.08C1698.39 1027.09 1697.29 1027.31 1696.27 1027.74C1695.25 1028.17 1694.33 1028.79 1693.55 1029.57C1692.77 1030.36 1692.15 1031.29 1691.73 1032.31C1691.31 1033.34 1691.1 1034.43 1691.1 1035.54C1691.1 1036.86 1691.41 1038.15 1692 1039.33C1692.59 1040.51 1693.45 1041.53 1694.5 1042.32L1694.49 1059.83C1694.49 1059.83 1694.11 1071.47 1684.6 1077.04V1085.66H1691.89C1691.89 1085.66 1694.46 1097.69 1699.54 1097.69C1704.6 1097.69 1708.38 1085.66 1708.38 1085.66H1714.72L1714.05 1076.74Z" fill="#E74040"/>
<path fill-rule="evenodd" clip-rule="evenodd" d="M1706.01 1042.78L1706.15 1042.89C1706.15 1042.89 1706.09 1042.83 1706.01 1042.78ZM1779.85 1076.74C1779.85 1076.74 1769.42 1071.32 1769.42 1059.84C1769.42 1042.97 1771.28 1042.56 1771.81 1042.78L1770.62 1042.05C1771.97 1040.95 1772.94 1039.46 1773.41 1037.78C1773.87 1036.11 1773.81 1034.33 1773.23 1032.69C1772.64 1031.05 1771.57 1029.64 1770.15 1028.63C1768.73 1027.63 1767.04 1027.09 1765.3 1027.08C1763.52 1027.08 1761.79 1027.64 1760.35 1028.69C1758.91 1029.73 1757.83 1031.2 1757.28 1032.89C1756.72 1034.58 1756.72 1036.4 1757.26 1038.1C1757.8 1039.79 1758.87 1041.27 1760.3 1042.32H1760.28V1059.83C1760.28 1059.83 1759.91 1071.47 1750.41 1077.04V1085.66H1757.69C1757.69 1085.66 1760.26 1097.69 1765.34 1097.69C1770.4 1097.69 1774.16 1085.66 1774.16 1085.66H1780.51L1779.85 1076.74ZM1714.05 945.501C1714.05 945.501 1703.62 940.076 1703.62 928.602C1703.62 911.727 1705.48 911.313 1706.01 911.532L1704.81 910.805C1706.16 909.703 1707.13 908.215 1707.6 906.537C1708.07 904.863 1708.01 903.083 1707.43 901.443C1706.84 899.804 1705.77 898.385 1704.35 897.38C1702.93 896.375 1701.23 895.833 1699.49 895.833C1698.42 895.033 1697.17 894.506 1695.85 894.282C1694.53 894.062 1693.18 894.16 1691.91 894.565C1690.63 894.97 1689.47 895.672 1688.52 896.614C1687.57 897.555 1686.86 898.712 1686.44 899.98C1686.03 901.253 1685.92 902.605 1686.13 903.927C1686.33 905.249 1686.85 906.498 1687.64 907.581C1688.43 908.664 1689.46 909.542 1690.65 910.147C1691.84 910.752 1693.16 911.064 1694.5 911.059L1694.49 911.078V928.592C1694.49 928.592 1694.11 940.227 1684.6 945.813V954.414H1691.89C1691.89 954.414 1694.46 966.449 1699.54 966.449C1704.6 966.449 1708.38 954.414 1708.38 954.414H1714.72L1714.05 945.501ZM1783.06 945.501C1783.06 945.501 1772.63 940.076 1772.63 928.602C1772.63 911.727 1774.49 911.313 1775.02 911.532L1773.83 910.805C1775.17 909.698 1776.14 908.21 1776.6 906.537C1777.06 904.863 1776.99 903.092 1776.41 901.458C1775.83 899.819 1774.76 898.404 1773.35 897.399C1771.94 896.394 1770.25 895.843 1768.52 895.833C1767.44 895.033 1766.2 894.506 1764.88 894.282C1763.56 894.062 1762.21 894.16 1760.93 894.565C1759.66 894.97 1758.5 895.672 1757.55 896.614C1756.6 897.555 1755.88 898.712 1755.47 899.98C1755.05 901.253 1754.94 902.605 1755.15 903.927C1755.36 905.249 1755.88 906.498 1756.66 907.581C1757.45 908.664 1758.48 909.542 1759.67 910.147C1760.87 910.752 1762.19 911.064 1763.52 911.059L1763.5 911.078V928.592C1763.5 928.592 1763.13 940.227 1753.63 945.813L1753.64 954.414H1760.92C1760.92 954.414 1763.48 966.449 1768.55 966.449C1773.63 966.449 1777.39 954.414 1777.39 954.414H1783.73L1783.06 945.501Z" fill="#E74040"/>
<path fill-rule="evenodd" clip-rule="evenodd" d="M1775.02 911.522L1775.16 911.625C1775.15 911.635 1775.11 911.576 1775.02 911.522ZM1748.54 1001.36C1748.54 1001.36 1738.11 995.94 1738.11 984.456C1738.11 967.605 1739.98 967.186 1740.5 967.415L1739.32 966.669C1740.66 965.561 1741.62 964.073 1742.08 962.405C1742.54 960.732 1742.47 958.961 1741.89 957.326C1741.31 955.697 1740.24 954.282 1738.83 953.272C1737.42 952.267 1735.74 951.721 1734.01 951.706C1732.9 951.706 1731.8 951.931 1730.78 952.355C1729.76 952.785 1728.83 953.409 1728.05 954.194C1727.27 954.98 1726.65 955.912 1726.23 956.936C1725.81 957.961 1725.6 959.063 1725.6 960.171C1725.61 961.483 1725.92 962.781 1726.51 963.956C1727.1 965.132 1727.95 966.152 1729 966.942L1728.98 966.952V984.456C1728.98 984.456 1728.6 996.101 1719.1 1001.68V1010.28H1726.39C1726.39 1010.28 1728.95 1022.31 1734.03 1022.31C1739.1 1022.31 1742.87 1010.28 1742.87 1010.28H1749.2L1748.54 1001.36Z" fill="#E74040"/>
<path fill-rule="evenodd" clip-rule="evenodd" d="M1740.5 967.405L1740.65 967.488C1740.64 967.498 1740.59 967.444 1740.5 967.405ZM1748.54 872.86C1748.54 872.86 1738.11 867.436 1738.11 855.961C1738.11 839.079 1739.98 838.682 1740.5 838.909L1739.32 838.153C1740.67 837.055 1741.65 835.566 1742.12 833.891C1742.59 832.215 1742.53 830.435 1741.94 828.795C1741.36 827.155 1740.29 825.736 1738.86 824.733C1737.44 823.729 1735.75 823.191 1734.01 823.191C1729.35 823.191 1725.6 826.97 1725.6 831.645C1725.6 832.963 1725.91 834.263 1726.5 835.442C1727.09 836.621 1727.95 837.646 1729 838.437H1728.98V855.952C1728.98 855.952 1728.6 867.587 1719.1 873.173V881.773H1726.39C1726.39 881.773 1728.95 893.809 1734.03 893.809C1739.1 893.809 1742.87 881.773 1742.87 881.773H1749.2L1748.54 872.86Z" fill="#E74040"/>
<path fill-rule="evenodd" clip-rule="evenodd" d="M1740.5 838.909L1740.65 838.994C1740.64 838.994 1740.59 838.937 1740.5 838.909ZM1748.54 545.314C1748.54 545.314 1738.11 539.892 1738.11 528.415C1738.11 511.544 1739.98 511.129 1740.5 511.356L1739.32 510.609C1740.66 509.504 1741.62 508.014 1742.08 506.344C1742.54 504.674 1742.47 502.902 1741.89 501.269C1741.31 499.636 1740.24 498.222 1738.83 497.216C1737.42 496.21 1735.74 495.662 1734.01 495.647C1732.93 494.841 1731.68 494.303 1730.36 494.076C1729.03 493.851 1727.67 493.943 1726.39 494.347C1725.11 494.751 1723.94 495.454 1722.99 496.398C1722.03 497.343 1721.31 498.501 1720.9 499.778C1720.48 501.055 1720.37 502.413 1720.58 503.74C1720.79 505.068 1721.31 506.326 1722.1 507.411C1722.89 508.496 1723.93 509.377 1725.13 509.981C1726.33 510.585 1727.66 510.894 1729 510.883L1728.98 510.893V528.415C1728.98 528.415 1728.6 540.053 1719.1 545.626V554.241H1726.39C1726.39 554.241 1728.95 566.266 1734.03 566.266C1739.1 566.266 1742.87 554.241 1742.87 554.241H1749.2L1748.54 545.314Z" fill="#E74040"/>
<path fill-rule="evenodd" clip-rule="evenodd" d="M1740.5 511.365L1740.65 511.459C1740.61 511.424 1740.56 511.393 1740.5 511.365Z" fill="#E74040"/>
<path fill-rule="evenodd" clip-rule="evenodd" d="M1807.09 781.439H1662.53V670.296H1807.09V781.439Z" fill="#E74040" stroke="#E74040" stroke-width="8.06719" stroke-miterlimit="2.613"/>
<path fill-rule="evenodd" clip-rule="evenodd" d="M1701.92 826.95H1681.94V784.377H1701.92V826.95ZM1785.36 826.95H1765.38V784.377H1785.36V826.95Z" fill="white" stroke="#E74040" stroke-width="8.06719" stroke-miterlimit="2.613"/>
<path fill-rule="evenodd" clip-rule="evenodd" d="M1702.26 694.374H1690.15V665.771H1702.26V694.374ZM1740.59 694.374H1728.46V665.771H1740.59V694.374ZM1780.31 694.374H1768.2V665.771H1780.31V694.374ZM1681.28 699.532H1669.17V690.152H1681.28V699.532ZM1800.01 699.532H1787.88V690.152H1800.01V699.532ZM1685.13 778.284H1672.08V766.099H1685.13V778.284ZM1796.63 778.284H1783.57V766.099H1796.63V778.284Z" fill="white" stroke="#E74040" stroke-width="4.02063" stroke-miterlimit="2.613"/>
<path fill-rule="evenodd" clip-rule="evenodd" d="M1766.14 729.296C1766.14 740.471 1752.36 749.539 1735.34 749.539C1718.34 749.539 1704.57 740.471 1704.57 729.296C1704.57 718.112 1718.33 709.035 1735.34 709.035C1752.36 709.035 1766.14 718.112 1766.14 729.296Z" fill="white" stroke="#E74040" stroke-width="6.04391" stroke-miterlimit="2.613"/>
<path fill-rule="evenodd" clip-rule="evenodd" d="M1752.99 729.296C1752.99 735.106 1744.88 739.81 1734.87 739.81C1724.87 739.81 1716.75 735.106 1716.75 729.296C1716.75 723.477 1724.86 718.764 1734.87 718.764C1744.89 718.764 1752.99 723.477 1752.99 729.296Z" fill="white" stroke="#E74040" stroke-width="6.04391" stroke-miterlimit="2.613"/>
</g>
</g>
<defs>
<clipPath id="clip0_305_532">
<rect width="712" height="823" fill="white" transform="translate(1381 358)"/>
</clipPath>
</defs>
</svg>
