<svg width="239" height="239" viewBox="0 0 239 239" fill="none" xmlns="http://www.w3.org/2000/svg">
<g clip-path="url(#clip0_300_57)">
<path d="M239 119.43C239 185.475 184.708 239 117.726 239C60.7904 239 13.0446 200.324 0 148.163C23.732 147.895 46.2414 142.662 66.5599 133.53V86.9946C66.5599 83.3064 65.2602 80.6108 62.6646 78.9053C60.0737 77.2082 55.4678 76.3518 48.8383 76.3518V72.041C57.625 71.7519 65.6818 71.24 73.0039 70.5149C80.3344 69.7874 86.6519 68.6925 91.9625 67.2375L92.0733 134.824C92.0733 138.657 92.0733 142.839 92.0733 147.378C92.0733 151.782 92.007 156.11 91.8589 160.364C91.7119 164.624 91.4939 168.594 91.2096 172.283C90.9182 175.974 90.5592 179.091 90.1244 181.643C97.3308 185.767 105.326 189.169 114.119 191.869C122.911 194.565 131.12 195.907 138.757 195.907C145.24 195.907 151.511 194.95 157.561 193.032C163.615 191.117 168.984 188.315 173.661 184.613C178.346 180.92 182.133 176.383 185.017 170.976C187.896 165.574 189.335 159.457 189.335 152.636C189.335 146.387 188.254 140.629 186.091 135.37C183.929 130.109 180.896 125.567 176.994 121.725C173.099 117.882 168.491 114.871 163.15 112.667C157.806 110.458 151.965 109.356 145.616 109.356C140.853 109.356 135.989 110.183 131.011 111.822C126.025 113.474 121.521 115.514 117.483 117.94V97.824C139.324 75.3196 154.694 46.6686 160.615 14.7511C133.582 3.43383 102.255 1.96075 72.6244 13.0504C39.7083 25.3674 15.6354 50.6518 4.10609 80.7674C15.2126 48.344 40.3852 20.9 75.3574 7.80127C104.56 -3.12095 135.067 -2.15978 161.714 8.09998C161.717 8.07468 161.727 8.04578 161.731 8.0241C206.943 25.3927 239 68.7106 239 119.43ZM121.169 180.663C124.476 186.277 130.092 189.078 138.016 189.078C145.922 189.078 151.546 186.277 154.861 180.663C158.172 175.06 159.827 166.224 159.827 154.149C159.827 142.087 158.172 133.248 154.861 127.641C151.546 122.032 145.922 119.235 138.016 119.235C130.09 119.235 124.475 122.032 121.169 127.641C117.856 133.248 116.202 142.087 116.202 154.149C116.202 166.224 117.856 175.06 121.169 180.663ZM89.5691 53.8027C92.9333 50.5675 94.6099 46.5217 94.6099 41.6568C94.6099 36.7943 92.9333 32.7472 89.5691 29.5084C86.2195 26.2659 82.1435 24.6459 77.3689 24.6459C72.5895 24.6459 68.5147 26.2659 65.159 29.5084C61.7985 32.746 60.1231 36.7943 60.1231 41.6568C60.1231 46.5217 61.7985 50.5675 65.159 53.8027C68.5147 57.0428 72.5883 58.664 77.3689 58.664C82.1447 58.664 86.2195 57.0428 89.5691 53.8027Z" fill="#E74040"/>
</g>
<defs>
<clipPath id="clip0_300_57">
<rect width="239" height="239" fill="white"/>
</clipPath>
</defs>
</svg>
