<svg width="1460" height="1687" viewBox="0 0 1460 1687" fill="none" xmlns="http://www.w3.org/2000/svg">
<g clip-path="url(#clip0_301_60)">
<path fill-rule="evenodd" clip-rule="evenodd" d="M-1064.4 -397.117H2667.71V3335.18H-1064.4V-397.117Z" fill="white"/>
<path fill-rule="evenodd" clip-rule="evenodd" d="M83.2949 92.2786V604.909H591.872V92.2786H83.2949ZM83.2949 916.515C83.2949 916.515 32.4314 1242.6 361.079 1429.15C461.083 1485.92 591.872 1558.92 591.872 1558.92V916.515H83.2949ZM859.646 92.2786V604.909H1368.2V92.2786H859.646ZM859.646 920.155V1565.19C859.646 1565.19 998.838 1496.1 1121.26 1416.02C1246.48 1334.07 1312.42 1225.72 1312.42 1225.72C1414.59 1066.87 1377.05 920.136 1377.05 920.136L859.646 920.155Z" fill="#E74040" stroke="#E74040" stroke-width="8.06719" stroke-miterlimit="2.613"/>
<path fill-rule="evenodd" clip-rule="evenodd" d="M1151.33 385.354C1151.33 385.354 1146.08 426.984 1166.34 447.315C1186.53 467.666 1183.36 473.01 1183.36 481.588C1183.36 490.165 1176.97 503.003 1176.97 503.003C1176.97 503.003 1159.91 522.269 1149.28 522.269C1138.65 522.269 1134.37 526.548 1127.98 520.12C1120.87 504.126 1089.66 511.561 1089.66 511.561C1089.66 511.561 1079.54 510.167 1076.88 516.731C1072.88 526.664 1066.22 537.256 1091.79 537.256C1117.37 537.256 1109.92 529.743 1117.35 537.256C1124.77 544.749 1094.17 543.432 1087.55 550.093C1078.47 559.174 1083.27 573.638 1096.05 573.638C1108.79 573.638 1138.63 547.944 1138.63 547.944C1138.63 569.359 1138.63 569.359 1151.37 569.359C1164.15 569.359 1168.43 552.223 1168.43 552.223L1170.54 535.087L1183.32 515.821C1183.32 515.821 1200.34 541.535 1211 513.691C1221.63 485.847 1206.73 475.14 1206.73 475.14C1206.73 475.14 1226.16 481.297 1234.41 473.01C1242.66 464.703 1242.89 440.887 1242.89 440.887L1213.1 361.674L1151.33 385.354Z" fill="white" stroke="#E74040" stroke-width="4.02063" stroke-miterlimit="2.613" stroke-linecap="round" stroke-linejoin="round"/>
<path fill-rule="evenodd" clip-rule="evenodd" d="M957.713 222.494C957.713 222.494 953.356 187.253 949.213 177.533C944.063 165.683 923.655 145.41 917.266 151.839C910.876 158.267 904.526 171.105 904.526 183.942V196.799C904.526 196.799 904.526 222.474 915.155 222.474C925.785 222.474 898.136 207.488 898.136 222.474C898.136 237.461 889.636 246.039 900.247 256.747L910.876 267.454C910.876 267.454 893.857 276.013 902.377 284.59C910.896 293.168 904.526 305.754 913.045 314.332C921.545 322.89 934.304 318.843 934.304 318.843C934.304 318.843 919.396 327.402 919.396 338.109C919.396 348.817 922.61 349.882 930.064 357.375C937.518 364.849 964.102 374.492 964.102 374.492C964.102 374.492 941.797 390.563 955.602 404.466C969.446 418.387 976.9 417.322 983.29 410.894C989.679 404.466 1006.7 398.037 1006.7 398.037L1021.61 389.479C1021.61 389.479 1023.72 385.2 1023.72 398.037C1023.72 410.894 1031.21 418.368 1021.61 428.011C1012.04 437.653 1017.37 442.998 1010.98 449.426C1004.59 455.855 993.919 470.822 993.919 470.822L972.66 490.088C972.66 490.088 974.77 470.822 957.751 470.822C940.694 470.822 927.915 472.952 927.915 481.53C927.915 490.107 920.054 488.907 925.804 500.796C931.594 512.684 953.492 507.65 953.492 511.503C953.492 515.356 936.434 526.49 936.434 526.49C936.434 526.49 917.304 545.756 917.304 560.743C917.304 575.73 926.908 587.502 936.434 577.86C946.037 568.236 944.973 556.464 944.973 556.464H955.602C955.602 556.464 972.66 545.756 972.66 535.048C972.66 524.341 972.66 537.198 981.16 545.756C989.66 554.314 981.16 554.314 989.66 554.314C998.159 554.314 1008.83 539.308 1008.83 528.62C1008.83 517.912 1015.18 498.646 1015.18 498.646V477.231C1015.18 477.231 1008.83 507.205 1025.85 507.205C1042.87 507.205 1045.02 492.218 1045.02 492.218V455.835L1036.48 434.42L1053.5 460.114L1062.03 440.848L1060.37 422.318L1059.88 417.303L1070.55 387.31C1070.55 387.31 1068.44 406.595 1079.05 406.595C1089.72 406.595 1086.51 411.959 1100.35 398.037C1119.52 378.771 1117.97 385.722 1127.5 385.722C1138.8 385.722 1177 384.657 1177 384.657C1177 384.657 1194.02 385.2 1194.02 372.343C1194.02 359.505 1197.24 390.544 1211.08 404.466C1224.89 418.387 1233.39 431.225 1242.95 440.868C1252.59 450.51 1266.4 457.984 1266.4 457.984C1266.4 457.984 1268.51 462.283 1268.51 472.991C1268.51 483.679 1271.72 486.893 1264.23 494.406C1256.81 501.899 1253.6 511.523 1253.6 511.523C1253.6 511.523 1245.1 513.672 1234.47 513.672C1223.8 513.672 1215.3 524.36 1215.3 524.36L1208.91 539.347C1208.91 539.347 1200.41 552.204 1213.15 552.204C1225.97 552.204 1232.32 541.496 1232.32 541.496C1232.32 541.496 1225.97 537.217 1225.97 552.204C1225.97 567.191 1222.23 571.76 1232.32 571.76C1242.95 571.76 1246.4 577.86 1251.49 573.6C1258.48 567.772 1266.4 552.204 1266.4 552.204L1272.79 535.068C1272.79 535.068 1274.86 537.217 1274.86 552.204C1271.3 567.191 1286.77 563.802 1283.4 567.191C1280.03 570.56 1298.33 567.191 1298.33 567.191L1296.18 547.905L1306.84 537.198C1306.84 537.198 1303.51 527.845 1295.98 520.255C1288.45 512.684 1284.56 503.913 1289.79 498.666C1295.01 493.418 1299.82 489.43 1302.57 492.237C1311.53 492.237 1318.15 471.538 1304.68 457.965L1298.33 451.556L1304.68 427.991L1311.07 417.284C1311.07 417.284 1319.39 399.431 1311.07 395.888C1303.84 392.809 1304.68 389.459 1304.68 389.459L1300.44 406.576L1293.18 416.393L1283.38 400.167C1283.38 400.167 1283.38 383.05 1276.99 376.622C1270.64 370.193 1262.08 353.077 1262.08 353.077C1262.08 353.077 1255.69 338.09 1245.06 338.09C1234.43 338.09 1259.97 342.35 1270.62 342.35C1281.25 342.35 1300.42 335.941 1300.42 325.233C1300.42 314.525 1302.53 290.98 1302.53 290.98L1287.62 267.435L1268.45 254.597H1257.82L1255.67 267.435L1249.32 246.039L1238.65 233.182H1221.63L1223.74 248.169L1208.84 233.182L1202.45 218.215L1183.32 213.935C1183.32 213.935 1176.93 218.215 1176.93 226.792V218.234C1176.93 218.234 1175.61 188.938 1189.71 192.539C1214.43 198.871 1229.61 187.699 1240.8 198.968C1248.26 206.461 1264.17 220.364 1274.8 220.364C1285.51 220.364 1302.53 216.085 1308.92 209.656C1315.31 203.228 1321.7 191.61 1321.7 183.962C1321.7 167.697 1313.16 160.417 1313.16 160.417L1303.32 153.33L1298.29 149.709C1298.29 149.709 1301.35 165.857 1296.14 171.124C1288.61 178.695 1289.75 171.124 1276.97 171.124C1264.19 171.124 1246.73 161.83 1232.26 156.137C1217.82 150.445 1177.84 156.137 1183.34 156.137C1188.83 156.137 1160.37 167.755 1155.65 179.682C1150.54 192.539 1149.26 209.656 1149.26 218.234C1149.26 226.812 1157.76 235.37 1166.32 243.928C1174.8 252.487 1188.62 255.682 1196.11 263.194C1203.53 270.688 1219.48 269.623 1225.91 276.032C1232.26 282.46 1253.56 286.74 1253.56 286.74C1253.56 286.74 1264.23 286.74 1270.62 293.168C1276.97 299.577 1272.73 308.155 1272.73 308.155C1272.73 308.155 1281.23 314.583 1262.06 314.583C1242.89 314.583 1234.41 306.025 1223.74 306.025C1213.08 306.025 1200.34 297.467 1189.71 297.467C1179.04 297.467 1153.48 295.337 1142.85 295.337H1132.22C1121.55 295.337 1110.92 273.941 1110.92 273.941L1098.14 263.233L1108.77 252.525L1106.66 201.117L1119.44 207.565C1119.44 207.565 1130.07 218.273 1130.07 194.708C1130.07 171.163 1126.9 178.656 1119.44 171.163C1111.99 163.669 1108.77 143.319 1108.77 143.319C1108.77 143.319 1099.21 140.105 1091.75 147.598C1084.3 155.092 1081.12 143.319 1081.12 143.319C1081.12 143.319 1083.24 121.904 1074.7 121.904C1066.2 121.904 1055.57 119.755 1055.57 128.332C1055.57 136.891 1053.42 136.891 1053.42 145.449C1053.42 154.007 1051.31 149.728 1042.79 149.728C1034.27 149.728 1021.49 132.592 1021.49 143.3C1021.49 154.007 1019.38 166.845 1019.38 166.845C1019.38 166.845 1017.27 160.436 1008.75 168.994C1000.25 177.553 1000.25 177.553 1000.25 190.39C1000.25 203.266 1000.21 207.546 1010.88 207.546C1021.51 207.546 1025.79 196.838 1025.79 196.838C1025.79 196.838 1018.33 247.162 1025.79 254.636C1033.24 262.11 1033.24 248.208 1033.24 262.129C1033.24 276.051 1019.4 276.051 1019.4 276.051C1019.4 276.051 1015.12 276.051 1015.12 293.187C1015.12 310.304 1008.77 308.174 1008.77 325.291C1008.77 342.408 1007.67 330.654 1019.4 342.408C1031.11 354.2 1028.29 351.063 1020.46 354.2C1007.61 359.331 1002.38 348.856 983.212 348.856C964.044 348.856 964.044 318.882 964.044 318.882L955.544 288.908L951.304 276.051C951.304 276.051 964.16 272.818 968.323 265.344C973.086 256.785 972.602 239.649 972.602 239.649L966.212 224.662L957.713 222.494Z" fill="white" stroke="#E74040" stroke-width="4.02063" stroke-miterlimit="2.613" stroke-linecap="round" stroke-linejoin="round"/>
<path d="M1044.98 228.942C1044.98 228.942 1062.48 255.256 1085.21 227.431C1085.21 227.431 1088.54 271.094 1076.56 277.484C1067.44 282.325 1057.27 280.621 1050.96 274.251C1044.9 268.209 1044.98 228.942 1044.98 228.942Z" stroke="#E74040" stroke-width="4.02063" stroke-miterlimit="2.613" stroke-linecap="round" stroke-linejoin="round"/>
<path fill-rule="evenodd" clip-rule="evenodd" d="M1032.2 177.553C1036.05 178.714 1055.61 183.536 1055.61 192.539C1055.61 201.543 1053.46 207.526 1053.46 207.526L1044.98 192.539C1044.98 192.539 1028.31 176.41 1032.2 177.553ZM1097.27 177.591C1093.38 178.734 1073.86 183.574 1073.86 192.559C1073.86 201.543 1076.01 207.546 1076.01 207.546L1084.51 192.559C1084.51 192.559 1101.14 176.449 1097.27 177.591Z" fill="#E74040" stroke="#E74040" stroke-width="4.02063" stroke-miterlimit="2.613" stroke-linecap="round" stroke-linejoin="round"/>
<path d="M1123.72 291.348C1123.72 291.348 1123.72 308.155 1110.98 308.155C1098.2 308.155 1098.2 293.168 1098.2 308.155C1098.2 323.142 1089.7 306.006 1089.7 323.142C1089.7 340.258 1076.92 329.57 1076.92 329.57M1076.9 329.551L1064.12 323.122L1062.01 338.109M1062 338.129C1053.46 346.687 1064.11 346.687 1053.46 346.687C1042.83 346.687 1040.72 335.999 1040.72 335.999L1037.77 316.713M1249.34 184.949C1249.34 184.949 1256.19 190.448 1266.44 194.766C1273.1 197.593 1281.23 199.917 1289.77 199.917C1295.21 199.917 1294.01 193.508 1297.86 192.733C1309.48 190.371 1320.17 191.552 1320.17 191.552M957.712 222.494C957.712 222.494 947.354 272.063 951.323 276.032" stroke="#E74040" stroke-width="4.02063" stroke-miterlimit="2.613" stroke-linecap="round" stroke-linejoin="round"/>
<path fill-rule="evenodd" clip-rule="evenodd" d="M1146.7 1177.26C1146.7 1177.26 1085.89 1240.51 1106.12 1260.83C1126.35 1281.18 1118.53 1303.38 1111.95 1309.64C1105.37 1315.87 1081.28 1353.86 1050.61 1362.98C1032.08 1362.98 1033.59 1345.01 1008.83 1352.14C990.028 1357.52 990.144 1364.28 987.491 1370.84C983.483 1380.8 994.636 1398.53 1011.69 1393.85C1026.14 1389.88 985.71 1432.63 1026.25 1430.56C1052.04 1429.28 1063.62 1385.72 1068.83 1385.72C1074.04 1385.72 1068.83 1405.62 1081.61 1405.62C1094.39 1405.62 1095.41 1388.97 1095.41 1388.97L1096.52 1368.42L1107.79 1353.52C1107.79 1353.52 1133.17 1391.49 1133.17 1355.64C1133.17 1314.27 1147.96 1336.28 1147.96 1336.28C1147.96 1336.28 1156.4 1318.39 1164.67 1310.1C1172.92 1301.8 1158.44 1290.51 1158.44 1255.13C1158.44 1216.25 1196.29 1173.89 1196.29 1173.89L1146.7 1177.26Z" fill="white" stroke="#E74040" stroke-width="4.02063" stroke-miterlimit="2.613" stroke-linecap="round" stroke-linejoin="round"/>
<path fill-rule="evenodd" clip-rule="evenodd" d="M957.712 1046.23C957.712 1046.23 953.356 1010.97 949.213 1001.25C944.062 989.397 923.655 969.144 917.266 975.553C910.876 981.981 904.525 994.838 904.525 1007.68V1020.51C904.525 1020.51 912.018 1032.69 915.155 1046.23C917.575 1056.64 906.462 1037.82 898.136 1046.23C893.702 1050.64 889.636 1069.77 900.247 1080.48L910.876 1091.19C910.876 1091.19 893.857 1099.75 902.376 1108.3C910.876 1116.88 904.525 1129.49 913.045 1138.05C921.564 1146.6 934.304 1142.56 934.304 1142.56C934.304 1142.56 919.395 1151.13 919.395 1161.82C919.395 1172.53 922.609 1173.6 930.064 1181.09C937.518 1188.58 960.133 1182.21 960.133 1182.21C960.133 1182.21 941.797 1208.16 955.602 1222.08C969.446 1235.98 976.9 1231.8 983.289 1225.39C989.679 1218.96 999.282 1214.28 999.282 1214.28L1021.59 1202.16C1021.59 1202.16 1023.7 1208.93 1023.7 1221.77C1023.7 1234.63 1031.19 1237.36 1021.59 1247C1012.02 1256.62 1008.27 1257.61 1001.84 1264.02C995.449 1270.43 972.64 1286.06 972.64 1286.06C972.64 1286.06 974.751 1264.47 957.732 1264.47C940.674 1264.47 923.771 1266.67 923.771 1275.25C923.771 1283.83 921.622 1300.17 945.243 1300.17C950.8 1300.17 921.312 1316.75 921.312 1331.73C921.312 1346.74 940.713 1353.73 956.822 1337.56C964.353 1329.97 967.296 1312.62 975.796 1312.62C984.296 1312.62 975.564 1337.58 992.06 1337.58C1002.69 1337.58 1007.98 1315.18 1007.98 1315.18L1018.76 1275.25C1018.76 1275.25 1014.11 1288.57 1031.13 1288.57C1048.19 1288.57 1045.01 1279.61 1045.01 1279.61L1036.48 1258.21C1036.48 1258.21 1045.13 1272.91 1053.5 1264.48C1061.9 1256.04 1059.88 1241.09 1059.88 1241.09L1065.83 1198.86C1065.83 1198.86 1074.91 1214.66 1091.43 1209.67C1101.63 1206.61 1104.84 1211.97 1118.69 1198.05C1137.82 1178.77 1172.76 1183.12 1194.02 1182.27C1206.8 1181.75 1212.51 1190.09 1228.55 1201.36C1248.35 1215.28 1239.47 1221.09 1227.67 1232.92C1215.3 1245.37 1206.24 1233.76 1206.24 1233.76C1206.24 1233.76 1188.16 1228.68 1180.64 1236.25C1169.9 1247.06 1182.83 1256.78 1182.83 1256.78L1193.83 1259.53C1193.83 1259.53 1179.79 1280.3 1190.54 1291.09C1199.58 1300.19 1212.84 1291.96 1219.43 1286.11C1229.49 1277.15 1217.61 1251.88 1225.22 1259.53C1230.89 1265.24 1231.64 1279.63 1234.41 1282.45C1243.42 1282.45 1245.04 1276.99 1256.6 1257.86C1249.19 1202.23 1286.32 1231.28 1277.03 1200.43C1274.45 1191.76 1258.77 1180.28 1258.77 1180.28C1258.77 1180.28 1224.25 1161.36 1235.55 1150.03C1239.25 1146.29 1252.15 1158.61 1262.78 1158.61C1273.45 1158.61 1297.07 1158.2 1300.47 1138.34C1302.29 1127.82 1302.59 1114.79 1302.59 1114.79L1287.68 1091.25L1268.51 1078.39H1257.88L1255.73 1091.25L1249.38 1069.83L1238.71 1056.99H1221.69L1223.8 1071.96L1208.89 1056.99L1202.5 1042.01L1183.37 1037.73C1183.37 1037.73 1176.98 1042.01 1176.98 1050.56V1042.01C1176.98 1042.01 1175.67 1012.71 1189.76 1016.33C1214.49 1022.64 1229.67 1011.49 1240.86 1022.76C1248.31 1030.25 1264.23 1044.17 1274.86 1044.17C1285.57 1044.17 1302.59 1039.88 1308.97 1033.45C1315.36 1027.02 1321.75 1015.38 1321.75 1007.75C1321.75 991.488 1313.21 984.188 1313.21 984.188L1303.38 977.121L1298.34 973.5C1298.34 973.5 1301.4 989.629 1296.2 994.915C1288.66 1002.47 1289.81 994.915 1277.03 994.915C1264.25 994.915 1246.78 985.602 1232.32 979.909C1217.88 974.236 1177.89 979.909 1183.39 979.909C1188.89 979.909 1160.43 991.546 1155.71 1003.47C1150.59 1016.33 1149.32 1033.43 1149.32 1042.01C1149.32 1050.58 1157.82 1059.14 1166.37 1067.72C1174.86 1076.26 1188.68 1079.47 1196.17 1086.99C1203.59 1094.46 1219.54 1093.41 1225.97 1099.82C1232.32 1106.25 1253.62 1110.51 1253.62 1110.51C1253.62 1110.51 1264.29 1110.53 1270.68 1116.96C1277.03 1123.39 1272.79 1131.93 1272.79 1131.93C1272.79 1131.93 1281.29 1138.36 1262.12 1138.36C1242.95 1138.36 1234.47 1129.8 1223.8 1129.8C1213.13 1129.8 1200.39 1121.22 1189.76 1121.22C1179.1 1121.22 1153.54 1119.11 1142.91 1119.11H1132.28C1121.61 1119.11 1110.98 1097.67 1110.98 1097.67C1110.98 1097.67 1102.13 1098.82 1102.13 1086.99C1102.13 1075.16 1108.83 1076.26 1108.83 1076.26L1106.72 1024.87L1119.5 1031.32C1119.5 1031.32 1130.13 1042.01 1130.13 1018.46C1130.13 994.916 1126.95 1002.39 1119.5 994.915C1112.05 987.403 1108.83 967.072 1108.83 967.072C1108.83 967.072 1099.27 963.858 1091.81 971.351C1084.36 978.844 1081.18 967.072 1081.18 967.072C1081.18 967.072 1083.29 945.676 1074.75 945.676C1066.25 945.676 1055.63 943.527 1055.63 952.104C1055.63 960.682 1053.48 960.663 1053.48 969.24C1053.48 977.799 1051.37 973.52 1042.85 973.52C1034.33 973.52 1021.55 956.384 1021.55 967.091C1021.55 977.799 1019.44 990.656 1019.44 990.656C1019.44 990.656 1017.33 984.227 1008.81 992.786C1000.29 1001.34 1000.31 1001.34 1000.31 1014.18C1000.31 1027.02 1000.27 1031.32 1010.94 1031.32C1021.57 1031.32 1025.85 1020.59 1025.85 1020.59C1025.85 1020.59 1018.39 1070.99 1025.85 1078.45C1033.3 1085.96 1033.3 1085.88 1033.3 1085.88C1033.3 1099.8 1019.46 1099.8 1019.46 1099.8C1019.46 1099.8 1015.18 1099.8 1015.18 1116.94C1015.18 1134.06 1006.25 1132.12 1008.83 1149.04C1012.99 1176.48 1002.44 1164.01 983.27 1164.01C964.102 1164.01 964.102 1142.63 964.102 1142.63L955.602 1112.64L951.362 1099.8C951.362 1099.8 964.218 1096.59 968.381 1089.1C973.144 1080.54 972.66 1063.4 972.66 1063.4L966.27 1048.41L957.712 1046.23Z" fill="white" stroke="#E74040" stroke-width="4.02063" stroke-miterlimit="2.613" stroke-linecap="round" stroke-linejoin="round"/>
<path d="M1044.98 1052.66C1044.98 1052.66 1062.48 1078.99 1085.21 1051.14C1085.21 1051.14 1088.54 1094.83 1076.56 1101.22C1067.44 1106.06 1057.27 1104.35 1050.96 1098C1044.9 1091.9 1044.98 1052.66 1044.98 1052.66Z" stroke="#E74040" stroke-width="4.02063" stroke-miterlimit="2.613" stroke-linecap="round" stroke-linejoin="round"/>
<path fill-rule="evenodd" clip-rule="evenodd" d="M1032.2 1001.27C1036.05 1002.41 1055.61 1007.25 1055.61 1016.27C1055.61 1025.28 1053.46 1031.26 1053.46 1031.26L1044.98 1016.27C1044.98 1016.27 1028.31 1000.14 1032.2 1001.27ZM1097.27 1001.31C1093.38 1002.47 1073.86 1007.27 1073.86 1016.29C1073.86 1025.3 1076.01 1031.28 1076.01 1031.28L1084.51 1016.29C1084.51 1016.29 1101.14 1000.16 1097.27 1001.31Z" fill="#E74040" stroke="#E74040" stroke-width="4.02063" stroke-miterlimit="2.613" stroke-linecap="round" stroke-linejoin="round"/>
<path d="M1123.72 1115.06C1123.72 1115.06 1123.72 1131.87 1110.98 1131.87C1098.2 1131.87 1098.2 1116.9 1098.2 1131.87C1098.2 1146.86 1089.7 1129.74 1089.7 1146.86C1089.7 1163.97 1076.92 1153.3 1076.92 1153.3L1064.12 1146.86L1062.01 1161.84C1052.6 1161.84 1064.11 1170.38 1053.46 1170.38C1042.83 1170.38 1040.72 1159.69 1040.72 1159.69L1037.77 1140.43M1249.34 1008.68C1249.34 1008.68 1256.19 1014.16 1266.44 1018.5C1273.1 1021.33 1281.23 1023.67 1289.77 1023.67C1295.21 1023.67 1294.01 1017.24 1297.86 1016.47C1309.48 1014.12 1320.17 1015.29 1320.17 1015.29M957.712 1046.23C957.712 1046.23 947.354 1095.8 951.323 1099.75" stroke="#E74040" stroke-width="4.02063" stroke-miterlimit="2.613" stroke-linecap="round" stroke-linejoin="round"/>
<path fill-rule="evenodd" clip-rule="evenodd" d="M382.917 385.354C382.917 385.354 377.69 426.984 397.923 447.315C418.137 467.666 414.942 473.01 414.942 481.588C414.942 490.165 408.552 503.003 408.552 503.003C408.552 503.003 391.534 522.269 380.885 522.269C370.236 522.269 365.976 526.548 359.586 520.12C352.442 504.126 321.269 511.561 321.269 511.561C321.269 511.561 311.143 510.167 308.491 516.731C304.502 526.664 297.861 537.256 323.399 537.256C348.957 537.256 341.503 529.743 348.957 537.256C356.392 544.749 325.781 543.432 319.14 550.093C310.117 559.174 314.88 573.638 327.659 573.638C340.418 573.638 370.235 547.944 370.235 547.944C370.235 569.359 370.235 569.359 383.014 569.359C395.793 569.359 400.033 552.223 400.033 552.223L402.163 535.087L414.942 515.821C414.942 515.821 431.98 541.535 442.629 513.691C453.259 485.847 438.37 475.14 438.37 475.14C438.37 475.14 457.79 481.297 466.057 473.01C474.305 464.703 474.538 440.887 474.538 440.887L444.759 361.674L382.917 385.354Z" fill="white" stroke="#E74040" stroke-width="4.02063" stroke-miterlimit="2.613" stroke-linecap="round" stroke-linejoin="round"/>
<path fill-rule="evenodd" clip-rule="evenodd" d="M189.301 222.494C189.301 222.494 184.984 187.253 180.782 177.533C175.671 165.683 155.244 145.41 148.874 151.839C142.484 158.267 136.095 171.105 136.095 183.942V196.799C136.095 196.799 136.095 222.474 146.725 222.474C157.374 222.474 129.706 207.488 129.706 222.474C129.706 237.461 121.187 246.039 131.836 256.747L142.484 267.454C142.484 267.454 125.446 276.013 133.965 284.59C142.485 293.168 136.095 305.754 144.614 314.332C153.114 322.89 165.893 318.843 165.893 318.843C165.893 318.843 151.004 327.402 151.004 338.109C151.004 348.817 154.198 349.882 161.633 357.375C169.088 364.849 195.691 374.492 195.691 374.492C195.691 374.492 173.347 390.563 187.191 404.466C201.035 418.387 208.489 417.322 214.878 410.894C221.268 404.466 238.287 398.037 238.287 398.037L253.195 389.479C253.195 389.479 255.325 385.2 255.325 398.037C255.325 410.894 262.76 418.368 253.195 428.011C243.611 437.653 248.936 442.998 242.546 449.426C236.176 455.855 225.527 470.822 225.527 470.822L204.229 490.088C204.229 490.088 206.34 470.822 189.321 470.822C172.282 470.822 159.523 472.952 159.523 481.53C159.523 490.107 151.623 488.907 157.393 500.796C163.163 512.684 185.061 507.65 185.061 511.503C185.061 515.356 168.042 526.49 168.042 526.49C168.042 526.49 148.893 545.756 148.893 560.743C148.893 575.73 158.458 587.502 168.042 577.86C177.626 568.236 176.542 556.464 176.542 556.464H187.191C187.191 556.464 204.229 545.756 204.229 535.048C204.229 524.341 204.229 537.198 212.729 545.756C221.248 554.314 212.729 554.314 221.248 554.314C229.748 554.314 240.417 539.308 240.417 528.62C240.417 517.912 246.787 498.646 246.787 498.646V477.231C246.787 477.231 240.416 507.205 257.436 507.205C274.455 507.205 276.584 492.218 276.584 492.218V455.835L268.065 434.42L285.084 460.114L293.584 440.848L291.919 422.318L291.454 417.303L302.084 387.31C302.084 387.31 299.973 406.595 310.622 406.595C321.252 406.595 318.057 411.959 331.901 398.037C351.05 378.771 349.52 385.722 359.027 385.722C370.315 385.722 408.535 384.657 408.535 384.657C408.535 384.657 425.554 385.2 425.554 372.343C425.554 359.505 428.768 390.544 442.593 404.466C456.417 418.387 464.936 431.225 474.501 440.868C484.104 450.51 497.948 457.984 497.948 457.984C497.948 457.984 500.059 462.283 500.059 472.991C500.059 483.679 503.253 486.893 495.799 494.406C488.345 501.899 485.15 511.523 485.15 511.523C485.15 511.523 476.631 513.672 466.001 513.672C455.352 513.672 446.833 524.36 446.833 524.36L440.463 539.347C440.463 539.347 431.944 552.204 444.722 552.204C457.482 552.204 463.871 541.496 463.871 541.496C463.871 541.496 457.482 537.217 457.482 552.204C457.482 567.191 453.784 571.76 463.871 571.76C474.482 571.76 477.947 577.86 483.039 573.6C490.029 567.772 497.948 552.204 497.948 552.204L504.318 535.068C504.318 535.068 506.448 537.217 506.448 552.204C502.847 567.191 518.336 563.802 514.948 567.191C511.559 570.56 529.856 567.191 529.856 567.191L527.727 547.905L538.376 537.198C538.376 537.198 535.084 527.845 527.533 520.255C520.001 512.684 516.129 503.913 521.357 498.666C526.584 493.418 531.347 489.43 534.116 492.237C543.1 492.237 549.741 471.538 536.246 457.965L529.856 451.556L536.246 427.991L542.635 417.284C542.635 417.284 550.961 399.431 542.635 395.888C535.413 392.809 536.246 389.459 536.246 389.459L531.986 406.576L524.706 416.393L514.948 400.167C514.948 400.167 514.948 383.05 508.558 376.622C502.169 370.193 493.669 353.077 493.669 353.077C493.669 353.077 487.28 338.09 476.65 338.09C466.021 338.09 491.559 342.35 502.188 342.35C512.837 342.35 532.005 335.941 532.005 325.233C532.005 314.525 534.116 290.98 534.116 290.98L519.207 267.435L500.059 254.597H489.41L487.28 267.435L480.89 246.039L470.261 233.182H453.222L455.352 248.169L440.443 233.182L434.054 218.215L414.886 213.935C414.886 213.935 408.496 218.215 408.496 226.792V218.234C408.496 218.234 407.18 188.938 421.275 192.539C446 198.871 461.18 187.699 472.371 198.968C479.806 206.461 495.78 220.364 506.429 220.364C517.078 220.364 534.097 216.085 540.486 209.656C546.875 203.228 553.265 191.61 553.265 183.962C553.265 167.697 544.765 160.417 544.765 160.417L534.91 153.33L529.876 149.709C529.876 149.709 532.974 165.857 527.746 171.124C520.234 178.695 521.356 171.124 508.578 171.124C495.818 171.124 478.335 161.83 463.871 156.137C449.408 150.445 409.426 156.137 414.905 156.137C420.385 156.137 391.981 167.755 387.257 179.682C382.126 192.539 380.867 209.656 380.867 218.234C380.867 226.812 389.367 235.37 397.886 243.928C406.405 252.487 420.249 255.682 427.684 263.194C435.138 270.688 451.112 269.623 457.482 276.032C463.871 282.46 485.169 286.74 485.169 286.74C485.169 286.74 495.818 286.74 502.188 293.168C508.578 299.577 504.318 308.155 504.318 308.155C504.318 308.155 512.837 314.583 493.688 314.583C474.501 314.583 466.02 306.025 455.371 306.025C444.722 306.025 431.963 297.467 421.314 297.467C410.665 297.467 385.127 295.337 374.478 295.337H363.829C353.18 295.337 342.531 273.941 342.531 273.941L329.752 263.233L340.401 252.525L338.271 201.117L351.05 207.565C351.05 207.565 361.699 218.273 361.699 194.708C361.699 171.163 358.504 178.656 351.05 171.163C343.596 163.669 340.401 143.319 340.401 143.319C340.401 143.319 330.836 140.105 323.363 147.598C315.928 155.092 312.733 143.319 312.733 143.319C312.733 143.319 314.843 121.904 306.344 121.904C297.824 121.904 287.175 119.755 287.175 128.332C287.175 136.891 285.046 136.891 285.046 145.449C285.046 154.007 282.916 149.728 274.397 149.728C265.877 149.728 253.118 132.592 253.118 143.3C253.118 154.007 250.988 166.845 250.988 166.845C250.988 166.845 248.858 160.436 240.358 168.994C231.839 177.553 231.839 177.553 231.839 190.39C231.839 203.266 231.839 207.546 242.469 207.546C253.118 207.546 257.397 196.838 257.397 196.838C257.397 196.838 249.943 247.162 257.397 254.636C264.832 262.129 264.832 248.208 264.832 262.129C264.832 276.051 251.008 276.051 251.008 276.051C251.008 276.051 246.748 276.051 246.748 293.187C246.748 310.304 240.378 308.174 240.378 325.291C240.378 342.408 239.294 330.654 251.008 342.408C262.702 354.2 259.894 351.063 252.072 354.2C239.216 359.331 233.969 348.856 214.82 348.856C195.652 348.856 195.652 318.882 195.652 318.882L187.152 288.908L182.893 276.051C182.893 276.051 195.768 272.818 199.931 265.344C204.675 256.785 204.191 239.649 204.191 239.649L197.801 224.662L189.301 222.494Z" fill="white" stroke="#E74040" stroke-width="4.02063" stroke-miterlimit="2.613" stroke-linecap="round" stroke-linejoin="round"/>
<path d="M276.584 228.942C276.584 228.942 294.087 255.256 316.837 227.431C316.837 227.431 320.129 271.094 308.182 277.484C299.063 282.325 288.879 280.621 282.547 274.251C276.526 268.209 276.584 228.942 276.584 228.942Z" stroke="#E74040" stroke-width="4.02063" stroke-miterlimit="2.613" stroke-linecap="round" stroke-linejoin="round"/>
<path fill-rule="evenodd" clip-rule="evenodd" d="M263.804 177.553C267.695 178.714 287.212 183.536 287.212 192.539C287.212 201.543 285.082 207.526 285.082 207.526L276.583 192.539C276.583 192.539 259.931 176.41 263.804 177.553ZM328.898 177.591C325.026 178.734 305.47 183.574 305.47 192.559C305.47 201.543 307.6 207.546 307.6 207.546L316.1 192.559C316.119 192.578 332.79 176.449 328.898 177.591Z" fill="#E74040" stroke="#E74040" stroke-width="4.02063" stroke-miterlimit="2.613" stroke-linecap="round" stroke-linejoin="round"/>
<path d="M355.347 291.348C355.347 291.348 355.347 308.155 342.587 308.155C329.809 308.155 329.809 293.168 329.809 308.155C329.809 323.142 321.309 306.006 321.309 323.142C321.309 340.258 308.53 329.57 308.53 329.57M308.511 329.551L295.751 323.122L293.621 338.109M293.602 338.129C285.102 346.687 295.732 346.687 285.102 346.687C274.472 346.687 272.343 335.999 272.343 335.999L269.38 316.713M480.928 184.949C480.928 184.949 487.782 190.448 498.024 194.766C504.704 197.593 512.797 199.917 521.394 199.917C526.834 199.917 525.595 193.508 529.468 192.733C541.065 190.371 551.792 191.552 551.792 191.552M189.3 222.494C189.3 222.494 178.98 272.063 182.91 276.032" stroke="#E74040" stroke-width="4.02063" stroke-miterlimit="2.613" stroke-linecap="round" stroke-linejoin="round"/>
<path d="M1377.05 1023.53V89.7615H82.0947V1001.87C82.0947 1283.52 341.659 1417.32 403.985 1454.43C438.526 1475 739.06 1639.79 739.06 1639.79C739.06 1639.79 839.51 1573.05 1045.42 1461.64C1392.44 1273.88 1377.05 1023.53 1377.05 1023.53Z" stroke="#E74040" stroke-width="20.155" stroke-miterlimit="2.613"/>
<path fill-rule="evenodd" clip-rule="evenodd" d="M401.855 1179.09C401.855 1179.09 394.73 1221.11 409.851 1236.31C424.953 1251.53 427.625 1260.46 427.625 1265.8C427.625 1271.18 424.063 1280.13 419.629 1284.58C415.195 1289.04 416.957 1292.64 403.636 1297.09C390.296 1301.56 386.733 1300.69 386.733 1309.62C386.733 1318.57 376.975 1316.78 364.525 1316.78C352.056 1316.78 336.063 1313.2 336.063 1323.06C336.063 1332.87 333.391 1343.6 343.188 1343.6C348.087 1343.6 354.186 1342.59 359.472 1341.18C364.738 1339.79 368.552 1330.36 370.74 1330.32C380.944 1330.18 380.944 1330.18 374.4 1336.77C367.855 1343.35 345.86 1348.93 345.86 1354.31C345.86 1359.69 345.86 1367.73 354.747 1367.73C363.634 1367.73 378.756 1365.93 384.971 1359.67C391.206 1353.42 397.421 1340 397.421 1340C397.421 1340 389.87 1355.64 395.64 1361.43C401.409 1367.26 413.414 1370.38 413.414 1363.24C413.414 1356.09 412.523 1340.91 412.523 1336.42C412.523 1331.93 428.535 1335.53 431.188 1332.84C433.879 1330.14 440.966 1307.82 436.532 1303.35C432.098 1298.87 450.317 1305.55 456.087 1299.74C461.876 1293.92 459.65 1281.87 455.197 1277.42C450.763 1272.95 470.318 1279.2 470.318 1272.95C470.318 1266.67 468.711 1246.11 468.711 1246.11L449.853 1191.58L401.855 1179.09Z" fill="white" stroke="#E74040" stroke-width="4.02063" stroke-miterlimit="2.613" stroke-linecap="round" stroke-linejoin="round"/>
<path fill-rule="evenodd" clip-rule="evenodd" d="M194.199 1046.23C194.199 1046.23 189.882 1010.97 185.68 1001.25C180.569 989.397 160.142 969.144 153.753 975.553C147.363 981.981 140.974 994.838 140.974 1007.68V1020.51C140.974 1020.51 148.486 1032.69 151.623 1046.23C154.043 1056.64 142.949 1037.82 134.584 1046.23C130.189 1050.64 126.085 1069.77 136.714 1080.48L147.344 1091.19C147.344 1091.19 130.325 1099.75 138.844 1108.3C147.344 1116.88 140.974 1129.49 149.493 1138.05C158.012 1146.6 170.791 1142.56 170.791 1142.56C170.791 1142.56 155.882 1151.13 155.882 1161.82C155.882 1172.53 159.077 1173.6 166.512 1181.09C173.966 1188.58 196.581 1182.21 196.581 1182.21C196.581 1182.21 178.226 1208.16 192.07 1222.08C205.894 1235.98 213.368 1231.8 219.738 1225.39C226.127 1218.96 235.711 1214.28 235.711 1214.28L258.055 1202.16C258.055 1202.16 306.73 1196.06 306.73 1226.48C306.73 1235.56 272.479 1256.55 263.379 1256.55C254.299 1256.55 234.511 1244.5 226.05 1245.68C200.066 1249.25 216.969 1271.16 237.88 1271.16C243.475 1271.16 223.862 1278.89 229.283 1289.91C239.952 1311.69 255.557 1294.88 267.6 1282.78C283.167 1267.14 273.06 1313.34 281.657 1314.79C290.254 1316.24 300.496 1321.45 304.949 1309.6C302.703 1287.04 291.996 1257.65 310.293 1267.23C329.713 1277.42 343.169 1265.39 337.69 1223.03C336.412 1213.19 361.854 1231.63 361.854 1215.71C361.854 1187.96 350.043 1188.64 403.017 1188.64C415.776 1188.64 439.185 1187.09 445.4 1212.15C451.266 1235.71 459.127 1232.36 468.711 1246.09C477.424 1258.54 492.526 1263.98 497.851 1294.36C503.175 1324.76 487.183 1324.78 487.183 1340.83C487.183 1360.85 491.597 1359.92 491.597 1359.92C491.597 1359.92 490.3 1387.81 479.186 1376.61C467.104 1364.47 448.962 1379.38 448.962 1402.56C448.962 1412.73 455.72 1425.06 462.303 1419.21C465.362 1416.46 470.764 1424.36 479.728 1406.84C487.628 1391.43 467.608 1466.94 498.722 1427.6C505.46 1419.08 495.411 1415.11 502.866 1392.18C508.655 1374.33 522.44 1401.84 525.422 1386.39C531.657 1354.19 512.74 1338.61 513.824 1339.71C532.935 1358.94 532.702 1326.56 532.702 1320.29C532.702 1303.83 508.945 1302.77 516.942 1289.46C511.772 1250.64 544.048 1320.77 536.942 1259.22C533.593 1230.17 489.835 1240.75 493.398 1211.22C496.496 1185.48 460.715 1165.35 471.983 1154.02C475.682 1150.28 488.596 1154.89 499.245 1154.89C509.894 1154.89 533.515 1158.09 536.904 1138.22C538.724 1127.71 539.034 1114.67 539.034 1114.67L524.125 1091.13L504.957 1078.27H494.327L492.197 1091.13L485.808 1069.71L475.159 1056.88H458.12L460.25 1071.84L445.361 1056.88L438.972 1041.89L419.803 1037.61C419.803 1037.61 413.414 1041.89 413.414 1050.45V1041.89C413.414 1041.89 412.078 1012.59 426.193 1016.21C450.937 1022.53 466.098 1011.37 477.289 1022.64C484.743 1030.14 500.697 1044.06 511.346 1044.06C521.995 1044.06 539.014 1039.76 545.403 1033.33C551.793 1026.9 558.163 1015.27 558.163 1007.64C558.163 991.372 549.663 984.072 549.663 984.072L539.808 977.005L534.774 973.384C534.774 973.384 537.872 989.513 532.644 994.799C525.112 1002.35 526.255 994.799 513.495 994.799C500.736 994.799 483.252 985.486 468.789 979.793C454.345 974.12 414.363 979.793 419.842 979.793C425.321 979.793 396.918 991.43 392.174 1003.36C387.062 1016.21 385.785 1033.31 385.785 1041.89C385.785 1050.47 394.285 1059.03 402.823 1067.6C411.323 1076.14 425.167 1079.36 432.621 1086.87C440.075 1094.34 456.029 1093.3 462.419 1099.71C468.808 1106.14 490.087 1110.4 490.087 1110.4C490.087 1110.4 500.736 1110.41 507.106 1116.84C513.495 1123.27 509.236 1131.81 509.236 1131.81C509.236 1131.81 517.735 1138.24 498.587 1138.24C479.438 1138.24 470.919 1129.68 460.27 1129.68C449.621 1129.68 436.861 1121.1 426.212 1121.1C415.563 1121.1 390.025 1118.99 379.376 1118.99H368.746C358.097 1118.99 347.448 1097.56 347.448 1097.56C347.448 1097.56 338.619 1098.7 338.619 1086.87C338.619 1075.04 345.338 1076.14 345.338 1076.14L343.208 1024.75L355.987 1031.2C355.987 1031.2 366.636 1041.89 366.636 1018.34C366.636 994.799 363.441 1002.27 355.987 994.799C348.533 987.287 345.338 966.956 345.338 966.956C345.338 966.956 335.754 963.741 328.319 971.235C320.865 978.728 317.67 966.956 317.67 966.956C317.67 966.956 319.8 945.56 311.28 945.56C302.761 945.56 292.112 943.41 292.112 951.988C292.112 960.566 289.982 960.546 289.982 969.124C289.982 977.683 287.853 973.403 279.333 973.403C270.814 973.403 258.035 956.267 258.035 966.975C258.035 977.683 255.906 990.54 255.906 990.54C255.906 990.54 253.795 984.111 245.276 992.669C236.757 1001.23 236.757 1001.23 236.757 1014.07C236.757 1026.9 236.757 1031.2 247.406 1031.2C258.035 1031.2 262.314 1020.47 262.314 1020.47C262.314 1020.47 254.86 1070.88 262.314 1078.33C269.749 1085.84 269.749 1085.77 269.749 1085.77C269.749 1099.69 255.906 1099.69 255.906 1099.69C255.906 1099.69 251.646 1099.69 251.646 1116.82C251.646 1133.94 242.701 1132 245.257 1148.93C249.419 1176.36 238.867 1163.89 219.718 1163.89C200.55 1163.89 200.55 1142.52 200.55 1142.52L192.05 1112.53L187.791 1099.69C187.791 1099.69 200.666 1096.47 204.829 1088.98C209.573 1080.42 209.089 1063.29 209.089 1063.29L202.699 1048.3L194.199 1046.23Z" fill="white" stroke="#E74040" stroke-width="4.02063" stroke-miterlimit="2.613" stroke-linecap="round" stroke-linejoin="round"/>
<path d="M281.462 1052.66C281.462 1052.66 298.984 1078.99 321.735 1051.14C321.735 1051.14 325.045 1094.83 313.08 1101.22C303.96 1106.06 293.776 1104.35 287.445 1098C281.423 1091.9 281.462 1052.66 281.462 1052.66Z" stroke="#E74040" stroke-width="4.02063" stroke-miterlimit="2.613" stroke-linecap="round" stroke-linejoin="round"/>
<path fill-rule="evenodd" clip-rule="evenodd" d="M268.704 1001.27C272.576 1002.41 292.112 1007.25 292.112 1016.27C292.112 1025.28 289.982 1031.26 289.982 1031.26L281.463 1016.27C281.463 1016.27 264.812 1000.14 268.704 1001.27ZM333.798 1001.31C329.926 1002.47 310.39 1007.27 310.39 1016.29C310.39 1025.3 312.52 1031.28 312.52 1031.28L321.039 1016.29C321.039 1016.29 337.69 1000.16 333.798 1001.31Z" fill="#E74040" stroke="#E74040" stroke-width="4.02063" stroke-miterlimit="2.613" stroke-linecap="round" stroke-linejoin="round"/>
<path d="M194.199 1046.23C194.199 1046.23 183.86 1095.8 187.81 1099.75M485.827 1008.68C485.827 1008.68 492.681 1014.16 502.923 1018.5C509.583 1021.33 517.696 1023.67 526.293 1023.67C531.733 1023.67 530.494 1017.24 534.367 1016.47C545.984 1014.12 556.71 1015.29 556.71 1015.29M360.246 1115.06C360.246 1115.06 360.246 1131.87 347.467 1131.87C334.708 1131.87 334.708 1116.9 334.708 1131.87C334.708 1146.86 326.188 1129.74 326.188 1146.86C326.188 1163.97 313.429 1153.3 313.429 1153.3L300.631 1146.86L298.501 1161.84C289.091 1161.84 300.631 1170.38 290.001 1170.38C279.372 1170.38 277.222 1159.69 277.222 1159.69L274.26 1140.43" stroke="#E74040" stroke-width="4.02063" stroke-miterlimit="2.613" stroke-linecap="round" stroke-linejoin="round"/>
<path fill-rule="evenodd" clip-rule="evenodd" d="M995.74 730.787C995.74 730.787 974.365 719.673 974.365 696.128C974.365 661.565 978.179 660.713 979.244 661.178L976.824 659.648C979.571 657.384 981.554 654.329 982.502 650.897C983.45 647.466 983.317 643.825 982.121 640.472C980.925 637.119 978.724 634.216 975.819 632.159C972.913 630.102 969.444 628.991 965.884 628.977C963.681 627.32 961.115 626.212 958.398 625.744C955.681 625.277 952.891 625.463 950.261 626.289C947.63 627.114 945.235 628.555 943.272 630.491C941.309 632.428 939.837 634.804 938.975 637.423C938.114 640.042 937.89 642.829 938.321 645.552C938.751 648.275 939.825 650.857 941.452 653.082C943.079 655.308 945.214 657.114 947.678 658.35C950.142 659.586 952.866 660.217 955.622 660.19V696.128C955.622 696.128 954.829 719.983 935.351 731.426V749.085H950.279C950.279 749.085 955.526 773.734 965.942 773.734C976.359 773.734 984.104 749.085 984.104 749.085H997.076L995.74 730.787Z" fill="#E74040"/>
<path fill-rule="evenodd" clip-rule="evenodd" d="M979.263 661.197L979.572 661.391C979.572 661.391 979.456 661.275 979.263 661.197ZM1154.6 730.787C1154.6 730.787 1133.23 719.673 1133.23 696.128C1133.23 661.565 1137.04 660.713 1138.15 661.178L1135.73 659.648C1138.47 657.384 1140.46 654.329 1141.4 650.897C1142.35 647.466 1142.22 643.825 1141.02 640.472C1139.83 637.119 1137.63 634.216 1134.72 632.159C1131.81 630.102 1128.35 628.991 1124.79 628.977C1121.15 628.984 1117.6 630.139 1114.66 632.277C1111.71 634.415 1109.52 637.428 1108.39 640.886C1107.25 644.345 1107.24 648.072 1108.35 651.538C1109.46 655.004 1111.63 658.032 1114.56 660.19L1114.49 660.229V696.128C1114.49 696.128 1113.73 719.983 1094.25 731.426V749.085H1109.18C1109.18 749.085 1114.47 773.734 1124.84 773.734C1135.24 773.734 1142.97 749.085 1142.97 749.085H1155.98L1154.6 730.787Z" fill="#E74040"/>
<path fill-rule="evenodd" clip-rule="evenodd" d="M1138.16 661.197L1138.47 661.391C1138.45 661.391 1138.36 661.275 1138.16 661.197ZM1313.5 730.787C1313.5 730.787 1292.13 719.673 1292.13 696.128C1292.13 661.565 1295.98 660.713 1297.05 661.178L1294.63 659.648C1297.37 657.384 1299.36 654.329 1300.31 650.897C1301.25 647.466 1301.12 643.825 1299.92 640.472C1298.73 637.119 1296.53 634.216 1293.62 632.159C1290.72 630.102 1287.25 628.991 1283.69 628.977C1280.06 629 1276.53 630.163 1273.59 632.301C1270.66 634.439 1268.47 637.445 1267.33 640.894C1266.2 644.343 1266.18 648.061 1267.27 651.524C1268.36 654.986 1270.52 658.017 1273.43 660.19L1273.39 660.229V696.128C1273.39 696.128 1272.63 719.983 1253.15 731.426V749.085H1268.08C1268.08 749.085 1273.33 773.734 1283.75 773.734C1294.16 773.734 1301.91 749.085 1301.91 749.085H1314.88L1313.5 730.787Z" fill="#E74040"/>
<path fill-rule="evenodd" clip-rule="evenodd" d="M1297.07 661.197L1297.38 661.391C1297.38 661.391 1297.26 661.275 1297.07 661.197ZM193.27 730.787C193.27 730.787 171.895 719.673 171.895 696.128C171.895 661.565 175.729 660.713 176.793 661.178L174.354 659.648C177.121 657.397 179.124 654.345 180.086 650.91C181.049 647.475 180.924 643.826 179.729 640.465C178.535 637.103 176.329 634.195 173.414 632.138C170.5 630.081 167.02 628.977 163.453 628.977C159.811 628.976 156.261 630.125 153.31 632.26C150.359 634.395 148.158 637.408 147.021 640.868C145.883 644.328 145.867 648.059 146.975 651.529C148.083 654.999 150.259 658.03 153.191 660.19L153.153 660.229V696.128C153.153 696.128 152.398 719.983 132.881 731.426L132.9 749.085H147.848C147.848 749.085 153.114 773.734 163.511 773.734C173.928 773.734 181.653 749.085 181.653 749.085H194.645L193.27 730.787Z" fill="#E74040"/>
<path fill-rule="evenodd" clip-rule="evenodd" d="M176.773 661.197L177.083 661.391C177.083 661.391 176.967 661.275 176.773 661.197ZM352.153 730.787C352.153 730.787 330.777 719.673 330.777 696.128C330.777 661.565 334.592 660.713 335.676 661.178L333.236 659.648C335.992 657.392 337.985 654.339 338.94 650.908C339.896 647.477 339.769 643.834 338.576 640.477C337.383 637.121 335.183 634.215 332.276 632.157C329.369 630.098 325.897 628.988 322.336 628.977C320.066 628.985 317.82 629.44 315.726 630.316C313.633 631.192 311.732 632.473 310.134 634.084C308.535 635.695 307.27 637.606 306.41 639.707C305.55 641.807 305.113 644.057 305.123 646.327C305.123 652.019 307.892 657.034 312.113 660.19L312.055 660.229V696.128C312.055 696.128 311.28 719.983 291.802 731.426V749.085H306.73C306.73 749.085 312.016 773.734 322.432 773.734C332.83 773.734 340.555 749.085 340.555 749.085H353.547L352.153 730.787Z" fill="#E74040"/>
<path fill-rule="evenodd" clip-rule="evenodd" d="M335.675 661.197L335.985 661.391C335.985 661.391 335.868 661.275 335.675 661.197ZM511.074 730.787C511.074 730.787 489.679 719.673 489.679 696.128C489.679 661.565 493.512 660.713 494.597 661.178L492.157 659.648C494.914 657.391 496.907 654.337 497.862 650.903C498.817 647.47 498.689 643.826 497.493 640.468C496.298 637.111 494.095 634.205 491.185 632.149C488.275 630.092 484.8 628.984 481.237 628.977C477.592 628.972 474.039 630.119 471.086 632.256C468.132 634.392 465.931 637.409 464.796 640.873C463.662 644.337 463.652 648.071 464.769 651.541C465.886 655.011 468.072 658.039 471.014 660.19L470.975 660.229V696.128C470.975 696.128 470.201 719.983 450.703 731.426V749.085H465.651C465.651 749.085 470.937 773.734 481.334 773.734C491.731 773.734 499.456 749.085 499.456 749.085H512.448L511.074 730.787Z" fill="#E74040"/>
<path fill-rule="evenodd" clip-rule="evenodd" d="M494.598 661.197L494.888 661.391C494.888 661.391 494.772 661.275 494.598 661.197ZM432.291 852.754C432.291 852.754 410.916 841.639 410.916 818.113C410.916 783.531 414.73 782.699 415.814 783.164L413.375 781.634C416.142 779.383 418.145 776.33 419.107 772.895C420.07 769.46 419.945 765.812 418.75 762.45C417.556 759.089 415.35 756.18 412.435 754.123C409.521 752.067 406.041 750.963 402.474 750.963C398.83 750.964 395.279 752.117 392.329 754.256C389.379 756.395 387.18 759.412 386.047 762.875C384.913 766.338 384.903 770.071 386.017 773.541C387.131 777.011 389.313 780.04 392.251 782.195L392.193 782.215V818.113C392.193 818.113 391.418 841.968 371.94 853.412V871.051H386.888C386.888 871.051 392.154 895.7 402.571 895.7C412.949 895.7 420.694 871.051 420.694 871.051H433.685L432.291 852.754Z" fill="#E74040"/>
<path fill-rule="evenodd" clip-rule="evenodd" d="M415.813 783.164L416.104 783.357C416.104 783.357 416.007 783.222 415.813 783.164ZM268.412 852.754C268.412 852.754 247.037 841.64 247.037 818.114C247.037 783.532 250.831 782.699 251.935 783.164L249.476 781.634C252.221 779.373 254.203 776.32 255.152 772.892C256.101 769.465 255.971 765.828 254.78 762.476C253.589 759.125 251.394 756.222 248.495 754.162C245.595 752.102 242.132 750.985 238.575 750.963C234.93 750.96 231.376 752.11 228.423 754.247C225.47 756.385 223.268 759.402 222.132 762.866C220.996 766.33 220.984 770.065 222.097 773.537C223.211 777.008 225.394 780.039 228.333 782.196L228.275 782.215V818.114C228.275 818.114 227.5 841.969 208.022 853.412V871.052H222.95C222.95 871.052 228.236 895.7 238.634 895.7C249.031 895.7 256.756 871.052 256.756 871.052H269.767L268.412 852.754Z" fill="#E74040"/>
<path fill-rule="evenodd" clip-rule="evenodd" d="M251.955 783.164L252.245 783.357C252.245 783.357 252.129 783.222 251.955 783.164ZM1237.2 852.754C1237.2 852.754 1215.81 841.64 1215.81 818.114C1215.81 783.532 1219.62 782.699 1220.72 783.164L1218.26 781.634C1221.02 779.378 1223.01 776.325 1223.97 772.894C1224.92 769.463 1224.8 765.82 1223.6 762.464C1222.41 759.107 1220.21 756.201 1217.3 754.143C1214.4 752.084 1210.93 750.974 1207.36 750.963C1202.78 750.984 1198.39 752.823 1195.17 756.076C1191.94 759.329 1190.14 763.73 1190.15 768.312C1190.16 771.006 1190.79 773.662 1192 776.071C1193.2 778.48 1194.95 780.576 1197.1 782.196L1197.06 782.215V818.114C1197.06 818.114 1196.31 841.969 1176.83 853.412V871.052H1191.76C1191.76 871.052 1197.04 895.7 1207.42 895.7C1217.82 895.7 1225.54 871.052 1225.54 871.052H1238.56L1237.2 852.754Z" fill="#E74040"/>
<path fill-rule="evenodd" clip-rule="evenodd" d="M1220.7 783.164L1221.01 783.357C1221.01 783.357 1220.9 783.222 1220.7 783.164ZM1073.3 852.754C1073.3 852.754 1051.93 841.64 1051.93 818.114C1051.93 783.532 1055.74 782.699 1056.85 783.164L1054.39 781.634C1057.14 779.378 1059.13 776.325 1060.09 772.894C1061.05 769.463 1060.92 765.82 1059.73 762.464C1058.53 759.107 1056.33 756.201 1053.43 754.143C1050.52 752.084 1047.05 750.974 1043.49 750.963C1039.84 750.956 1036.28 752.103 1033.33 754.239C1030.37 756.375 1028.16 759.392 1027.03 762.857C1025.89 766.322 1025.87 770.059 1026.99 773.532C1028.1 777.006 1030.28 780.038 1033.22 782.196L1033.19 782.215V818.114C1033.19 818.114 1032.39 841.969 1012.95 853.412V871.052H1027.86C1027.86 871.052 1033.15 895.701 1043.56 895.701C1053.98 895.701 1061.69 871.052 1061.69 871.052H1074.7L1073.3 852.754Z" fill="#E74040"/>
<path fill-rule="evenodd" clip-rule="evenodd" d="M1056.86 783.164L1057.17 783.357C1057.15 783.357 1057 783.222 1056.86 783.164ZM682.929 520.7C682.929 520.7 661.553 509.567 661.553 486.06C661.553 451.478 665.368 450.626 666.452 451.091L663.993 449.561C666.749 447.305 668.741 444.253 669.697 440.821C670.653 437.39 670.525 433.747 669.332 430.391C668.14 427.035 665.939 424.129 663.033 422.07C660.126 420.012 656.654 418.901 653.092 418.891C650.887 417.238 648.32 416.135 645.604 415.672C642.888 415.209 640.101 415.4 637.473 416.228C634.845 417.057 632.453 418.499 630.493 420.437C628.534 422.374 627.064 424.75 626.205 427.368C625.347 429.986 625.124 432.771 625.556 435.493C625.987 438.214 627.061 440.794 628.688 443.018C630.314 445.242 632.448 447.046 634.91 448.282C637.373 449.517 640.095 450.148 642.85 450.123L642.831 450.142V486.041C642.831 486.041 642.056 509.877 622.559 521.339V538.979H637.506C637.506 538.979 642.772 563.647 653.189 563.647C663.567 563.647 671.312 538.979 671.312 538.979H684.303L682.929 520.7Z" fill="#E74040"/>
<path fill-rule="evenodd" clip-rule="evenodd" d="M666.452 451.111L666.743 451.304C666.743 451.304 666.626 451.188 666.452 451.111ZM817.862 520.701C817.862 520.701 796.486 509.567 796.486 486.06C796.486 451.478 800.3 450.627 801.385 451.091L798.945 449.562C801.731 447.28 803.734 444.184 804.674 440.708C805.614 437.232 805.444 433.549 804.188 430.174C802.931 426.799 800.651 423.901 797.667 421.886C794.683 419.871 791.144 418.838 787.544 418.934C783.944 419.029 780.464 420.248 777.591 422.419C774.718 424.589 772.595 427.604 771.52 431.041C770.444 434.477 770.469 438.164 771.592 441.586C772.715 445.007 774.88 447.992 777.783 450.123L777.744 450.142V486.041C777.744 486.041 776.969 509.877 757.491 521.34V538.979H772.419C772.419 538.979 777.686 563.647 788.103 563.647C798.48 563.647 806.206 538.979 806.206 538.979H819.217L817.862 520.701Z" fill="#E74040"/>
<path fill-rule="evenodd" clip-rule="evenodd" d="M801.404 451.11L801.713 451.304C801.694 451.304 801.578 451.188 801.404 451.11ZM682.929 251.654C682.929 251.654 661.553 240.54 661.553 217.014C661.553 182.432 665.368 181.599 666.452 182.064L663.993 180.534C666.757 178.28 668.756 175.226 669.716 171.791C670.676 168.356 670.551 164.709 669.357 161.348C668.164 157.987 665.96 155.077 663.048 153.018C660.136 150.959 656.659 149.85 653.092 149.844C650.888 148.204 648.326 147.111 645.616 146.657C642.907 146.202 640.128 146.398 637.509 147.228C634.89 148.059 632.506 149.5 630.554 151.433C628.602 153.366 627.137 155.736 626.281 158.347C625.425 160.957 625.202 163.734 625.63 166.448C626.058 169.162 627.126 171.735 628.744 173.955C630.362 176.176 632.485 177.979 634.938 179.217C637.391 180.456 640.103 181.093 642.85 181.077L642.831 181.096V216.995C642.831 216.995 642.056 240.85 622.559 252.293V269.933H637.506C637.506 269.933 642.772 294.581 653.189 294.581C663.567 294.581 671.312 269.933 671.312 269.933H684.303L682.929 251.654Z" fill="#E74040"/>
<path fill-rule="evenodd" clip-rule="evenodd" d="M666.452 182.064L666.743 182.258C666.743 182.258 666.626 182.141 666.452 182.064ZM817.862 251.654C817.862 251.654 796.486 240.54 796.486 217.014C796.486 182.432 800.3 181.599 801.385 182.064L798.945 180.534C801.699 178.274 803.688 175.218 804.641 171.785C805.594 168.352 805.465 164.708 804.27 161.351C803.076 157.994 800.875 155.088 797.967 153.029C795.06 150.969 791.588 149.857 788.025 149.844C784.385 149.854 780.841 151.01 777.896 153.149C774.952 155.288 772.756 158.302 771.622 161.76C770.488 165.219 770.473 168.947 771.579 172.415C772.685 175.882 774.855 178.913 777.783 181.076L777.744 181.096V216.995C777.744 216.995 776.969 240.85 757.491 252.293V269.933H772.419C772.419 269.933 777.686 294.581 788.103 294.581C798.48 294.581 806.206 269.933 806.206 269.933H819.217L817.862 251.654Z" fill="#E74040"/>
<path fill-rule="evenodd" clip-rule="evenodd" d="M801.404 182.064L801.713 182.258C801.694 182.258 801.578 182.142 801.404 182.064ZM682.929 1473.29C682.929 1473.29 661.553 1462.18 661.553 1438.65C661.553 1404.07 665.368 1403.22 666.452 1403.68L663.993 1402.17C666.76 1399.92 668.763 1396.87 669.725 1393.44C670.688 1390 670.563 1386.35 669.369 1382.99C668.174 1379.63 665.968 1376.72 663.053 1374.66C660.139 1372.61 656.659 1371.5 653.092 1371.5C650.824 1371.51 648.58 1371.97 646.487 1372.84C644.395 1373.72 642.495 1374.99 640.897 1376.6C639.299 1378.21 638.033 1380.12 637.172 1382.22C636.311 1384.32 635.872 1386.56 635.88 1388.83C635.886 1391.53 636.518 1394.19 637.728 1396.6C638.937 1399.02 640.691 1401.12 642.85 1402.74L642.831 1438.63C642.831 1438.63 642.056 1462.49 622.559 1473.91V1491.57H637.506C637.506 1491.57 642.772 1516.22 653.189 1516.22C663.567 1516.22 671.312 1491.57 671.312 1491.57H684.303L682.929 1473.29Z" fill="#E74040"/>
<path fill-rule="evenodd" clip-rule="evenodd" d="M666.452 1403.68L666.742 1403.9C666.742 1403.9 666.626 1403.78 666.452 1403.68ZM817.861 1473.29C817.861 1473.29 796.486 1462.18 796.486 1438.65C796.486 1404.07 800.3 1403.22 801.384 1403.68L798.945 1402.17C801.702 1399.92 803.695 1396.86 804.65 1393.43C805.605 1390 805.476 1386.35 804.281 1382.99C803.086 1379.64 800.882 1376.73 797.972 1374.67C795.063 1372.62 791.588 1371.51 788.025 1371.5C784.379 1371.5 780.826 1372.65 777.872 1374.79C774.919 1376.92 772.717 1379.94 771.581 1383.41C770.445 1386.87 770.433 1390.6 771.547 1394.08C772.66 1397.55 774.843 1400.58 777.782 1402.74H777.744V1438.63C777.744 1438.63 776.969 1462.49 757.491 1473.91V1491.57H772.419C772.419 1491.57 777.686 1516.22 788.102 1516.22C798.48 1516.22 806.205 1491.57 806.205 1491.57H819.217L817.861 1473.29ZM682.929 1204.27C682.929 1204.27 661.553 1193.15 661.553 1169.63C661.553 1135.04 665.368 1134.19 666.452 1134.64L663.993 1133.15C666.757 1130.89 668.756 1127.84 669.716 1124.4C670.676 1120.97 670.551 1117.32 669.357 1113.96C668.164 1110.6 665.96 1107.69 663.048 1105.63C660.136 1103.57 656.659 1102.46 653.092 1102.46C650.89 1100.82 648.331 1099.74 645.627 1099.28C642.922 1098.83 640.149 1099.03 637.536 1099.86C634.923 1100.69 632.545 1102.13 630.597 1104.06C628.649 1105.99 627.188 1108.36 626.333 1110.96C625.478 1113.57 625.254 1116.34 625.68 1119.05C626.106 1121.76 627.169 1124.32 628.782 1126.54C630.394 1128.76 632.511 1130.56 634.957 1131.8C637.403 1133.04 640.108 1133.68 642.85 1133.67L642.831 1133.71V1169.61C642.831 1169.61 642.056 1193.46 622.559 1204.91V1222.54H637.506C637.506 1222.54 642.772 1247.21 653.189 1247.21C663.567 1247.21 671.312 1222.54 671.312 1222.54H684.303L682.929 1204.27ZM824.444 1204.27C824.444 1204.27 803.069 1193.15 803.069 1169.63C803.069 1135.04 806.883 1134.19 807.967 1134.64L805.528 1133.15C808.27 1130.88 810.248 1127.83 811.195 1124.4C812.142 1120.97 812.011 1117.34 810.821 1113.99C809.631 1110.63 807.438 1107.73 804.541 1105.67C801.644 1103.61 798.183 1102.48 794.627 1102.46C792.425 1100.82 789.866 1099.74 787.162 1099.28C784.457 1098.83 781.684 1099.03 779.071 1099.86C776.458 1100.69 774.08 1102.13 772.132 1104.06C770.184 1105.99 768.723 1108.36 767.868 1110.96C767.013 1113.57 766.789 1116.34 767.215 1119.05C767.64 1121.76 768.704 1124.32 770.316 1126.54C771.929 1128.76 774.046 1130.56 776.492 1131.8C778.938 1133.04 781.643 1133.68 784.385 1133.67L784.346 1133.71V1169.61C784.346 1169.61 783.572 1193.46 764.094 1204.91L764.113 1222.54H779.041C779.041 1222.54 784.307 1247.21 794.704 1247.21C805.102 1247.21 812.827 1222.54 812.827 1222.54H825.819L824.444 1204.27Z" fill="#E74040"/>
<path fill-rule="evenodd" clip-rule="evenodd" d="M807.968 1134.62L808.259 1134.83C808.239 1134.85 808.142 1134.73 807.968 1134.62ZM753.658 1318.78C753.658 1318.78 732.283 1307.66 732.283 1284.12C732.283 1249.58 736.116 1248.72 737.181 1249.19L734.761 1247.66C737.495 1245.39 739.467 1242.34 740.41 1238.92C741.352 1235.49 741.219 1231.86 740.03 1228.51C738.841 1225.17 736.652 1222.27 733.76 1220.2C730.867 1218.14 727.412 1217.02 723.86 1216.99C721.589 1216.99 719.341 1217.45 717.245 1218.32C715.149 1219.2 713.246 1220.48 711.646 1222.09C710.045 1223.7 708.778 1225.61 707.917 1227.71C707.056 1229.81 706.618 1232.07 706.628 1234.34C706.637 1237.03 707.272 1239.69 708.481 1242.1C709.69 1244.51 711.442 1246.6 713.599 1248.22L713.56 1248.24V1284.12C713.56 1284.12 712.785 1307.99 693.288 1319.42V1337.06H708.235C708.235 1337.06 713.502 1361.72 723.918 1361.72C734.296 1361.72 742.041 1337.06 742.041 1337.06H755.014L753.658 1318.78Z" fill="#E74040"/>
<path fill-rule="evenodd" clip-rule="evenodd" d="M737.181 1249.17L737.491 1249.34C737.472 1249.36 737.356 1249.25 737.181 1249.17ZM753.658 1055.37C753.658 1055.37 732.283 1044.25 732.283 1020.73C732.283 986.125 736.116 985.311 737.181 985.776L734.761 984.227C737.528 981.976 739.531 978.924 740.493 975.489C741.456 972.054 741.331 968.405 740.137 965.044C738.942 961.683 736.736 958.774 733.822 956.717C730.907 954.66 727.428 953.556 723.86 953.556C714.315 953.556 706.628 961.302 706.628 970.886C706.631 973.588 707.263 976.253 708.472 978.669C709.682 981.085 711.437 983.187 713.599 984.808H713.56V1020.71C713.56 1020.71 712.785 1044.56 693.288 1056.01V1073.64H708.235C708.235 1073.64 713.502 1098.31 723.918 1098.31C734.296 1098.31 742.041 1073.64 742.041 1073.64H755.014L753.658 1055.37Z" fill="#E74040"/>
<path fill-rule="evenodd" clip-rule="evenodd" d="M737.181 985.776L737.491 985.951C737.472 985.951 737.356 985.834 737.181 985.776ZM753.658 383.96C753.658 383.96 732.283 372.846 732.283 349.32C732.283 314.738 736.116 313.886 737.181 314.351L734.761 312.821C737.495 310.555 739.467 307.502 740.41 304.078C741.352 300.654 741.219 297.022 740.03 293.676C738.841 290.329 736.652 287.429 733.76 285.367C730.867 283.306 727.412 282.183 723.86 282.151C721.656 280.499 719.09 279.396 716.375 278.932C713.66 278.469 710.873 278.659 708.246 279.487C705.619 280.314 703.226 281.755 701.266 283.691C699.307 285.627 697.836 288.002 696.976 290.619C696.116 293.236 695.892 296.02 696.322 298.741C696.751 301.462 697.823 304.041 699.447 306.266C701.072 308.49 703.202 310.296 705.663 311.534C708.124 312.771 710.844 313.405 713.599 313.383L713.56 313.402V349.32C713.56 349.32 712.785 373.175 693.288 384.599V402.258H708.235C708.235 402.258 713.502 426.907 723.918 426.907C734.296 426.907 742.041 402.258 742.041 402.258H755.014L753.658 383.96Z" fill="#E74040"/>
<path fill-rule="evenodd" clip-rule="evenodd" d="M737.182 314.37L737.492 314.564C737.393 314.491 737.29 314.427 737.182 314.37Z" fill="#E74040"/>
<path fill-rule="evenodd" clip-rule="evenodd" d="M873.72 867.973H577.291V640.15H873.72V867.973Z" fill="#E74040" stroke="#E74040" stroke-width="8.06719" stroke-miterlimit="2.613"/>
<path fill-rule="evenodd" clip-rule="evenodd" d="M658.069 961.263H617.1V873.995H658.069V961.263ZM829.17 961.263H788.2V873.995H829.17V961.263Z" fill="white" stroke="#E74040" stroke-width="8.06719" stroke-miterlimit="2.613"/>
<path fill-rule="evenodd" clip-rule="evenodd" d="M658.767 689.506H633.925V630.875H658.767V689.506ZM737.356 689.506H712.496V630.875H737.356V689.506ZM818.811 689.506H793.97V630.875H818.811V689.506ZM615.745 700.078H590.903V680.851H615.745V700.078ZM859.2 700.078H834.34V680.851H859.2V700.078ZM623.644 861.506H596.886V836.528H623.644V861.506ZM852.268 861.506H825.491V836.528H852.268V861.506Z" fill="white" stroke="#E74040" stroke-width="4.02063" stroke-miterlimit="2.613"/>
<path fill-rule="evenodd" clip-rule="evenodd" d="M789.749 761.09C789.749 783.996 761.5 802.584 726.59 802.584C691.739 802.584 663.49 783.996 663.49 761.09C663.49 738.164 691.72 719.557 726.59 719.557C761.5 719.557 789.749 738.164 789.749 761.09Z" fill="white" stroke="#E74040" stroke-width="6.04391" stroke-miterlimit="2.613"/>
<path fill-rule="evenodd" clip-rule="evenodd" d="M762.797 761.09C762.797 772.998 746.165 782.641 725.642 782.641C705.118 782.641 688.486 772.998 688.486 761.09C688.486 749.162 705.099 739.5 725.642 739.5C746.185 739.5 762.797 749.162 762.797 761.09Z" fill="white" stroke="#E74040" stroke-width="6.04391" stroke-miterlimit="2.613"/>
</g>
<defs>
<clipPath id="clip0_301_60">
<rect width="1460" height="1687" fill="white"/>
</clipPath>
</defs>
</svg>
