<svg width="32" height="30" viewBox="0 0 32 30" fill="none" xmlns="http://www.w3.org/2000/svg">
<path d="M9.28 0H22.72C27.84 0 32 3.9 32 8.7V21.3C32 23.6074 31.0223 25.8203 29.282 27.4518C27.5416 29.0834 25.1812 30 22.72 30H9.28C4.16 30 0 26.1 0 21.3V8.7C0 6.39262 0.977712 4.17974 2.71805 2.54817C4.45839 0.916605 6.81879 0 9.28 0ZM8.96 3C7.43235 3 5.96727 3.56893 4.88707 4.58162C3.80686 5.59432 3.2 6.96783 3.2 8.4V21.6C3.2 24.585 5.776 27 8.96 27H23.04C24.5676 27 26.0327 26.4311 27.1129 25.4184C28.1931 24.4057 28.8 23.0322 28.8 21.6V8.4C28.8 5.415 26.224 3 23.04 3H8.96ZM24.4 5.25C24.9304 5.25 25.4391 5.44754 25.8142 5.79917C26.1893 6.15081 26.4 6.62772 26.4 7.125C26.4 7.62228 26.1893 8.09919 25.8142 8.45082C25.4391 8.80246 24.9304 9 24.4 9C23.8696 9 23.3609 8.80246 22.9858 8.45082C22.6107 8.09919 22.4 7.62228 22.4 7.125C22.4 6.62772 22.6107 6.15081 22.9858 5.79917C23.3609 5.44754 23.8696 5.25 24.4 5.25ZM16 7.5C18.1217 7.5 20.1566 8.29018 21.6569 9.6967C23.1571 11.1032 24 13.0109 24 15C24 16.9891 23.1571 18.8968 21.6569 20.3033C20.1566 21.7098 18.1217 22.5 16 22.5C13.8783 22.5 11.8434 21.7098 10.3431 20.3033C8.84285 18.8968 8 16.9891 8 15C8 13.0109 8.84285 11.1032 10.3431 9.6967C11.8434 8.29018 13.8783 7.5 16 7.5ZM16 10.5C14.727 10.5 13.5061 10.9741 12.6059 11.818C11.7057 12.6619 11.2 13.8065 11.2 15C11.2 16.1935 11.7057 17.3381 12.6059 18.182C13.5061 19.0259 14.727 19.5 16 19.5C17.273 19.5 18.4939 19.0259 19.3941 18.182C20.2943 17.3381 20.8 16.1935 20.8 15C20.8 13.8065 20.2943 12.6619 19.3941 11.818C18.4939 10.9741 17.273 10.5 16 10.5Z" fill="black"/>
</svg>
