<svg width="32" height="32" viewBox="0 0 32 32" fill="#002D51"
    xmlns="http://www.w3.org/2000/svg">
    <g clip-path="url(#clip0_210_179)">
        <g clip-path="url(#clip1_210_179)">
            <path d="M11.2754 21.6057H20.7247V26.3304H11.2754V21.6057Z"/>
            <path d="M15.9997 3.65198C10.2683 3.65198 5.60547 8.3149 5.60547 14.0462V28.2202C5.60547 30.3044 7.30105 31.9999 9.3852 31.9999H22.6142C24.6984 31.9999 26.394 30.3044 26.394 28.2202V14.0462C26.394 8.31484 21.7312 3.65198 15.9997 3.65198ZM10.3301 12.1564H21.6693V14.0462H19.7795V15.9361H17.8896V14.0462H10.3301V12.1564ZM22.6142 28.2202H9.3852V19.7158H22.6142V28.2202Z"/>
            <path d="M25.7042 1.83877L20.3411 0L19.5566 2.288C21.4519 2.86245 23.1545 3.88336 24.5422 5.22799L25.7042 1.83877Z"/>
            <path d="M12.4425 2.288L11.658 0L6.29492 1.83877L7.45694 5.22799C8.8446 3.88342 10.5473 2.86245 12.4425 2.288Z"/>
        </g>
    </g>
    <defs>
        <clipPath id="clip0_210_179">
            <rect width="32" height="32" fill="white"/>
        </clipPath>
        <clipPath id="clip1_210_179">
            <rect width="20.7885" height="32" fill="white" transform="translate(5.60547)"/>
        </clipPath>
    </defs>
</svg>
