<svg width="29" height="27" viewBox="0 0 29 27" fill="none" xmlns="http://www.w3.org/2000/svg">
<path d="M5.83222 11.6202C8.15222 15.8417 11.89 19.2875 16.4494 21.4504L19.9939 18.1687C20.4289 17.766 21.0733 17.6317 21.6372 17.8107C23.4417 18.3627 25.3911 18.661 27.3889 18.661C28.275 18.661 29 19.3323 29 20.1527V25.3587C29 26.1791 28.275 26.8503 27.3889 26.8503C12.2606 26.8503 0 15.4986 0 1.49169C0 0.671259 0.725 0 1.61111 0H7.25C8.13611 0 8.86111 0.671259 8.86111 1.49169C8.86111 3.35629 9.18333 5.14632 9.77944 6.81701C9.95667 7.3391 9.82778 7.92085 9.37667 8.33853L5.83222 11.6202Z" fill="black"/>
</svg>
