<svg width="47" height="62" viewBox="0 0 47 62" fill="none" xmlns="http://www.w3.org/2000/svg">
<path d="M47 58.8981V3.09655C46.9982 2.53158 46.8404 1.9778 46.5437 1.4948C46.2469 1.01181 45.8224 0.617897 45.3158 0.355461C44.8092 0.093029 44.2397 -0.0279884 43.6687 0.00543976C43.0977 0.038868 42.5467 0.225475 42.075 0.545174L1.26891 28.446C-0.422971 29.6023 -0.422971 32.3862 1.26891 33.5456L42.075 61.4464C42.5457 61.7694 43.097 61.9587 43.6689 61.994C44.2409 62.0292 44.8118 61.909 45.3194 61.6463C45.8271 61.3836 46.2522 60.9886 46.5484 60.5041C46.8447 60.0196 47.0009 59.4641 47 58.8981Z" fill="#F8F8F8"/>
</svg>
