<svg width="47" height="62" viewBox="0 0 47 62" fill="none" xmlns="http://www.w3.org/2000/svg">
<path d="M7.62939e-06 3.10187L7.62939e-06 58.9035C0.00180054 59.4684 0.159573 60.0222 0.456337 60.5052C0.753105 60.9882 1.17762 61.3821 1.68421 61.6445C2.19079 61.907 2.76026 62.028 3.3313 61.9946C3.90234 61.9611 4.45334 61.7745 4.92499 61.4548L45.7311 33.554C47.423 32.3977 47.423 29.6138 45.7311 28.4544L4.92499 0.553594C4.45433 0.230642 3.90305 0.0412556 3.33105 0.00601084C2.75906 -0.0292339 2.18822 0.0910112 1.68057 0.353682C1.17291 0.616353 0.747845 1.0114 0.451561 1.49591C0.155277 1.98042 -0.000896454 2.53585 7.62939e-06 3.10187Z" fill="#F8F8F8"/>
</svg>
