<svg width="26" height="35" viewBox="0 0 26 35" fill="none" xmlns="http://www.w3.org/2000/svg">
<path d="M13 16.2722C11.7686 16.2722 10.5877 15.8211 9.717 15.018C8.8463 14.215 8.35714 13.1258 8.35714 11.9901C8.35714 10.8544 8.8463 9.76518 9.717 8.96212C10.5877 8.15906 11.7686 7.7079 13 7.7079C14.2314 7.7079 15.4123 8.15906 16.283 8.96212C17.1537 9.76518 17.6429 10.8544 17.6429 11.9901C17.6429 12.5524 17.5228 13.1092 17.2894 13.6288C17.0561 14.1483 16.7141 14.6204 16.283 15.018C15.8519 15.4157 15.34 15.7311 14.7767 15.9463C14.2134 16.1615 13.6097 16.2722 13 16.2722ZM13 0C9.55219 0 6.24558 1.26324 3.80761 3.51181C1.36964 5.76038 0 8.81011 0 11.9901C0 20.9826 13 34.2573 13 34.2573C13 34.2573 26 20.9826 26 11.9901C26 8.81011 24.6304 5.76038 22.1924 3.51181C19.7544 1.26324 16.4478 0 13 0Z" fill="black"/>
</svg>
