<svg width="31" height="20" viewBox="0 0 31 20" fill="none" xmlns="http://www.w3.org/2000/svg">
<path d="M12.4 14.2857L20.4445 10L12.4 5.71429V14.2857ZM30.318 3.1C30.5195 3.77143 30.659 4.67143 30.752 5.81429C30.8605 6.95714 30.907 7.94286 30.907 8.8L31 10C31 13.1286 30.752 15.4286 30.318 16.9C29.9305 18.1857 29.0315 19.0143 27.6365 19.3714C26.908 19.5571 25.575 19.6857 23.529 19.7714C21.514 19.8714 19.6695 19.9143 17.9645 19.9143L15.5 20C9.0055 20 4.96 19.7714 3.3635 19.3714C1.9685 19.0143 1.0695 18.1857 0.682 16.9C0.4805 16.2286 0.341 15.3286 0.248 14.1857C0.1395 13.0429 0.0929999 12.0571 0.0929999 11.2L0 10C0 6.87143 0.248 4.57143 0.682 3.1C1.0695 1.81429 1.9685 0.985714 3.3635 0.628572C4.092 0.442857 5.425 0.314286 7.471 0.228571C9.486 0.128571 11.3305 0.0857142 13.0355 0.0857142L15.5 0C21.9945 0 26.04 0.228572 27.6365 0.628572C29.0315 0.985714 29.9305 1.81429 30.318 3.1Z" fill="black"/>
</svg>
