<svg width="770" height="770" viewBox="0 0 770 770" fill="none" xmlns="http://www.w3.org/2000/svg">
<path d="M638.383 384.41C638.383 524.206 523.465 637.5 381.688 637.5C261.173 637.5 160.111 555.636 132.5 445.228C182.733 444.662 230.378 433.585 273.385 414.254V315.755C273.385 307.949 270.634 302.243 265.14 298.633C259.656 295.041 249.907 293.228 235.874 293.228V284.103C254.473 283.491 271.526 282.408 287.025 280.873C302.541 279.333 315.913 277.016 327.154 273.936L327.388 416.995C327.388 425.108 327.388 433.959 327.388 443.566C327.388 452.889 327.248 462.049 326.935 471.054C326.624 480.072 326.162 488.475 325.56 496.281C324.943 504.096 324.184 510.694 323.263 516.093C338.517 524.823 355.44 532.025 374.052 537.739C392.661 543.447 410.038 546.287 426.202 546.287C439.926 546.287 453.198 544.26 466.004 540.201C478.818 536.148 490.184 530.218 500.083 522.38C509.998 514.564 518.014 504.96 524.12 493.515C530.213 482.081 533.26 469.135 533.26 454.697C533.26 441.47 530.971 429.281 526.392 418.15C521.815 407.014 515.396 397.4 507.138 389.267C498.893 381.134 489.138 374.76 477.834 370.095C466.522 365.419 454.159 363.086 440.721 363.086C430.638 363.086 420.343 364.838 409.806 368.308C399.254 371.803 389.718 376.122 381.173 381.256V338.678C427.402 291.043 459.937 230.399 472.467 162.84C415.249 138.885 348.939 135.767 286.222 159.24C216.549 185.311 165.595 238.83 141.191 302.574C164.7 233.945 217.982 175.855 292.007 148.129C353.819 125.011 418.393 127.045 474.795 148.762C474.8 148.708 474.823 148.647 474.831 148.601C570.529 185.365 638.383 277.054 638.383 384.41ZM388.974 514.021C395.975 525.904 407.861 531.831 424.634 531.831C441.369 531.831 453.272 525.904 460.288 514.021C467.297 502.16 470.8 483.457 470.8 457.899C470.8 432.368 467.297 413.658 460.288 401.79C453.272 389.917 441.369 383.997 424.634 383.997C407.858 383.997 395.972 389.917 388.974 401.79C381.963 413.658 378.46 432.368 378.46 457.899C378.46 483.457 381.963 502.16 388.974 514.021ZM322.088 245.499C329.209 238.651 332.758 230.088 332.758 219.79C332.758 209.498 329.209 200.932 322.088 194.076C314.998 187.213 306.37 183.784 296.264 183.784C286.148 183.784 277.523 187.213 270.42 194.076C263.307 200.929 259.761 209.498 259.761 219.79C259.761 230.088 263.307 238.651 270.42 245.499C277.523 252.357 286.145 255.789 296.264 255.789C306.373 255.789 314.998 252.357 322.088 245.499Z" fill="#E74040"/>
<circle cx="385" cy="385" r="380" stroke="#E74040" stroke-width="10"/>
<path d="M470.416 57.7104L470.168 59.6581L464.175 58.8949L458.948 99.9472L462.993 100.462C463.243 100.494 463.489 100.551 463.733 100.633C464.513 100.884 464.833 101.559 464.693 102.658L446.714 100.369L446.962 98.4209L452.955 99.1841L457.572 62.9262L435.354 99.3028L433.781 99.1024L421.773 62.4784L417.671 94.691L421.716 95.2061C421.966 95.2379 422.212 95.2947 422.455 95.3764C423.235 95.628 423.556 96.3032 423.416 97.4019L408.433 95.494L408.681 93.5463L414.674 94.3094L419.902 53.2571L413.909 52.494L414.157 50.5462L424.869 51.9104L437.584 90.756L458.43 56.1841L470.416 57.7104Z" fill="#E74040"/>
<path d="M494.243 109.866C494.483 109.941 494.716 110.039 494.942 110.162C495.633 110.482 495.815 111.171 495.487 112.229L478.897 107.085L479.456 105.282C481.091 105.788 482.299 106.058 483.08 106.089C484.72 106.07 485.883 104.955 486.568 102.743L493.613 80.0218L487.843 78.2327L488.402 76.4294L499.582 79.8958L490.636 108.748L494.243 109.866ZM503.713 69.6332C503.534 70.2102 503.242 70.7259 502.838 71.1803C501.687 72.5104 500.271 72.9145 498.588 72.3927C498.059 72.2287 497.56 71.9685 497.09 71.6121C495.712 70.4469 495.299 68.9747 495.85 67.1955C496.029 66.6184 496.321 66.1027 496.726 65.6483C497.924 64.3332 499.365 63.9365 501.048 64.4583C501.577 64.6223 502.092 64.914 502.595 65.3334C503.862 66.5169 504.235 67.9501 503.713 69.6332Z" fill="#E74040"/>
<path d="M528.913 126.021L531.725 118.502C527.077 122.676 522.241 123.657 517.218 121.445C514.796 120.325 512.907 118.592 511.552 116.246C509.192 111.993 509.322 107.033 511.942 101.367C513.527 97.9396 515.73 95.2143 518.551 93.1909C523.181 89.8959 528.009 89.4106 533.036 91.7349C536.828 93.4886 539.274 96.117 540.372 99.62L548.106 82.8951L541.594 79.8841L542.386 78.1704L554.039 83.5585L534.367 126.462L537.794 128.047C538.068 128.174 538.286 128.302 538.448 128.433C539.091 128.841 539.18 129.548 538.715 130.553L528.913 126.021ZM518.148 103.238C517.155 105.386 516.496 107.411 516.172 109.313C515.201 114.411 516.589 117.826 520.336 119.559C522.21 120.425 524.184 120.534 526.259 119.885C530.142 118.685 533.351 115.343 535.887 109.86C537.091 107.255 537.749 104.813 537.859 102.535C538.091 98.3156 536.539 95.4347 533.203 93.8922C531.878 93.2794 530.529 93.0165 529.158 93.1035C524.798 93.4169 521.128 96.7952 518.148 103.238Z" fill="#E74040"/>
<path d="M571.27 151.37L575.324 144.441C570.032 147.761 565.1 147.902 560.528 144.865C558.333 143.348 556.767 141.318 555.832 138.775C554.233 134.182 555.208 129.317 558.757 124.181C560.903 121.075 563.539 118.766 566.665 117.254C571.789 114.797 576.629 115.143 581.185 118.291C584.623 120.667 586.584 123.674 587.068 127.313L597.543 112.154L591.641 108.075L592.714 106.522L603.276 113.82L576.568 152.736L579.675 154.883C579.923 155.055 580.116 155.219 580.253 155.374C580.817 155.887 580.784 156.598 580.155 157.509L571.27 151.37ZM564.553 127.085C563.207 129.031 562.213 130.914 561.568 132.733C559.741 137.59 560.526 141.192 563.922 143.539C565.621 144.713 567.547 145.157 569.703 144.871C573.733 144.352 577.466 141.607 580.9 136.637C582.532 134.276 583.596 131.983 584.094 129.756C585.043 125.639 584.005 122.535 580.982 120.446C579.78 119.616 578.497 119.126 577.131 118.978C572.781 118.542 568.588 121.245 564.553 127.085Z" fill="#E74040"/>
<path d="M601.628 173.969C601.852 174.171 602.022 174.359 602.138 174.531C602.63 175.112 602.506 175.813 601.763 176.635L588.929 165.044L590.195 163.643C591.465 164.79 592.465 165.524 593.194 165.843C594.469 166.384 595.883 165.795 597.435 164.077L624.768 133.813L620.564 130.017L621.83 128.616L630.237 136.208L598.601 171.236L601.628 173.969Z" fill="#E74040"/>
<path d="M642.734 174.755C641.87 173.771 640.83 173.043 639.612 172.571C635.963 171.085 631.88 172.156 627.362 175.785L632.471 181.951C633.96 183.725 635.215 185.003 636.234 185.783C638.244 187.234 640.195 187.129 642.087 185.469C642.92 184.739 643.563 183.907 644.016 182.973C645.486 180.144 645.058 177.404 642.734 174.755ZM633.575 200.271C632.846 200.509 632.084 200.709 631.289 200.871C626.643 201.531 622.528 199.817 618.942 195.73C616.684 193.157 615.337 190.286 614.902 187.118C614.218 181.758 616.222 177.019 620.914 172.902C623.488 170.644 626.261 169.149 629.234 168.415C634.963 167.006 639.903 168.666 644.053 173.397C646.178 175.819 647.506 178.438 648.035 181.256C648.812 185.195 647.914 188.294 645.341 190.551C643.941 191.78 642.414 192.215 640.76 191.858C638.652 191.363 635.611 188.774 631.635 184.091L625.772 177.179C624.216 178.612 622.908 180.06 621.85 181.525C618.016 186.697 617.842 191.27 621.328 195.244C621.627 195.585 621.961 195.928 622.331 196.273C625.299 198.893 628.803 199.603 632.841 198.404L633.575 200.271Z" fill="#E74040"/>
<path d="M659.756 253.869L650.832 237.661L652.552 236.714L655.466 242.006L669.557 234.248L684.871 209.61L682.868 205.971L684.588 205.024L692.819 219.975L691.099 220.922L688.331 215.894L674.871 237.012L699.658 236.468L696.745 231.176L698.465 230.229L704.948 242.004C704.727 242.126 704.495 242.225 704.25 242.302C703.471 242.559 702.815 242.201 702.281 241.231C701.484 239.888 700.211 239.038 698.462 238.679L673.314 239.507L658.562 247.629L660.529 251.202C660.65 251.422 660.749 251.655 660.827 251.9C661.083 252.678 660.726 253.334 659.756 253.869Z" fill="#E74040"/>
<path d="M704.046 278.142C703.602 276.911 702.899 275.853 701.938 274.969C699.084 272.252 694.891 271.758 689.36 273.487L691.864 281.093C692.603 283.289 693.305 284.936 693.969 286.034C695.31 288.119 697.164 288.734 699.532 287.88C700.574 287.504 701.476 286.964 702.239 286.261C704.64 284.163 705.243 281.457 704.046 278.142ZM686.203 298.552C685.437 298.507 684.655 298.415 683.855 298.275C679.289 297.193 676.084 294.095 674.238 288.981C673.076 285.76 672.87 282.596 673.622 279.488C674.942 274.248 678.538 270.568 684.41 268.449C687.63 267.287 690.758 266.907 693.794 267.31C699.642 268.09 703.634 271.439 705.771 277.359C706.865 280.39 707.144 283.313 706.608 286.129C705.893 290.08 703.925 292.637 700.705 293.799C698.953 294.432 697.373 294.279 695.964 293.343C694.182 292.112 692.296 288.592 690.305 282.78L687.371 274.205C685.399 274.97 683.653 275.841 682.132 276.818C676.674 280.233 674.842 284.427 676.637 289.399C676.791 289.825 676.977 290.267 677.195 290.723C679.002 294.246 682.004 296.187 686.201 296.545L686.203 298.552Z" fill="#E74040"/>
<path d="M687.759 339.583C687.106 336.119 688.915 333.646 693.186 332.161C692.06 331.928 690.938 331.462 689.82 330.765C686.852 328.799 685.002 326.015 684.27 322.414C683.97 320.934 683.955 319.472 684.227 318.03C684.937 314.444 687.167 312.27 690.917 311.508C692.002 311.287 693.043 311.23 694.041 311.335C699.217 312.031 702.983 318.175 705.338 329.77L710.001 328.822C714.756 327.702 716.811 324.793 716.165 320.095C715.764 318.122 714.851 316.791 713.427 316.105C713.032 315.928 711.851 315.68 709.886 315.36C708.344 315.108 707.459 314.415 707.228 313.28C707.178 313.033 707.153 312.781 707.152 312.525C707.108 311.044 707.851 310.148 709.38 309.837C710.219 309.667 711.118 309.793 712.077 310.214C715.023 311.568 717.058 315.007 718.18 320.533C718.27 320.977 718.361 321.421 718.451 321.865C719.49 329.001 716.481 333.285 709.426 334.719L693.811 337.891C691.354 338.442 690.207 339.368 690.368 340.671C690.739 342.24 692.76 342.831 696.431 342.445L696.748 344.384C696.502 344.434 696.225 344.464 695.919 344.475C691.251 345.013 688.53 343.382 687.759 339.583ZM687.727 324.254C687.947 325.34 688.419 326.4 689.143 327.434C691.106 330.015 693.865 331.33 697.42 331.378L703.34 330.175C702.509 326.337 701.666 323.452 700.811 321.519C699.151 317.901 696.668 316.427 693.362 317.099C692.524 317.269 691.774 317.498 691.113 317.787C688.244 319.089 687.115 321.245 687.727 324.254Z" fill="#E74040"/>
<path d="M693.936 371.812C693.957 372.113 693.948 372.366 693.912 372.571C693.862 373.331 693.284 373.748 692.179 373.822L690.929 355.211L692.813 355.085C692.928 356.793 693.136 358.015 693.438 358.751C693.977 360.027 695.403 360.587 697.713 360.432L721.448 358.838L721.068 353.187L722.952 353.06L723.686 363.986L716.247 364.788C717.798 365.34 719.213 366.128 720.493 367.152C723.213 369.341 724.674 371.942 724.877 374.956C724.907 375.408 724.889 375.889 724.822 376.398C724.475 378.743 723.171 379.991 720.911 380.142C720.61 380.163 720.305 380.133 719.997 380.052C718.513 379.748 717.72 378.843 717.619 377.336C717.599 377.035 717.629 376.73 717.709 376.422C717.863 375.705 718.616 374.898 719.969 373.999C721.177 373.212 721.753 372.391 721.695 371.537C721.595 370.787 720.98 369.895 719.85 368.86C716.899 366.233 713.137 365.073 708.566 365.38L693.572 366.387L693.936 371.812Z" fill="#E74040"/>
<path d="M732.691 435.888L733.811 427.733L712.862 424.856L711.917 431.739C711.835 432.337 711.777 432.939 711.745 433.545C711.599 439.42 714.768 442.802 721.252 443.693C722.748 443.898 724.172 443.891 725.524 443.67C729.692 442.921 732.081 440.327 732.691 435.888ZM689.839 429.316L692.572 409.415L694.518 409.682L693.696 415.668L734.694 421.299L735.517 415.314L737.462 415.581L734.42 437.726C733.981 440.919 733.056 443.586 731.644 445.73C729.059 449.745 725.298 451.414 720.361 450.736C718.066 450.421 716.118 449.619 714.516 448.332C710.241 445.052 708.665 439.321 709.788 431.142L710.693 424.558L692.812 422.102L692.051 427.638C692.017 427.888 691.958 428.134 691.874 428.376C691.615 429.154 690.936 429.467 689.839 429.316Z" fill="#E74040"/>
<path d="M681.892 474.875C681.807 475.165 681.713 475.4 681.608 475.579C681.3 476.276 680.615 476.47 679.551 476.16L684.763 458.25L686.576 458.778C686.097 460.421 685.874 461.641 685.904 462.436C685.974 463.82 687.12 464.835 689.344 465.482L712.185 472.128L713.767 466.69L715.58 467.217L712.521 477.731L705.258 475.933C706.525 476.983 707.584 478.209 708.435 479.61C710.239 482.599 710.719 485.544 709.875 488.445C709.748 488.88 709.566 489.325 709.329 489.78C708.199 491.863 706.546 492.588 704.37 491.955C704.08 491.871 703.804 491.738 703.543 491.557C702.253 490.762 701.82 489.64 702.242 488.19C702.326 487.9 702.459 487.624 702.64 487.362C703.03 486.741 704.014 486.241 705.593 485.862C706.999 485.536 707.821 484.963 708.06 484.141C708.223 483.402 707.951 482.353 707.245 480.994C705.374 477.513 702.239 475.133 697.84 473.853L683.411 469.654L681.892 474.875Z" fill="#E74040"/>
<path d="M686.343 505.634C684.369 504.745 682.506 504.1 680.755 503.698C674.708 502.412 670.642 504.087 668.554 508.724C668.162 509.596 667.894 510.497 667.752 511.426C667.182 516.249 670.753 520.397 678.465 523.869C679.797 524.468 681.044 524.947 682.208 525.305C689.007 527.372 693.554 525.858 695.848 520.762C696.344 519.66 696.635 518.522 696.723 517.346C696.919 512.741 693.459 508.837 686.343 505.634ZM697.476 521.744C696.112 524.773 694.058 527.189 691.315 528.991C686.593 532 681.339 532.202 675.555 529.598C671.285 527.676 668.327 524.743 666.679 520.799C664.86 516.501 664.942 512.149 666.926 507.742C668.331 504.62 670.485 502.167 673.386 500.381C678.18 497.46 683.469 497.301 689.253 499.905C693.431 501.785 696.31 504.71 697.891 508.68C699.599 512.982 699.46 517.336 697.476 521.744Z" fill="#E74040"/>
<path d="M668.469 552.01C662.742 548.35 658.479 548.582 655.679 552.707C653.061 556.83 654.595 560.798 660.282 564.613C665.84 568.163 670.005 567.897 672.778 563.815C675.423 559.65 673.987 555.715 668.469 552.01ZM674.32 564.907C672.893 567.102 671.078 568.834 668.872 570.103C669.51 570.878 670.016 571.717 670.39 572.62C671.367 574.996 671.212 577.176 669.923 579.161C669.621 579.625 669.235 580.035 668.764 580.389C667.504 581.312 666.22 581.348 664.911 580.498C663.923 579.616 663.646 578.565 664.078 577.345C664.325 576.965 664.81 576.68 665.534 576.49C666.606 576.226 667.334 575.798 667.718 575.207C667.828 575.038 667.916 574.856 667.984 574.659C668.416 573.439 668.08 572.2 666.976 570.943C663.513 572.115 660.185 571.694 656.991 569.679C654.5 568.061 652.868 565.86 652.095 563.076C651.015 559.193 651.696 555.373 654.137 551.615L657.821 546.083C658.04 545.746 658.225 545.415 658.374 545.092C658.984 543.507 658.74 542.358 657.642 541.645C656.053 540.672 654.564 541.116 653.176 542.976L645.435 554.337C645.051 554.928 644.638 555.47 644.197 555.964C640.933 559.787 637.486 560.52 633.855 558.161C632.673 557.393 631.773 556.328 631.157 554.967C629.376 550.869 630.571 545.611 634.74 539.194C636.385 536.661 638.15 534.776 640.035 533.538C642.957 531.535 645.58 531.287 647.902 532.796C649.422 533.783 650.468 535.453 651.04 537.806C653.29 536.746 655.547 536.922 657.812 538.333C658.361 538.69 658.869 539.11 659.335 539.593C661.219 541.777 661.283 544.22 659.527 546.922C659.888 546.736 660.27 546.564 660.673 546.406C664.814 544.653 668.488 544.819 671.697 546.903C674.146 548.494 675.757 550.681 676.53 553.465C677.525 557.293 676.788 561.107 674.32 564.907ZM636.386 540.264C635.097 542.248 634.115 544.222 633.44 546.185C632.036 550.195 632.262 552.804 634.12 554.01C634.626 554.34 635.09 554.551 635.51 554.643C637.232 555.042 639.143 553.671 641.242 550.533L647.704 540.862C648.061 540.313 648.598 539.672 649.315 538.937C648.806 537.226 647.995 535.978 646.883 535.196C646.292 534.812 645.605 534.575 644.822 534.487C641.913 534.158 639.101 536.084 636.386 540.264Z" fill="#E74040"/>
<path d="M621.31 584.099C621.113 584.328 620.929 584.502 620.76 584.622C620.191 585.128 619.487 585.02 618.647 584.298L630.817 570.162L632.248 571.394C631.131 572.691 630.422 573.708 630.12 574.444C629.609 575.732 630.231 577.131 631.987 578.642L650.014 594.163L653.709 589.87L655.14 591.102L647.996 599.401L642.133 594.752C642.851 596.233 643.306 597.788 643.499 599.415C643.901 602.884 643.116 605.763 641.146 608.052C640.85 608.395 640.5 608.725 640.095 609.041C638.202 610.467 636.398 610.441 634.681 608.963C634.452 608.766 634.256 608.531 634.093 608.258C633.249 607 633.32 605.799 634.305 604.654C634.502 604.425 634.738 604.229 635.011 604.066C635.623 603.663 636.727 603.616 638.32 603.925C639.734 604.213 640.72 604.032 641.279 603.383C641.733 602.778 641.921 601.711 641.843 600.182C641.584 596.238 639.718 592.772 636.246 589.783L624.857 579.978L621.31 584.099Z" fill="#E74040"/>
<path d="M586.499 614.497C589.17 612.198 592.217 612.524 595.641 615.477C595.279 614.386 595.12 613.181 595.164 611.864C595.378 608.311 596.861 605.315 599.611 602.878C600.742 601.876 601.999 601.132 603.384 600.645C606.843 599.463 609.842 600.303 612.38 603.167C613.114 603.996 613.686 604.869 614.094 605.785C616.085 610.613 612.653 616.95 603.798 624.797L606.954 628.357C610.306 631.912 613.853 632.233 617.595 629.321C619.102 627.985 619.796 626.529 619.678 624.953C619.632 624.522 619.256 623.376 618.548 621.514C617.994 620.054 618.15 618.94 619.017 618.172C619.205 618.005 619.41 617.857 619.632 617.728C620.892 616.948 622.039 617.142 623.074 618.31C623.642 618.951 623.983 619.792 624.099 620.833C624.403 624.061 622.446 627.545 618.225 631.285C617.886 631.585 617.547 631.886 617.208 632.186C611.553 636.659 606.338 636.202 601.563 630.814L590.995 618.888C589.288 617.038 587.911 616.509 586.865 617.301C585.692 618.408 586.193 620.453 588.367 623.437L586.847 624.683C586.68 624.494 586.515 624.27 586.353 624.011C583.549 620.24 583.598 617.068 586.499 614.497ZM599.75 606.791C598.921 607.526 598.24 608.466 597.707 609.61C596.457 612.602 596.701 615.648 598.439 618.749L602.446 623.271C605.352 620.629 607.427 618.453 608.671 616.745C610.972 613.496 611.003 610.609 608.766 608.085C608.198 607.444 607.624 606.91 607.044 606.483C604.48 604.652 602.048 604.755 599.75 606.791Z" fill="#E74040"/>
<path d="M562.383 636.085C562.165 636.211 561.935 636.315 561.692 636.397C560.962 636.644 560.333 636.309 559.805 635.393L574.196 627.092L575.139 628.727C573.657 629.582 572.651 630.308 572.123 630.903C571.215 631.95 571.34 633.476 572.497 635.482L584.383 656.088L589.29 653.258L590.233 654.893L580.748 660.365L576.713 653.974C576.956 655.403 576.983 656.811 576.795 658.198C576.28 662.041 574.453 664.868 571.313 666.679C570.484 667.157 569.589 667.469 568.628 667.617C565.389 668.148 562.384 666.918 559.612 663.926C559.766 664.999 559.808 666.079 559.737 667.166C559.517 671.42 557.75 674.502 554.436 676.414C552.909 677.294 551.266 677.72 549.504 677.689C545.551 677.587 542.279 675.289 539.688 670.798L530.33 654.575L526.994 656.499C526.732 656.65 526.502 656.754 526.302 656.811C525.598 657.101 524.969 656.766 524.415 655.807L538.872 647.468L539.815 649.103C538.333 649.959 537.349 650.671 536.864 651.242C536.131 652.188 536.343 653.663 537.5 655.67L544.971 668.622C545.776 670.017 546.711 671.134 547.776 671.973C550.026 673.756 552.262 674.006 554.486 672.723C555.315 672.245 556.061 671.524 556.725 670.56C558.395 667.911 558.66 664.794 557.521 661.208L557.219 660.685L547.861 644.462L544.918 646.16C544.656 646.311 544.425 646.415 544.226 646.472C543.521 646.762 542.892 646.427 542.339 645.468L556.403 637.355L557.346 638.991C555.864 639.846 554.88 640.559 554.395 641.129C553.662 642.075 553.874 643.551 555.031 645.557L562.503 658.509C563.257 659.817 564.111 660.894 565.064 661.74C567.276 663.66 569.472 663.992 571.653 662.734C572.83 662.055 573.756 660.939 574.43 659.388C575.878 656.054 575.56 652.43 573.478 648.517L565.327 634.387L562.383 636.085Z" fill="#E74040"/>
<path d="M495.868 668.569C495.625 668.635 495.376 668.677 495.12 668.694C494.352 668.747 493.828 668.263 493.551 667.243L509.581 662.877L510.077 664.699C508.425 665.148 507.268 665.594 506.606 666.035C505.462 666.816 505.194 668.324 505.803 670.559L512.054 693.511L517.519 692.022L518.015 693.844L507.45 696.722L505.174 689.515C505.045 690.958 504.714 692.327 504.179 693.621C502.703 697.206 500.216 699.475 496.719 700.427C495.796 700.679 494.851 700.753 493.884 700.651C490.617 700.341 488.023 698.387 486.104 694.787C485.98 695.865 485.745 696.92 485.4 697.953C484.105 702.01 481.612 704.542 477.92 705.547C476.22 706.011 474.522 706.003 472.827 705.526C469.03 704.421 466.45 701.367 465.087 696.363L460.165 678.293L456.449 679.305C456.158 679.385 455.908 679.427 455.701 679.431C454.946 679.532 454.423 679.049 454.132 677.98L470.234 673.594L470.73 675.415C469.079 675.865 467.946 676.304 467.332 676.732C466.383 677.461 466.212 678.942 466.821 681.176L470.75 695.603C471.174 697.158 471.794 698.476 472.61 699.558C474.332 701.855 476.431 702.666 478.908 701.991C479.831 701.74 480.737 701.232 481.624 700.469C483.912 698.332 484.962 695.385 484.773 691.627L484.615 691.045L479.693 672.974L476.414 673.867C476.122 673.947 475.873 673.989 475.665 673.993C474.91 674.094 474.387 673.611 474.096 672.542L489.762 668.275L490.258 670.097C488.606 670.547 487.474 670.985 486.86 671.414C485.91 672.142 485.74 673.623 486.348 675.858L490.278 690.285C490.675 691.742 491.226 693.001 491.932 694.061C493.583 696.481 495.623 697.36 498.052 696.699C499.363 696.341 500.542 695.498 501.589 694.17C503.838 691.314 504.453 687.728 503.434 683.414L499.147 667.675L495.868 668.569Z" fill="#E74040"/>
<path d="M424.571 711.575C425.877 711.491 427.089 711.11 428.205 710.433C431.609 708.448 433.251 704.559 433.131 698.765L425.128 699.053C422.813 699.151 421.036 699.366 419.796 699.698C417.42 700.406 416.313 702.016 416.475 704.528C416.546 705.634 416.813 706.651 417.276 707.579C418.622 710.469 421.054 711.801 424.571 711.575ZM409.936 688.754C410.192 688.032 410.499 687.306 410.855 686.576C413.166 682.493 417.034 680.277 422.46 679.928C425.876 679.708 428.973 680.392 431.748 681.979C436.414 684.706 438.947 689.184 439.347 695.414C439.567 698.831 439.061 701.941 437.829 704.744C435.452 710.144 431.123 713.045 424.843 713.449C421.627 713.656 418.742 713.11 416.186 711.811C412.59 710.025 410.683 707.423 410.463 704.007C410.343 702.148 410.929 700.672 412.221 699.58C413.899 698.211 417.806 697.38 423.942 697.086L432.995 696.655C432.809 694.548 432.459 692.628 431.944 690.896C430.183 684.703 426.665 681.776 421.39 682.115C420.938 682.144 420.462 682.2 419.963 682.283C416.076 683.037 413.377 685.38 411.864 689.312L409.936 688.754Z" fill="#E74040"/>
<path d="M303.679 717.846L303.927 715.898L309.92 716.662L315.148 675.609L311.103 675.094C310.853 675.062 310.607 675.006 310.363 674.924C309.583 674.672 309.263 673.997 309.403 672.898L327.382 675.188L327.134 677.136L321.141 676.372L316.524 712.63L338.742 676.254L340.315 676.454L352.323 713.078L356.425 680.866L352.38 680.35C352.13 680.319 351.884 680.262 351.64 680.18C350.86 679.929 350.54 679.253 350.68 678.155L365.663 680.063L365.415 682.01L359.422 681.247L354.194 722.299L360.187 723.063L359.939 725.01L349.226 723.646L336.511 684.801L315.665 719.373L303.679 717.846Z" fill="#E74040"/>
<path d="M279.853 665.69C279.612 665.616 279.379 665.517 279.154 665.395C278.462 665.075 278.281 664.386 278.609 663.328L295.199 668.472L294.64 670.275C293.005 669.768 291.797 669.499 291.016 669.468C289.376 669.486 288.213 670.602 287.527 672.814L280.483 695.535L286.253 697.324L285.694 699.127L274.514 695.661L283.459 666.809L279.853 665.69ZM270.383 705.923C270.562 705.346 270.854 704.831 271.258 704.376C272.408 703.046 273.825 702.642 275.508 703.164C276.037 703.328 276.536 703.588 277.005 703.944C278.384 705.11 278.797 706.582 278.245 708.361C278.066 708.938 277.775 709.454 277.37 709.908C276.172 711.223 274.731 711.62 273.048 711.098C272.519 710.934 272.003 710.643 271.501 710.223C270.234 709.04 269.861 707.606 270.383 705.923Z" fill="#E74040"/>
<path d="M245.182 649.536L242.371 657.055C247.019 652.881 251.855 651.9 256.878 654.112C259.3 655.232 261.189 656.965 262.544 659.311C264.904 663.564 264.774 668.523 262.154 674.19C260.569 677.617 258.366 680.342 255.545 682.366C250.915 685.661 246.087 686.146 241.06 683.822C237.267 682.068 234.822 679.44 233.724 675.937L225.99 692.662L232.502 695.673L231.709 697.386L220.057 691.998L239.729 649.094L236.302 647.509C236.028 647.383 235.81 647.254 235.648 647.124C235.005 646.716 234.916 646.009 235.381 645.003L245.182 649.536ZM255.947 672.318C256.94 670.17 257.599 668.146 257.924 666.243C258.895 661.146 257.506 657.73 253.759 655.998C251.886 655.131 249.911 655.023 247.836 655.672C243.954 656.872 240.744 660.213 238.209 665.697C237.004 668.302 236.347 670.743 236.236 673.022C236.005 677.241 237.557 680.122 240.893 681.664C242.218 682.277 243.566 682.54 244.938 682.453C249.298 682.14 252.968 678.761 255.947 672.318Z" fill="#E74040"/>
<path d="M202.825 624.186L198.772 631.115C204.064 627.796 208.996 627.654 213.568 630.691C215.763 632.208 217.328 634.238 218.264 636.781C219.863 641.375 218.888 646.239 215.339 651.375C213.193 654.482 210.557 656.791 207.431 658.303C202.307 660.759 197.467 660.413 192.911 657.265C189.473 654.89 187.512 651.882 187.028 648.243L176.553 663.403L182.455 667.481L181.382 669.034L170.82 661.736L197.527 622.82L194.421 620.674C194.172 620.502 193.98 620.338 193.843 620.182C193.279 619.67 193.311 618.958 193.941 618.047L202.825 624.186ZM209.543 648.472C210.888 646.525 211.883 644.642 212.528 642.824C214.355 637.966 213.57 634.364 210.173 632.017C208.475 630.844 206.548 630.4 204.393 630.685C200.362 631.204 196.63 633.949 193.195 638.92C191.564 641.28 190.499 643.574 190.001 645.8C189.053 649.918 190.091 653.022 193.114 655.111C194.315 655.941 195.599 656.43 196.965 656.578C201.315 657.014 205.508 654.312 209.543 648.472Z" fill="#E74040"/>
<path d="M172.468 601.588C172.244 601.385 172.074 601.198 171.958 601.025C171.465 600.445 171.59 599.743 172.332 598.921L185.166 610.512L183.901 611.913C182.631 610.766 181.631 610.033 180.902 609.713C179.627 609.172 178.213 609.761 176.661 611.48L149.328 641.744L153.531 645.54L152.266 646.941L143.859 639.348L175.494 604.321L172.468 601.588Z" fill="#E74040"/>
<path d="M131.362 600.801C132.225 601.785 133.266 602.513 134.484 602.985C138.132 604.472 142.216 603.401 146.734 599.772L141.625 593.605C140.135 591.831 138.881 590.554 137.862 589.774C135.852 588.323 133.9 588.427 132.008 590.087C131.176 590.818 130.533 591.65 130.079 592.583C128.61 595.413 129.038 598.152 131.362 600.801ZM140.52 575.285C141.249 575.047 142.012 574.847 142.807 574.685C147.452 574.025 151.568 575.739 155.154 579.826C157.412 582.4 158.758 585.27 159.194 588.438C159.878 593.798 157.874 598.537 153.181 602.654C150.608 604.912 147.835 606.408 144.861 607.141C139.133 608.551 134.193 606.89 130.042 602.16C127.917 599.738 126.59 597.118 126.061 594.301C125.283 590.362 126.181 587.263 128.755 585.005C130.155 583.777 131.682 583.341 133.335 583.699C135.443 584.193 138.485 586.782 142.46 591.466L148.323 598.377C149.88 596.945 151.187 595.496 152.246 594.031C156.08 588.859 156.254 584.286 152.768 580.312C152.469 579.972 152.134 579.629 151.765 579.284C148.796 576.664 145.293 575.954 141.255 577.152L140.52 575.285Z" fill="#E74040"/>
<path d="M114.34 521.688L123.264 537.896L121.544 538.843L118.63 533.55L104.539 541.308L89.2249 565.947L91.2281 569.585L89.5081 570.532L81.2766 555.582L82.9966 554.635L85.7647 559.662L99.2243 538.545L74.4372 539.088L77.3511 544.381L75.6311 545.328L69.1478 533.552C69.3683 533.431 69.601 533.332 69.8458 533.254C70.6243 532.998 71.2806 533.355 71.8148 534.325C72.6116 535.668 73.8847 536.519 75.6339 536.878L100.781 536.049L115.534 527.927L113.567 524.355C113.446 524.134 113.346 523.902 113.269 523.657C113.013 522.878 113.37 522.222 114.34 521.688Z" fill="#E74040"/>
<path d="M70.0496 497.415C70.4939 498.646 71.1968 499.704 72.1582 500.588C75.012 503.304 79.2046 503.798 84.7359 502.07L82.2315 494.463C81.4926 492.268 80.7912 490.621 80.1271 489.522C78.7858 487.437 76.9313 486.822 74.5635 487.677C73.5217 488.053 72.6193 488.592 71.8562 489.296C69.4554 491.394 68.8532 494.1 70.0496 497.415ZM87.893 477.005C88.6586 477.05 89.4412 477.142 90.2409 477.281C94.8063 478.363 98.0119 481.462 99.8578 486.576C101.02 489.796 101.225 492.96 100.474 496.068C99.1536 501.308 95.5574 504.988 89.6854 507.107C86.4652 508.27 83.3373 508.649 80.3015 508.246C74.4536 507.467 70.4614 504.117 68.325 498.198C67.2311 495.167 66.9521 492.243 67.488 489.427C68.2029 485.476 70.1704 482.92 73.3906 481.757C75.1427 481.125 76.7231 481.277 78.1316 482.214C79.9137 483.444 81.8 486.965 83.7904 492.776L86.7248 501.352C88.6967 500.586 90.4429 499.715 91.9637 498.738C97.4216 495.323 99.2533 491.13 97.4587 486.157C97.3048 485.731 97.1188 485.29 96.9005 484.833C95.0938 481.311 92.0919 479.37 87.8947 479.011L87.893 477.005Z" fill="#E74040"/>
<path d="M86.3372 435.973C86.9895 439.437 85.1803 441.911 80.9095 443.395C82.0358 443.629 83.1579 444.094 84.2757 444.792C87.2438 446.758 89.0937 449.541 89.8254 453.143C90.1261 454.623 90.1404 456.084 89.8684 457.527C89.1585 461.113 86.9288 463.287 83.1791 464.049C82.0937 464.269 81.0522 464.327 80.0547 464.221C74.8788 463.526 71.1131 457.381 68.7575 445.787L64.0951 446.734C59.3395 447.855 57.2848 450.764 57.931 455.461C58.3319 457.435 59.2443 458.765 60.6682 459.452C61.0637 459.628 62.2443 459.877 64.2102 460.196C65.7512 460.448 66.637 461.142 66.8675 462.277C66.9177 462.523 66.9431 462.775 66.9439 463.032C66.9879 464.513 66.2452 465.408 64.7157 465.719C63.877 465.89 62.9781 465.764 62.0191 465.342C59.0726 463.989 57.0381 460.549 55.9154 455.023C55.8252 454.579 55.735 454.135 55.6448 453.691C54.6061 446.556 57.6144 442.271 64.6696 440.838L80.2849 437.665C82.7417 437.115 83.8892 436.188 83.7272 434.885C83.3571 433.317 81.3362 432.725 77.6644 433.112L77.3475 431.173C77.5942 431.123 77.8705 431.092 78.1766 431.081C82.8451 430.544 85.5653 432.174 86.3372 435.973ZM86.369 451.302C86.1485 450.217 85.6763 449.157 84.9523 448.122C82.9895 445.541 80.2308 444.227 76.6762 444.178L70.7557 445.381C71.5869 449.219 72.43 452.105 73.285 454.037C74.9449 457.656 77.4276 459.129 80.7332 458.458C81.572 458.287 82.3216 458.058 82.9823 457.77C85.8515 456.468 86.9804 454.312 86.369 451.302Z" fill="#E74040"/>
<path d="M80.1594 403.745C80.1391 403.443 80.1474 403.19 80.1841 402.986C80.234 402.226 80.8114 401.809 81.9165 401.734L83.1666 420.345L81.2828 420.472C81.1681 418.764 80.9599 417.542 80.6581 416.805C80.1183 415.529 78.6931 414.969 76.3824 415.124L52.6477 416.718L53.0273 422.37L51.1436 422.496L50.4098 411.571L57.849 410.768C56.2982 410.216 54.8829 409.428 53.6031 408.404C50.8827 406.215 49.4213 403.614 49.2188 400.6C49.1885 400.148 49.2066 399.667 49.2734 399.158C49.6205 396.814 50.9243 395.566 53.1847 395.414C53.4861 395.394 53.7909 395.424 54.099 395.504C55.5827 395.808 56.3752 396.714 56.4764 398.22C56.4967 398.522 56.4667 398.827 56.3865 399.135C56.2328 399.852 55.4797 400.659 54.1271 401.557C52.9186 402.345 52.343 403.166 52.4003 404.019C52.5012 404.77 53.1161 405.662 54.2452 406.696C57.1969 409.323 60.9583 410.484 65.5295 410.177L80.5237 409.17L80.1594 403.745Z" fill="#E74040"/>
<path d="M41.4052 339.668L40.285 347.823L61.2334 350.701L62.1788 343.818C62.261 343.219 62.3183 342.617 62.3506 342.012C62.4969 336.137 59.328 332.754 52.844 331.864C51.3477 331.658 49.9238 331.666 48.5722 331.887C44.4039 332.635 42.0149 335.229 41.4052 339.668ZM84.2567 346.24L81.5232 366.141L79.578 365.874L80.4001 359.889L39.4013 354.257L38.5792 360.243L36.634 359.975L39.6758 337.83C40.1142 334.638 41.0397 331.97 42.4521 329.826C45.0363 325.811 48.7974 324.143 53.7352 324.821C56.0295 325.136 57.9776 325.937 59.5794 327.224C63.8549 330.505 65.4309 336.235 64.3073 344.415L63.403 350.999L81.2839 353.455L82.0443 347.918C82.0786 347.669 82.1378 347.423 82.2219 347.18C82.4812 346.403 83.1594 346.09 84.2567 346.24Z" fill="#E74040"/>
<path d="M92.204 300.682C92.2884 300.392 92.3829 300.157 92.4875 299.978C92.7952 299.281 93.4808 299.087 94.5443 299.396L89.3327 317.306L87.52 316.779C87.9982 315.135 88.222 313.916 88.1913 313.12C88.1219 311.737 86.9754 310.722 84.7518 310.075L61.911 303.428L60.3285 308.867L58.5158 308.339L61.5752 297.825L68.8381 299.624C67.5708 298.574 66.5118 297.348 65.661 295.947C63.8568 292.957 63.3767 290.012 64.2206 287.112C64.3472 286.677 64.5292 286.232 64.7666 285.777C65.897 283.694 67.5499 282.969 69.7252 283.602C70.0153 283.686 70.2912 283.819 70.5531 284C71.8425 284.794 72.2762 285.917 71.8542 287.367C71.7698 287.657 71.637 287.933 71.4559 288.195C71.0657 288.815 70.0812 289.316 68.5026 289.695C67.0972 290.02 66.2749 290.594 66.0358 291.415C65.8731 292.155 66.1446 293.204 66.8503 294.563C68.7213 298.043 71.8563 300.424 76.2553 301.704L90.6849 305.902L92.204 300.682Z" fill="#E74040"/>
<path d="M87.7528 269.923C89.7269 270.811 91.5896 271.457 93.3411 271.859C99.3874 273.145 103.454 271.47 105.541 266.833C105.934 265.961 106.202 265.06 106.344 264.13C106.914 259.307 103.343 255.16 95.6304 251.688C94.2991 251.089 93.0515 250.61 91.8877 250.252C85.0886 248.185 80.5421 249.699 78.2481 254.795C77.7521 255.896 77.4604 257.035 77.373 258.21C77.1772 262.815 80.6371 266.719 87.7528 269.923ZM76.6195 253.813C77.9835 250.783 80.0372 248.367 82.7807 246.566C87.5031 243.557 92.7565 243.355 98.5409 245.959C102.81 247.881 105.769 250.814 107.416 254.758C109.236 259.055 109.154 263.408 107.17 267.815C105.765 270.936 103.611 273.39 100.709 275.176C95.9158 278.097 90.6268 278.256 84.8424 275.652C80.6648 273.771 77.7854 270.846 76.2044 266.877C74.4971 262.575 74.6355 258.22 76.6195 253.813Z" fill="#E74040"/>
<path d="M105.627 223.546C111.354 227.206 115.617 226.974 118.417 222.85C121.035 218.727 119.501 214.758 113.814 210.944C108.256 207.393 104.09 207.659 101.318 211.742C98.6725 215.906 100.109 219.841 105.627 223.546ZM99.7761 210.65C101.202 208.454 103.018 206.722 105.223 205.453C104.586 204.679 104.08 203.84 103.706 202.937C102.728 200.56 102.884 198.38 104.173 196.396C104.475 195.931 104.861 195.522 105.332 195.167C106.591 194.245 107.876 194.208 109.184 195.059C110.172 195.941 110.45 196.992 110.018 198.212C109.771 198.592 109.286 198.877 108.562 199.067C107.49 199.331 106.762 199.758 106.378 200.35C106.268 200.518 106.179 200.701 106.112 200.897C105.679 202.117 106.015 203.356 107.119 204.614C110.583 203.442 113.911 203.863 117.105 205.878C119.596 207.496 121.228 209.697 122.001 212.48C123.081 216.364 122.4 220.184 119.959 223.941L116.275 229.473C116.056 229.811 115.871 230.141 115.721 230.464C115.112 232.049 115.356 233.198 116.453 233.912C118.043 234.884 119.532 234.441 120.92 232.581L128.661 221.22C129.045 220.629 129.458 220.086 129.898 219.592C133.163 215.769 136.61 215.037 140.241 217.396C141.423 218.164 142.322 219.228 142.939 220.589C144.719 224.688 143.525 229.945 139.356 236.363C137.71 238.896 135.945 240.781 134.061 242.018C131.138 244.022 128.516 244.269 126.194 242.761C124.674 241.774 123.628 240.103 123.055 237.75C120.806 238.81 118.548 238.635 116.283 237.223C115.734 236.867 115.227 236.447 114.76 235.963C112.877 233.779 112.813 231.337 114.568 228.635C114.208 228.82 113.826 228.992 113.423 229.151C109.282 230.904 105.607 230.738 102.399 228.653C99.9501 227.063 98.3392 224.875 97.566 222.092C96.571 218.263 97.3077 214.449 99.7761 210.65ZM137.709 235.293C138.999 233.309 139.981 231.335 140.655 229.372C142.06 225.361 141.834 222.753 139.976 221.546C139.469 221.217 139.006 221.006 138.586 220.913C136.864 220.515 134.953 221.885 132.854 225.024L126.391 234.694C126.035 235.243 125.498 235.885 124.78 236.619C125.289 238.331 126.1 239.578 127.213 240.361C127.804 240.745 128.491 240.981 129.274 241.07C132.182 241.398 134.994 239.473 137.709 235.293Z" fill="#E74040"/>
<path d="M152.786 191.458C152.983 191.229 153.166 191.055 153.336 190.935C153.905 190.428 154.609 190.536 155.448 191.259L143.278 205.395L141.848 204.163C142.964 202.866 143.674 201.849 143.976 201.112C144.486 199.825 143.864 198.425 142.109 196.914L124.082 181.394L120.386 185.686L118.956 184.454L126.1 176.156L131.963 180.805C131.245 179.323 130.79 177.769 130.597 176.141C130.195 172.673 130.979 169.794 132.95 167.505C133.246 167.161 133.596 166.832 134.001 166.516C135.893 165.089 137.698 165.115 139.415 166.593C139.644 166.79 139.84 167.026 140.003 167.299C140.847 168.557 140.776 169.758 139.791 170.903C139.593 171.132 139.358 171.328 139.085 171.491C138.472 171.894 137.369 171.94 135.775 171.631C134.362 171.344 133.376 171.525 132.817 172.173C132.363 172.779 132.175 173.846 132.253 175.375C132.512 179.318 134.378 182.784 137.85 185.773L149.238 195.578L152.786 191.458Z" fill="#E74040"/>
<path d="M187.597 161.059C184.926 163.359 181.878 163.032 178.455 160.079C178.817 161.171 178.976 162.375 178.932 163.692C178.717 167.246 177.235 170.241 174.484 172.679C173.354 173.68 172.096 174.425 170.712 174.912C167.252 176.094 164.254 175.253 161.716 172.389C160.981 171.56 160.41 170.688 160.002 169.772C158.011 164.944 161.442 158.606 170.297 150.76L167.142 147.199C163.79 143.644 160.243 143.323 156.501 146.236C154.994 147.571 154.299 149.027 154.418 150.604C154.464 151.035 154.84 152.181 155.548 154.042C156.102 155.502 155.945 156.616 155.079 157.384C154.89 157.551 154.685 157.699 154.464 157.829C153.204 158.608 152.056 158.414 151.021 157.246C150.454 156.606 150.112 155.765 149.997 154.724C149.692 151.495 151.65 148.012 155.87 144.272C156.209 143.971 156.549 143.671 156.888 143.37C162.543 138.897 167.758 139.355 172.533 144.743L183.101 156.668C184.808 158.519 186.185 159.048 187.231 158.255C188.403 157.149 187.903 155.104 185.729 152.119L187.249 150.874C187.416 151.062 187.58 151.286 187.743 151.546C190.547 155.317 190.498 158.488 187.597 161.059ZM174.346 168.765C175.175 168.031 175.856 167.091 176.389 165.946C177.639 162.954 177.395 159.908 175.656 156.807L171.65 152.286C168.744 154.928 166.669 157.103 165.424 158.811C163.124 162.06 163.093 164.947 165.33 167.472C165.897 168.112 166.471 168.646 167.052 169.074C169.616 170.905 172.048 170.802 174.346 168.765Z" fill="#E74040"/>
<path d="M211.712 139.471C211.93 139.346 212.161 139.242 212.404 139.159C213.134 138.913 213.763 139.248 214.291 140.163L199.9 148.465L198.956 146.829C200.439 145.974 201.445 145.249 201.973 144.653C202.88 143.607 202.756 142.08 201.598 140.074L189.712 119.469L184.806 122.299L183.863 120.663L193.348 115.192L197.383 121.583C197.14 120.153 197.112 118.745 197.3 117.358C197.815 113.516 199.643 110.689 202.783 108.878C203.612 108.4 204.506 108.087 205.467 107.94C208.706 107.408 211.712 108.639 214.484 111.631C214.33 110.557 214.288 109.477 214.359 108.39C214.579 104.137 216.346 101.054 219.66 99.1425C221.186 98.2621 222.83 97.837 224.591 97.8673C228.545 97.9699 231.817 100.267 234.408 104.759L243.766 120.982L247.102 119.057C247.363 118.907 247.594 118.803 247.794 118.746C248.498 118.455 249.127 118.79 249.681 119.749L235.224 128.089L234.28 126.453C235.763 125.598 236.747 124.885 237.232 124.315C237.965 123.369 237.753 121.893 236.595 119.887L229.124 106.935C228.319 105.539 227.384 104.422 226.319 103.583C224.07 101.8 221.834 101.55 219.609 102.833C218.781 103.311 218.034 104.032 217.37 104.997C215.701 107.645 215.436 110.762 216.575 114.348L216.876 114.872L226.234 131.094L229.178 129.396C229.44 129.245 229.67 129.142 229.87 129.085C230.574 128.794 231.203 129.129 231.757 130.088L217.693 138.201L216.749 136.566C218.232 135.711 219.216 134.998 219.7 134.428C220.433 133.482 220.221 132.006 219.064 130L211.593 117.047C210.838 115.739 209.985 114.662 209.032 113.817C206.82 111.896 204.624 111.565 202.443 112.823C201.266 113.502 200.34 114.617 199.665 116.169C198.218 119.503 198.535 123.127 200.618 127.04L208.769 141.169L211.712 139.471Z" fill="#E74040"/>
<path d="M278.227 106.988C278.47 106.922 278.72 106.88 278.976 106.862C279.744 106.81 280.267 107.293 280.545 108.313L264.515 112.68L264.019 110.858C265.671 110.408 266.828 109.963 267.49 109.521C268.634 108.74 268.902 107.232 268.293 104.998L262.041 82.0458L256.577 83.5343L256.08 81.7127L266.646 78.835L268.922 86.042C269.05 84.5981 269.382 83.2294 269.917 81.9358C271.393 78.3509 273.879 76.0821 277.377 75.1294C278.3 74.8781 279.245 74.8033 280.212 74.9052C283.479 75.2153 286.073 77.1701 287.992 80.7694C288.116 79.692 288.35 78.6368 288.695 77.6037C289.99 73.5462 292.484 71.0147 296.175 70.0091C297.876 69.546 299.573 69.5532 301.269 70.0307C305.066 71.1358 307.646 74.19 309.009 79.1933L313.93 97.2634L317.646 96.2513C317.938 96.1719 318.187 96.13 318.395 96.1257C319.15 96.0244 319.673 96.508 319.964 97.5767L303.861 101.963L303.365 100.141C305.017 99.6913 306.15 99.2523 306.763 98.8242C307.713 98.0959 307.883 96.6146 307.275 94.3801L303.345 79.9531C302.922 78.3987 302.302 77.0805 301.485 75.9984C299.764 73.7017 297.665 72.8908 295.187 73.5655C294.264 73.8169 293.359 74.3244 292.471 75.088C290.183 77.2244 289.134 80.1715 289.322 83.9292L289.481 84.5121L294.403 102.582L297.682 101.689C297.973 101.61 298.223 101.568 298.43 101.564C299.185 101.462 299.709 101.946 300 103.015L284.334 107.281L283.838 105.46C285.489 105.01 286.622 104.571 287.236 104.143C288.186 103.415 288.356 101.933 287.747 99.6989L283.818 85.2719C283.421 83.8146 282.869 82.556 282.163 81.4961C280.513 79.0758 278.473 78.1964 276.044 78.858C274.733 79.2152 273.553 80.0582 272.506 81.3869C270.258 84.2431 269.643 87.8283 270.662 92.1426L274.948 107.881L278.227 106.988Z" fill="#E74040"/>
<path d="M349.526 63.9817C348.22 64.0657 347.008 64.4463 345.891 65.1235C342.487 67.1081 340.846 70.9974 340.966 76.7913L348.969 76.5037C351.283 76.4053 353.06 76.1901 354.3 75.8581C356.676 75.1504 357.784 73.5405 357.622 71.0284C357.551 69.9231 357.284 68.9061 356.82 67.9773C355.474 65.0874 353.043 63.7555 349.526 63.9817ZM364.161 86.8021C363.904 87.5249 363.598 88.2509 363.241 88.9801C360.931 93.0637 357.063 95.28 351.637 95.629C348.22 95.8487 345.124 95.1649 342.348 93.5777C337.683 90.8508 335.15 86.3723 334.749 80.1424C334.53 76.726 335.036 73.616 336.268 70.8125C338.645 65.4129 342.974 62.5112 349.254 62.1073C352.469 61.9005 355.355 62.4465 357.91 63.7452C361.506 65.5319 363.414 68.1334 363.634 71.5499C363.753 73.4088 363.167 74.8843 361.875 75.9764C360.198 77.3455 356.291 78.1769 350.155 78.4706L341.102 78.9015C341.288 81.0084 341.638 82.9281 342.153 84.6607C343.914 90.8537 347.431 93.7805 352.707 93.4413C353.159 93.4122 353.635 93.3564 354.134 93.2738C358.02 92.5194 360.72 90.1765 362.233 86.245L364.161 86.8021Z" fill="#E74040"/>
</svg>
