<svg width="949" height="907" viewBox="0 0 949 907" fill="none" xmlns="http://www.w3.org/2000/svg">
<path fill-rule="evenodd" clip-rule="evenodd" d="M299.947 905.008L420.496 655.061L567.945 656.057L682.516 907L557.982 906.004C537.429 864.151 508.583 829.068 462.612 813.172L427.624 903.685L299.947 905.008ZM431.054 224.239C430.866 224.437 430.674 224.632 430.484 224.83C429.925 225.411 429.36 225.991 428.791 226.563C428.627 226.728 428.46 226.889 428.296 227.053C427.775 227.57 427.249 228.083 426.72 228.592C426.472 228.829 426.222 229.069 425.973 229.304C425.432 229.816 424.888 230.322 424.339 230.824C424.132 231.013 423.924 231.201 423.718 231.388C423.18 231.873 422.64 232.352 422.096 232.829C421.822 233.068 421.547 233.306 421.271 233.543C420.71 234.026 420.143 234.506 419.574 234.979C419.399 235.126 419.225 235.273 419.048 235.417C418.407 235.943 417.761 236.462 417.111 236.978C416.921 237.128 416.731 237.279 416.541 237.43C415.879 237.948 415.21 238.458 414.538 238.964C414.351 239.105 414.167 239.246 413.978 239.387C413.316 239.88 412.649 240.366 411.977 240.848C411.776 240.992 411.576 241.136 411.373 241.278C410.648 241.792 409.916 242.302 409.18 242.8C409.07 242.876 408.96 242.948 408.849 243.023C408.092 243.534 407.327 244.039 406.559 244.533C406.404 244.633 406.25 244.733 406.095 244.831C405.331 245.319 404.563 245.799 403.789 246.271C403.673 246.341 403.557 246.413 403.439 246.484C402.642 246.967 401.843 247.44 401.035 247.907C400.897 247.987 400.758 248.068 400.618 248.146C399.801 248.615 398.975 249.076 398.148 249.528C398.078 249.566 398.011 249.602 397.943 249.64C397.059 250.12 396.171 250.59 395.276 251.05C395.23 251.073 395.188 251.094 395.142 251.117C394.239 251.579 393.332 252.033 392.417 252.475C392.358 252.503 392.298 252.532 392.239 252.56C391.352 252.987 390.461 253.405 389.563 253.813C389.42 253.877 389.278 253.941 389.135 254.005C387.293 254.835 385.425 255.625 383.539 256.372C383.522 256.378 383.511 256.383 383.493 256.39C383.489 256.391 383.487 256.392 383.482 256.394C383.479 256.396 383.476 256.398 383.47 256.399C381.504 257.177 379.513 257.906 377.502 258.591C377.456 258.607 377.409 258.623 377.361 258.64C375.388 259.308 373.394 259.93 371.382 260.507C371.271 260.54 371.159 260.572 371.046 260.603C370.115 260.867 369.18 261.121 368.24 261.365C368.121 261.396 368.003 261.429 367.883 261.458C366.958 261.696 366.029 261.924 365.095 262.141C364.937 262.177 364.78 262.215 364.623 262.251C363.693 262.464 362.761 262.667 361.826 262.86C361.704 262.885 361.581 262.911 361.46 262.936C360.472 263.137 359.479 263.332 358.483 263.511C358.407 263.524 358.334 263.535 358.258 263.55C357.287 263.723 356.311 263.886 355.333 264.038C355.176 264.063 355.017 264.087 354.86 264.11C353.904 264.254 352.948 264.392 351.986 264.514C351.841 264.533 351.697 264.551 351.553 264.569C350.581 264.692 349.606 264.803 348.63 264.903C348.507 264.916 348.386 264.926 348.262 264.939C347.309 265.034 346.35 265.122 345.39 265.197C345.169 265.216 344.95 265.23 344.728 265.247C343.791 265.316 342.851 265.376 341.907 265.425C341.771 265.432 341.636 265.435 341.5 265.444C340.501 265.493 339.496 265.532 338.49 265.56C338.452 265.561 338.413 265.561 338.375 265.563C338.33 265.564 338.283 265.563 338.238 265.564C337.148 265.593 336.06 265.604 334.964 265.604C261.934 265.604 202.372 206.07 202.372 133.076C202.372 131.966 202.387 130.862 202.415 129.758C202.415 129.727 202.417 129.697 202.417 129.667C202.418 129.583 202.425 129.501 202.427 129.418C202.454 128.405 202.491 127.393 202.541 126.386C202.548 126.255 202.558 126.124 202.564 125.994C202.615 125.038 202.676 124.083 202.748 123.131C202.766 122.894 202.787 122.658 202.807 122.421C202.88 121.498 202.959 120.578 203.053 119.661C203.062 119.566 203.072 119.473 203.082 119.377C203.185 118.374 203.302 117.373 203.428 116.375C203.442 116.254 203.461 116.133 203.477 116.012C203.6 115.06 203.734 114.112 203.877 113.167C203.908 112.964 203.941 112.76 203.972 112.558C204.116 111.634 204.268 110.713 204.432 109.796C204.449 109.701 204.468 109.606 204.485 109.511C204.657 108.561 204.837 107.615 205.028 106.671C205.067 106.483 205.107 106.296 205.146 106.108C205.33 105.228 205.522 104.35 205.723 103.478C205.764 103.297 205.807 103.115 205.85 102.935C206.059 102.036 206.279 101.142 206.508 100.251C206.549 100.092 206.592 99.9329 206.633 99.774C206.856 98.9177 207.087 98.0643 207.327 97.2143C207.39 96.9965 207.451 96.7787 207.513 96.5609C207.741 95.7699 207.975 94.9817 208.218 94.1959C208.307 93.9024 208.399 93.6112 208.491 93.3177C208.719 92.5954 208.956 91.8796 209.196 91.1643C209.294 90.869 209.394 90.5743 209.494 90.2814C209.746 89.5476 210.003 88.8173 210.269 88.0881C210.37 87.8096 210.47 87.5311 210.574 87.2532C210.836 86.5454 211.104 85.8428 211.378 85.1419C211.522 84.7716 211.668 84.4029 211.816 84.0343C212.053 83.4403 212.296 82.8458 212.543 82.2558C212.776 81.7006 213.012 81.1488 213.251 80.597C213.41 80.2301 213.571 79.8632 213.735 79.498C213.988 78.926 214.247 78.358 214.51 77.7895C214.699 77.3781 214.893 76.9673 215.086 76.5576C215.353 75.9943 215.627 75.4344 215.901 74.8757C216.119 74.4337 216.338 73.9928 216.56 73.5543C216.792 73.0938 217.028 72.635 217.266 72.178C217.502 71.7244 217.741 71.2726 217.982 70.8207C218.308 70.2129 218.639 69.6085 218.973 69.0076C219.096 68.7846 219.222 68.565 219.347 68.3426C219.696 67.7232 220.048 67.1044 220.407 66.4919C220.641 66.0903 220.877 65.6922 221.117 65.2941C221.448 64.7423 221.782 64.1923 222.121 63.6451C222.362 63.2568 222.604 62.8674 222.848 62.482C223.114 62.0631 223.38 61.6436 223.65 61.2293C223.909 60.8295 224.169 60.4349 224.433 60.0385C224.833 59.4359 225.239 58.8361 225.649 58.2387C225.698 58.1665 225.749 58.0942 225.798 58.0238C226.319 57.2709 226.847 56.5238 227.383 55.7819C227.571 55.5213 227.76 55.2625 227.949 55.0036C228.379 54.4177 228.811 53.8342 229.251 53.2546C229.416 53.0351 229.586 52.819 229.753 52.5994C230.209 52.0066 230.666 51.4155 231.132 50.8308C231.304 50.613 231.479 50.398 231.653 50.1819C234.112 47.126 236.701 44.1764 239.418 41.3509C263.604 15.9072 297.744 0 335.488 0C408.516 0 468.078 59.5341 468.078 132.53C468.078 168.048 453.971 200.379 431.077 224.214C431.071 224.222 431.06 224.23 431.054 224.239ZM722.399 224.239C722.21 224.437 722.018 224.632 721.828 224.83C721.27 225.411 720.704 225.991 720.136 226.563C719.972 226.728 719.805 226.889 719.641 227.053C719.12 227.57 718.594 228.083 718.064 228.592C717.817 228.829 717.567 229.069 717.317 229.304C716.776 229.816 716.233 230.322 715.684 230.824C715.477 231.013 715.269 231.201 715.062 231.388C714.525 231.873 713.984 232.352 713.44 232.829C713.166 233.068 712.891 233.306 712.616 233.543C712.054 234.026 711.487 234.506 710.918 234.979C710.743 235.126 710.57 235.273 710.392 235.417C709.752 235.943 709.106 236.462 708.456 236.978C708.266 237.128 708.075 237.279 707.885 237.43C707.223 237.948 706.555 238.458 705.883 238.964C705.696 239.105 705.511 239.246 705.323 239.387C704.661 239.88 703.994 240.366 703.322 240.848C703.12 240.992 702.92 241.136 702.717 241.278C701.993 241.792 701.261 242.302 700.525 242.8C700.415 242.876 700.305 242.948 700.194 243.023C699.437 243.534 698.671 244.039 697.903 244.533C697.749 244.633 697.595 244.733 697.44 244.831C696.676 245.319 695.907 245.799 695.134 246.271C695.017 246.341 694.901 246.413 694.783 246.484C693.987 246.967 693.187 247.44 692.379 247.907C692.242 247.987 692.102 248.068 691.963 248.146C691.146 248.615 690.32 249.076 689.492 249.528C689.423 249.566 689.356 249.602 689.287 249.64C688.404 250.12 687.516 250.59 686.621 251.05C686.575 251.073 686.533 251.094 686.487 251.117C685.584 251.579 684.676 252.033 683.762 252.475C683.703 252.503 683.642 252.532 683.583 252.56C682.697 252.987 681.805 253.405 680.907 253.813C680.765 253.877 680.623 253.941 680.48 254.005C678.638 254.835 676.77 255.625 674.884 256.372C674.867 256.378 674.855 256.383 674.838 256.39C674.833 256.391 674.832 256.392 674.826 256.394C674.823 256.396 674.82 256.398 674.815 256.399C672.848 257.177 670.857 257.906 668.847 258.591C668.801 258.607 668.753 258.623 668.706 258.64C666.733 259.308 664.739 259.93 662.726 260.507C662.615 260.54 662.504 260.572 662.39 260.603C661.46 260.867 660.524 261.121 659.585 261.365C659.465 261.396 659.347 261.429 659.228 261.458C658.302 261.696 657.373 261.924 656.439 262.141C656.282 262.177 656.125 262.215 655.967 262.251C655.038 262.464 654.106 262.667 653.17 262.86C653.049 262.885 652.926 262.911 652.805 262.936C651.816 263.137 650.824 263.332 649.827 263.511C649.752 263.524 649.678 263.535 649.603 263.55C648.631 263.723 647.656 263.886 646.678 264.038C646.521 264.063 646.362 264.087 646.205 264.11C645.249 264.254 644.292 264.392 643.33 264.514C643.186 264.533 643.042 264.551 642.897 264.569C641.926 264.692 640.951 264.803 639.974 264.903C639.852 264.916 639.73 264.926 639.607 264.939C638.654 265.034 637.695 265.122 636.735 265.197C636.514 265.216 636.294 265.23 636.073 265.247C635.136 265.316 634.195 265.376 633.251 265.425C633.115 265.432 632.981 265.435 632.845 265.444C631.845 265.493 630.841 265.532 629.835 265.56C629.794 265.561 629.757 265.561 629.72 265.563C629.674 265.564 629.628 265.563 629.582 265.564C628.493 265.593 627.405 265.604 626.308 265.604C553.279 265.604 493.717 206.07 493.717 133.076C493.717 131.966 493.728 130.862 493.757 129.76C493.757 129.729 493.759 129.697 493.759 129.667C493.761 129.62 493.763 129.578 493.764 129.532C493.793 128.505 493.83 127.48 493.88 126.458C493.884 126.398 493.886 126.337 493.886 126.276C493.89 126.217 493.892 126.161 493.898 126.102C493.95 125.079 494.014 124.062 494.091 123.045C494.103 122.907 494.115 122.77 494.126 122.632C494.205 121.631 494.295 120.631 494.397 119.636C494.401 119.582 494.408 119.526 494.414 119.473C494.524 118.406 494.645 117.346 494.779 116.288C494.785 116.249 494.791 116.206 494.797 116.167C494.931 115.126 495.078 114.087 495.236 113.052C495.248 112.977 495.259 112.903 495.271 112.828C495.431 111.789 495.604 110.753 495.789 109.722C495.794 109.688 495.8 109.655 495.806 109.621C495.991 108.592 496.189 107.567 496.399 106.547C496.416 106.471 496.428 106.396 496.445 106.322C496.65 105.327 496.866 104.337 497.094 103.349C497.111 103.264 497.134 103.181 497.152 103.096C497.381 102.113 497.622 101.134 497.873 100.159C497.896 100.077 497.914 99.9953 497.937 99.912C498.182 98.9616 498.44 98.0169 498.707 97.0768C498.741 96.959 498.774 96.8411 498.807 96.7226C499.087 95.7467 499.377 94.7737 499.678 93.8077C499.69 93.773 499.696 93.7389 499.707 93.7042C499.998 92.7775 500.299 91.857 500.609 90.9383C500.655 90.7904 500.707 90.6402 500.758 90.4923C501.074 89.5655 501.402 88.6434 501.738 87.7264C501.761 87.6605 501.784 87.597 501.808 87.5311C502.142 86.6222 502.49 85.7168 502.844 84.816C502.89 84.6964 502.935 84.5768 502.983 84.4572C503.342 83.553 503.712 82.6539 504.091 81.7595C504.126 81.6763 504.16 81.5908 504.195 81.5076C504.548 80.6767 504.912 79.8534 505.28 79.0312C505.389 78.792 505.495 78.5528 505.605 78.3136C506.003 77.4405 506.408 76.5727 506.826 75.7094C506.827 75.7077 506.826 75.706 506.827 75.7031C507.281 74.7642 507.748 73.8293 508.223 72.9019C508.235 72.8794 508.246 72.858 508.258 72.8349C508.27 72.8089 508.287 72.7841 508.299 72.7581C509.241 70.927 510.224 69.122 511.248 67.3401C511.335 67.1893 511.425 67.0385 511.512 66.8883C511.956 66.1215 512.405 65.3617 512.865 64.6048C512.955 64.4558 513.049 64.3049 513.141 64.1559C513.599 63.4059 514.065 62.6606 514.539 61.9204C514.657 61.7372 514.776 61.557 514.894 61.3732C515.33 60.6984 515.769 60.0304 516.218 59.3654C516.374 59.1343 516.531 58.9055 516.687 58.6761C517.108 58.0584 517.534 57.4442 517.965 56.8335C518.171 56.5417 518.381 56.2505 518.589 55.9604C518.986 55.4098 519.384 54.8661 519.787 54.3207C520.003 54.0295 520.221 53.7377 520.441 53.4476C520.862 52.8895 521.288 52.3359 521.717 51.7836C521.933 51.5057 522.151 51.2289 522.371 50.9533C522.807 50.4032 523.244 49.8595 523.69 49.317C523.913 49.0454 524.136 48.7733 524.362 48.5017C524.793 47.984 525.231 47.4698 525.668 46.959C525.927 46.6557 526.187 46.3546 526.45 46.0548C526.922 45.514 527.395 44.9789 527.877 44.4462C528.083 44.2185 528.29 43.9909 528.496 43.7632C528.958 43.2588 529.424 42.7608 529.892 42.265C530.182 41.957 530.474 41.6508 530.766 41.3457C554.95 15.9055 589.095 0 626.836 0C699.863 0 759.425 59.5341 759.425 132.53C759.425 168.048 745.318 200.379 722.424 224.214C722.418 224.222 722.404 224.23 722.399 224.239ZM431.054 515.447C430.866 515.645 430.674 515.84 430.484 516.038C429.925 516.619 429.36 517.199 428.791 517.771C428.627 517.936 428.46 518.097 428.296 518.261C427.775 518.778 427.249 519.291 426.72 519.8C426.472 520.037 426.222 520.277 425.973 520.512C425.432 521.024 424.888 521.53 424.339 522.032C424.132 522.221 423.924 522.409 423.718 522.596C423.18 523.081 422.64 523.56 422.096 524.037C421.822 524.276 421.547 524.514 421.271 524.751C420.71 525.234 420.143 525.714 419.574 526.187C419.399 526.333 419.225 526.481 419.048 526.625C418.407 527.151 417.761 527.67 417.111 528.186C416.921 528.336 416.731 528.487 416.541 528.638C415.879 529.155 415.21 529.666 414.538 530.172C414.351 530.313 414.167 530.454 413.978 530.595C413.316 531.088 412.649 531.574 411.977 532.056C411.776 532.2 411.576 532.344 411.373 532.486C410.648 533 409.916 533.51 409.18 534.008C409.07 534.083 408.96 534.156 408.849 534.231C408.092 534.742 407.327 535.247 406.559 535.741C406.404 535.841 406.25 535.941 406.095 536.039C405.331 536.527 404.563 537.007 403.789 537.479C403.673 537.549 403.557 537.621 403.439 537.692C402.642 538.175 401.843 538.648 401.035 539.115C400.897 539.195 400.758 539.275 400.618 539.354C399.801 539.823 398.975 540.284 398.148 540.736C398.078 540.777 398.011 540.81 397.943 540.848C397.059 541.328 396.171 541.798 395.276 542.258C395.23 542.281 395.188 542.304 395.142 542.325C394.239 542.787 393.332 543.241 392.417 543.683C392.358 543.712 392.298 543.741 392.239 543.768C391.352 544.195 390.461 544.613 389.563 545.021C389.42 545.085 389.278 545.149 389.135 545.213C387.293 546.043 385.425 546.832 383.539 547.58C383.522 547.585 383.511 547.591 383.493 547.597C383.489 547.599 383.487 547.6 383.482 547.602C383.479 547.603 383.476 547.605 383.47 547.607C381.504 548.384 379.513 549.114 377.502 549.798C377.456 549.816 377.409 549.833 377.361 549.85C375.388 550.518 373.394 551.141 371.382 551.717C371.271 551.752 371.159 551.782 371.046 551.814C370.115 552.078 369.18 552.331 368.24 552.575C368.121 552.604 368.003 552.639 367.883 552.669C366.958 552.906 366.029 553.134 365.095 553.352C364.937 553.386 364.78 553.426 364.623 553.462C363.693 553.674 362.761 553.878 361.826 554.07C361.704 554.094 361.581 554.123 361.46 554.146C360.472 554.347 359.479 554.543 358.483 554.721C358.407 554.733 358.334 554.744 358.258 554.762C357.287 554.935 356.311 555.097 355.333 555.25C355.176 555.273 355.017 555.296 354.86 555.321C353.904 555.466 352.948 555.603 351.986 555.726C351.841 555.743 351.697 555.761 351.553 555.778C350.581 555.901 349.606 556.012 348.63 556.112C348.507 556.123 348.386 556.135 348.262 556.147C347.309 556.241 346.35 556.33 345.39 556.405C345.169 556.422 344.95 556.439 344.728 556.457C343.791 556.526 342.851 556.586 341.907 556.635C341.771 556.641 341.636 556.646 341.5 556.652C340.501 556.698 339.496 556.74 338.49 556.768C338.452 556.77 338.413 556.77 338.375 556.772C338.33 556.773 338.283 556.772 338.238 556.773C337.148 556.802 336.06 556.813 334.964 556.813C261.934 556.813 202.372 497.28 202.372 424.286C202.372 423.175 202.387 422.072 202.415 420.968C202.415 420.939 202.417 420.907 202.417 420.876C202.418 420.793 202.425 420.711 202.427 420.627C202.454 419.615 202.491 418.603 202.541 417.596C202.548 417.465 202.558 417.333 202.564 417.204C202.615 416.248 202.676 415.293 202.748 414.341C202.766 414.103 202.787 413.868 202.807 413.63C202.88 412.708 202.959 411.788 203.053 410.871C203.062 410.775 203.072 410.682 203.082 410.587C203.185 409.583 203.302 408.583 203.428 407.585C203.442 407.464 203.461 407.343 203.477 407.221C203.6 406.27 203.734 405.322 203.877 404.376C203.908 404.174 203.941 403.97 203.972 403.767C204.116 402.843 204.268 401.923 204.432 401.006C204.449 400.911 204.468 400.816 204.485 400.721C204.657 399.771 204.837 398.824 205.028 397.881C205.067 397.692 205.107 397.506 205.146 397.317C205.33 396.438 205.522 395.56 205.723 394.687C205.764 394.507 205.807 394.325 205.85 394.145C206.059 393.246 206.279 392.351 206.508 391.46C206.549 391.301 206.592 391.143 206.633 390.984C206.856 390.127 207.087 389.274 207.327 388.424C207.39 388.206 207.451 387.988 207.513 387.771C207.741 386.98 207.975 386.191 208.218 385.406C208.307 385.112 208.399 384.821 208.491 384.527C208.719 383.805 208.956 383.089 209.196 382.374C209.294 382.079 209.394 381.784 209.494 381.491C209.746 380.757 210.003 380.027 210.269 379.298C210.37 379.019 210.47 378.741 210.574 378.463C210.836 377.755 211.104 377.052 211.378 376.352C211.522 375.981 211.668 375.613 211.816 375.244C212.053 374.65 212.296 374.055 212.543 373.466C212.776 372.91 213.012 372.358 213.251 371.807C213.41 371.44 213.571 371.073 213.735 370.708C213.988 370.136 214.247 369.568 214.51 368.999C214.699 368.588 214.893 368.177 215.086 367.767C215.353 367.204 215.627 366.644 215.901 366.085C216.119 365.643 216.338 365.203 216.56 364.764C216.792 364.303 217.028 363.845 217.266 363.388C217.502 362.934 217.741 362.482 217.982 362.03C218.308 361.423 218.639 360.818 218.973 360.217C219.096 359.994 219.222 359.775 219.347 359.552C219.696 358.933 220.048 358.314 220.407 357.702C220.641 357.3 220.877 356.902 221.117 356.504C221.448 355.952 221.782 355.402 222.121 354.855C222.362 354.467 222.604 354.077 222.848 353.692C223.114 353.273 223.38 352.853 223.65 352.439C223.909 352.039 224.169 351.645 224.433 351.248C224.833 350.646 225.239 350.046 225.649 349.448C225.698 349.376 225.749 349.304 225.798 349.233C226.319 348.481 226.847 347.734 227.383 346.992C227.571 346.731 227.76 346.472 227.949 346.213C228.379 345.627 228.811 345.044 229.251 344.464C229.416 344.245 229.586 344.029 229.753 343.809C230.209 343.216 230.666 342.625 231.132 342.04C231.304 341.823 231.479 341.608 231.653 341.392C234.112 338.336 236.701 335.386 239.418 332.561C263.604 307.117 297.744 291.21 335.488 291.21C408.516 291.21 468.078 350.744 468.078 423.739C468.078 459.257 453.971 491.588 431.077 515.424C431.071 515.429 431.06 515.441 431.054 515.447ZM722.399 515.447C722.21 515.645 722.018 515.84 721.828 516.038C721.27 516.619 720.704 517.199 720.136 517.771C719.972 517.936 719.805 518.097 719.641 518.261C719.12 518.778 718.594 519.291 718.064 519.8C717.817 520.037 717.567 520.277 717.317 520.512C716.776 521.024 716.233 521.53 715.684 522.032C715.477 522.221 715.269 522.409 715.062 522.596C714.525 523.081 713.984 523.56 713.44 524.037C713.166 524.276 712.891 524.514 712.616 524.751C712.054 525.234 711.487 525.714 710.918 526.187C710.743 526.333 710.57 526.481 710.392 526.625C709.752 527.151 709.106 527.67 708.456 528.186C708.266 528.336 708.075 528.487 707.885 528.638C707.223 529.155 706.555 529.666 705.883 530.172C705.696 530.313 705.511 530.454 705.323 530.595C704.661 531.088 703.994 531.574 703.322 532.056C703.12 532.2 702.92 532.344 702.717 532.486C701.993 533 701.261 533.51 700.525 534.008C700.415 534.083 700.305 534.156 700.194 534.231C699.437 534.742 698.671 535.247 697.903 535.741C697.749 535.841 697.595 535.941 697.44 536.039C696.676 536.527 695.907 537.007 695.134 537.479C695.017 537.549 694.901 537.621 694.783 537.692C693.987 538.175 693.187 538.648 692.379 539.115C692.242 539.195 692.102 539.275 691.963 539.354C691.146 539.823 690.32 540.284 689.492 540.736C689.423 540.777 689.356 540.81 689.287 540.848C688.404 541.328 687.516 541.798 686.621 542.258C686.575 542.281 686.533 542.304 686.487 542.325C685.584 542.787 684.676 543.241 683.762 543.683C683.703 543.712 683.642 543.741 683.583 543.768C682.697 544.195 681.805 544.613 680.907 545.021C680.765 545.085 680.623 545.149 680.48 545.213C678.638 546.043 676.77 546.832 674.884 547.58C674.867 547.585 674.855 547.591 674.838 547.597C674.833 547.599 674.832 547.6 674.826 547.602C674.823 547.603 674.82 547.605 674.815 547.607C672.848 548.384 670.857 549.114 668.847 549.798C668.801 549.816 668.753 549.833 668.706 549.85C666.733 550.518 664.739 551.141 662.726 551.717C662.615 551.752 662.504 551.782 662.39 551.814C661.46 552.078 660.524 552.331 659.585 552.575C659.465 552.604 659.347 552.639 659.228 552.669C658.302 552.906 657.373 553.134 656.439 553.352C656.282 553.386 656.125 553.426 655.967 553.462C655.038 553.674 654.106 553.878 653.17 554.07C653.049 554.094 652.926 554.123 652.805 554.146C651.816 554.347 650.824 554.543 649.827 554.721C649.752 554.733 649.678 554.744 649.603 554.762C648.631 554.935 647.656 555.097 646.678 555.25C646.521 555.273 646.362 555.296 646.205 555.321C645.249 555.466 644.292 555.603 643.33 555.726C643.186 555.743 643.042 555.761 642.897 555.778C641.926 555.901 640.951 556.012 639.974 556.112C639.852 556.123 639.73 556.135 639.607 556.147C638.654 556.241 637.695 556.33 636.735 556.405C636.514 556.422 636.294 556.439 636.073 556.457C635.136 556.526 634.195 556.586 633.251 556.635C633.115 556.641 632.981 556.646 632.845 556.652C631.845 556.698 630.841 556.74 629.835 556.768C629.794 556.77 629.757 556.77 629.72 556.772C629.674 556.773 629.628 556.772 629.582 556.773C628.493 556.802 627.405 556.813 626.308 556.813C553.279 556.813 493.717 497.28 493.717 424.286C493.717 423.175 493.728 422.072 493.757 420.969C493.757 420.941 493.759 420.907 493.759 420.876C493.761 420.83 493.763 420.787 493.764 420.742C493.793 419.715 493.83 418.689 493.88 417.667C493.884 417.607 493.886 417.547 493.886 417.486C493.89 417.427 493.892 417.371 493.898 417.312C493.95 416.289 494.014 415.271 494.091 414.254C494.103 414.117 494.115 413.979 494.126 413.842C494.205 412.841 494.295 411.84 494.397 410.846C494.401 410.792 494.408 410.736 494.414 410.682C494.524 409.616 494.645 408.556 494.779 407.498C494.785 407.459 494.791 407.416 494.797 407.377C494.931 406.336 495.078 405.297 495.236 404.262C495.248 404.187 495.259 404.113 495.271 404.038C495.431 402.999 495.604 401.962 495.789 400.932C495.794 400.898 495.8 400.865 495.806 400.83C495.991 399.802 496.189 398.777 496.399 397.757C496.416 397.681 496.428 397.606 496.445 397.532C496.65 396.536 496.866 395.547 497.094 394.559C497.111 394.474 497.134 394.39 497.152 394.305C497.381 393.323 497.622 392.343 497.873 391.369C497.896 391.287 497.914 391.205 497.937 391.122C498.182 390.171 498.44 389.227 498.707 388.286C498.741 388.169 498.774 388.051 498.807 387.932C499.087 386.956 499.377 385.983 499.678 385.017C499.69 384.983 499.696 384.949 499.707 384.914C499.998 383.987 500.299 383.067 500.609 382.148C500.655 382 500.707 381.85 500.758 381.702C501.074 380.775 501.402 379.853 501.738 378.936C501.761 378.87 501.784 378.807 501.808 378.741C502.142 377.832 502.49 376.927 502.844 376.026C502.89 375.906 502.935 375.787 502.983 375.667C503.342 374.763 503.712 373.864 504.091 372.969C504.126 372.886 504.16 372.801 504.195 372.717C504.548 371.886 504.912 371.063 505.28 370.241C505.389 370.002 505.495 369.762 505.605 369.523C506.003 368.65 506.408 367.782 506.826 366.919C506.827 366.917 506.826 366.916 506.827 366.913C507.281 365.974 507.748 365.039 508.223 364.112C508.235 364.089 508.246 364.068 508.258 364.045C508.27 364.019 508.287 363.994 508.299 363.968C509.241 362.137 510.224 360.332 511.248 358.55C511.335 358.399 511.425 358.248 511.512 358.098C511.956 357.331 512.405 356.571 512.865 355.815C512.955 355.665 513.049 355.515 513.141 355.366C513.599 354.616 514.065 353.87 514.539 353.13C514.657 352.947 514.776 352.767 514.894 352.583C515.33 351.908 515.769 351.24 516.218 350.575C516.374 350.344 516.531 350.115 516.687 349.886C517.108 349.268 517.534 348.654 517.965 348.043C518.171 347.751 518.381 347.46 518.589 347.17C518.986 346.62 519.384 346.076 519.787 345.53C520.003 345.239 520.221 344.947 520.441 344.657C520.862 344.099 521.288 343.546 521.717 342.993C521.933 342.715 522.151 342.439 522.371 342.163C522.807 341.613 523.244 341.069 523.69 340.527C523.913 340.255 524.136 339.983 524.362 339.711C524.793 339.194 525.231 338.679 525.668 338.169C525.927 337.865 526.187 337.564 526.45 337.264C526.922 336.724 527.395 336.189 527.877 335.656C528.083 335.428 528.29 335.201 528.496 334.973C528.958 334.469 529.424 333.97 529.892 333.475C530.182 333.167 530.474 332.86 530.766 332.555C554.95 307.115 589.095 291.21 626.836 291.21C699.863 291.21 759.425 350.744 759.425 423.739C759.425 459.257 745.318 491.588 722.424 515.424C722.418 515.429 722.404 515.441 722.399 515.447ZM276.168 667.427C218.582 656.045 156.074 651.248 97.7512 662.546C70.2833 667.864 44.8473 676.33 24.6035 692.919C13.6364 701.906 7.31125 711.031 3.48215 721.693C-0.979932 734.12 -0.938894 744.158 2.38267 753.171C8.05348 768.565 19.4205 777.899 32.7819 784.797C61.3985 799.571 92.3486 805.839 123.715 810.983C134.821 812.801 155.389 813.176 166.779 820.297C172.4 823.809 173.662 826.814 172.567 829.332C170.51 834.063 164.557 836.958 157.312 837.986C106.641 845.187 50.7985 825.868 3.85559 809.514L3.50354 887.544C78.8219 906.833 193.879 917.654 266.621 877.797C288.392 865.869 301.016 847.545 303.675 825.762C306.742 800.545 286.057 784.172 262.918 773.477C232.791 759.548 203.92 754.751 171.674 749.246C153.14 746.082 135.29 741.54 133.073 733.489C132.558 731.617 132.503 729.594 133.718 728.123C150.077 708.337 264.485 730.243 276.168 742.44V667.427ZM640.359 656.178H742.765H846.594H949V741.477H846.594V904.966H742.765V741.477H640.359V656.178ZM467.243 800.829C468.272 797.229 497.6 724.715 497.6 724.715L520.238 802.371L467.243 800.829Z" fill="#E74040"/>
</svg>
