<svg width="732" height="911" viewBox="0 0 732 911" fill="none" xmlns="http://www.w3.org/2000/svg">
<path d="M630.375 195.188C652.639 195.188 670.688 177.139 670.688 154.875C670.688 132.611 652.639 114.562 630.375 114.562C608.111 114.562 590.062 132.611 590.062 154.875C590.062 177.139 608.111 195.188 630.375 195.188Z" fill="#002D51"/>
<path d="M361.875 706.125C388.971 706.125 410.937 684.159 410.937 657.062C410.937 629.966 388.971 608 361.875 608C334.779 608 312.812 629.966 312.812 657.062C312.812 684.159 334.779 706.125 361.875 706.125Z" fill="#002D51"/>
<path d="M595.312 706.125C622.409 706.125 644.375 684.159 644.375 657.062C644.375 629.966 622.409 608 595.312 608C568.216 608 546.25 629.966 546.25 657.062C546.25 684.159 568.216 706.125 595.312 706.125Z" fill="#002D51"/>
<path d="M131.875 706.125C158.971 706.125 180.938 684.159 180.938 657.062C180.938 629.966 158.971 608 131.875 608C104.779 608 82.8125 629.966 82.8125 657.062C82.8125 684.159 104.779 706.125 131.875 706.125Z" fill="#002D51"/>
<path d="M418.75 712.375H362.5H306.25C279.375 712.375 262.5 731.125 256.25 756.125H471.875C464.375 731.125 445 712.375 418.75 712.375Z" fill="#002D51"/>
<path d="M652.188 712.375H595.938H539.688C512.813 712.375 496.562 731.125 490.625 756.125H706.25C698.438 731.125 678.438 712.375 652.188 712.375Z" fill="#002D51"/>
<path d="M188.437 712.375H132.188H75.9375C49.375 712.375 31.5625 731.125 25 756.125H237.812C231.875 731.125 215 712.375 188.437 712.375Z" fill="#002D51"/>
<path d="M361.875 860.125C388.971 860.125 410.937 838.159 410.937 811.062C410.937 783.966 388.971 762 361.875 762C334.779 762 312.812 783.966 312.812 811.062C312.812 838.159 334.779 860.125 361.875 860.125Z" fill="#002D51"/>
<path d="M595.312 860.125C622.409 860.125 644.375 838.159 644.375 811.062C644.375 783.966 622.409 762 595.312 762C568.216 762 546.25 783.966 546.25 811.062C546.25 838.159 568.216 860.125 595.312 860.125Z" fill="#002D51"/>
<path d="M131.875 860.125C158.971 860.125 180.938 838.159 180.938 811.062C180.938 783.966 158.971 762 131.875 762C104.779 762 82.8125 783.966 82.8125 811.062C82.8125 838.159 104.779 860.125 131.875 860.125Z" fill="#002D51"/>
<path d="M418.75 866.375H362.5H306.25C279.375 866.375 262.5 885.125 256.25 910.125H471.875C464.375 885.125 445 866.375 418.75 866.375Z" fill="#002D51"/>
<path d="M652.188 866.375H595.938H539.688C512.813 866.375 496.562 885.125 490.625 910.125H706.25C698.438 885.125 678.438 866.375 652.188 866.375Z" fill="#002D51"/>
<path d="M188.437 866.375H132.188H75.9375C49.375 866.375 31.5625 885.125 25 910.125H237.812C231.875 885.125 215 866.375 188.437 866.375Z" fill="#002D51"/>
<path d="M300.375 488V463H323.188C354.438 463 378.5 438.313 378.5 407.063V366.125H398.813C405.375 366.125 410.375 361.437 410.375 354.875C410.375 353.312 410.063 352.062 409.438 350.812L379.438 275.188C379.438 275.188 376.312 243.937 373.5 232.062C361 178.312 301 129.25 235.688 129.25C156.625 129.25 92.25 193.312 92.25 273C92.25 318.937 112.563 359.563 146.938 385.813V488H300.375ZM344.438 271.75C353.188 271.75 360.375 278.938 360.375 287.688C360.375 296.438 353.188 303.937 344.438 303.937C335.375 303.937 328.188 296.75 328.188 287.688C328.188 278.938 335.375 271.75 344.438 271.75ZM142.25 353.625C122.875 331.75 110.687 302.687 110.687 271.125C110.687 202.375 166.313 147.063 234.75 147.063C270.688 147.063 302.563 162.063 325.375 186.125C325.375 186.125 326.938 285.188 214.438 287.688C136.625 287.688 142.25 353.625 142.25 353.625Z" fill="#002D51"/>
<path d="M0.375 0.5V59.875H25.375V556.75H519.125V309.875H497.25V531.75H47.25V59.875H497.25V247.375L509.125 247.063L519.125 237.062V59.875H547.25V0.5H0.375Z" fill="#002D51"/>
<path d="M680.375 203.625H589.75C576.937 203.625 563.5 208.312 553.5 218C553.5 218.312 523.187 247.687 510.687 259.875H438.812C435.375 259.875 432.25 261.437 429.75 263.312L384.75 201.75C383.187 199.875 380.688 199.25 378.813 200.812C376.938 202.375 376.625 204.875 377.875 206.75L423.812 270.5C422.562 273 421.625 276.125 421.625 279.25C421.625 288.937 429.437 297.375 439.125 297.375H494.125H497.25H519.125C525.375 297.062 527.875 294.875 530.687 292.375L566.625 256.437C567.562 255.5 569.125 254.875 570.375 254.875C573.187 254.875 575.375 257.062 575.375 259.875V569.25C575.375 583 586.625 594.25 600.375 594.25C614.125 594.25 625.375 583 625.375 569.25V394.562C625.375 391.75 627.25 389.562 630.062 389.562C632.875 389.562 634.75 391.75 634.75 394.562V569.562C634.75 583.312 646 594.562 659.75 594.562C673.5 594.562 684.75 583.312 684.75 569.562V264.562C684.75 261.75 686.625 259.562 689.437 259.562C692.25 259.562 694.125 261.75 694.125 264.562V377.062C694.125 386.75 702.875 394.562 712.875 394.562C722.562 394.562 728.5 386.437 731.625 376.75V254.562C731.625 226.75 707.875 203.625 680.375 203.625Z" fill="#002D51"/>
</svg>
